<?xml version="1.0" encoding="utf-8"?>
<!-- Generator: Adobe Illustrator 21.0.2, SVG Export Plug-In . SVG Version: 6.00 Build 0)  -->
<svg version="1.1" xmlns="http://www.w3.org/2000/svg" xmlns:xlink="http://www.w3.org/1999/xlink" x="0px" y="0px"
	 viewBox="0 0 176.4 125.6" style="enable-background:new 0 0 176.4 125.6;" xml:space="preserve">
<style type="text/css">
	.st0{fill:#FFFFFF;stroke:#CBCBCB;stroke-width:2;stroke-miterlimit:10;}
	.st1{opacity:0.6;fill:url(#);}
	.st2{opacity:0.7;}
	.st3{fill:#E5E5E5;}
	.st4{fill:#1A1A22;}
	.st5{fill:#FFFFFF;}
	.st6{fill:#72B12D;}
	.st7{fill:#231815;}
	.st8{fill:#333333;}
	.st9{fill:#989898;}
	.st10{fill:#4B8F00;}
	.st11{fill:#CBCBCB;}
	.st12{fill:#FFFFFF;stroke:#CBCBCB;stroke-miterlimit:10;}
	.st13{fill:none;stroke:#000000;stroke-width:2;stroke-miterlimit:10;}
	.st14{fill:#808080;}
	.st15{fill:none;stroke:#CBCBCB;stroke-width:2;stroke-miterlimit:10;}
	.st16{fill:#333333;stroke:#FFFFFF;stroke-miterlimit:10;}
	.st17{fill:none;stroke:#E5E5E5;stroke-width:2;stroke-miterlimit:10;}
	.st18{fill:#1A1A1A;}
	.st19{fill:none;stroke:#CBCBCB;stroke-miterlimit:10;}
	.st20{fill:#89AD3C;}
	.st21{clip-path:url(#SVGID_4_);fill:url(#SVGID_5_);}
	.st22{fill:#A3BB5C;}
	.st23{fill:#C7D49A;}
	.st24{clip-path:url(#SVGID_7_);fill:url(#SVGID_8_);}
	.st25{fill:none;stroke:#333333;stroke-width:2;stroke-miterlimit:10;}
	.st26{opacity:0.95;fill:#FFFFFF;}
	.st27{fill:#4D4D4D;}
	.st28{fill:#F1F1F1;}
	.st29{fill:#666666;}
	.st30{fill:#84AD43;}
	.st31{clip-path:url(#SVGID_12_);fill:url(#SVGID_13_);}
	.st32{fill:#A1BC63;}
	.st33{fill:#C6D59F;}
	.st34{fill:none;stroke:#E5E5E5;stroke-miterlimit:10;}
	.st35{fill:none;stroke:#72B12D;stroke-width:2;stroke-miterlimit:10;}
	.st36{fill:#B2B2B2;}
	.st37{clip-path:url(#SVGID_15_);fill:url(#SVGID_16_);}
	.st38{fill:#C59B6D;}
	.st39{clip-path:url(#SVGID_18_);fill:url(#SVGID_19_);}
	.st40{clip-path:url(#SVGID_21_);fill:url(#SVGID_22_);}
	.st41{clip-path:url(#SVGID_24_);fill:url(#SVGID_25_);}
	.st42{fill:none;stroke:#808080;stroke-width:1.1859;stroke-miterlimit:10;}
	.st43{fill:none;stroke:#808080;stroke-miterlimit:10;}
	.st44{fill:none;stroke:#4B8F00;stroke-width:1.2003;stroke-miterlimit:10;}
	.st45{fill:#4B8F00;stroke:#4B8F00;stroke-width:1.2003;stroke-miterlimit:10;}
	.st46{fill:#4B8F00;stroke:#4B8F00;stroke-miterlimit:10;}
	.st47{fill:#FFFFFF;stroke:#4B8F00;stroke-width:1.2003;stroke-miterlimit:10;}
	.st48{fill:none;stroke:#4B8F00;stroke-miterlimit:10;}
	.st49{fill:none;stroke:#808080;stroke-width:1.1147;stroke-miterlimit:10;}
	.st50{clip-path:url(#SVGID_27_);fill:url(#SVGID_28_);}
	.st51{fill:none;stroke:#808080;stroke-width:1.2003;stroke-miterlimit:10;}
	.st52{fill:#808080;stroke:#808080;stroke-width:1.2003;stroke-miterlimit:10;}
	.st53{fill:#808080;stroke:#808080;stroke-miterlimit:10;}
	.st54{fill:#FFFFFF;stroke:#808080;stroke-width:1.2003;stroke-miterlimit:10;}
	.st55{fill:none;stroke:#4B8F00;stroke-width:1.1859;stroke-miterlimit:10;}
	.st56{clip-path:url(#SVGID_30_);fill:url(#SVGID_31_);}
	.st57{fill:none;stroke:#4B8F00;stroke-width:2.1801;stroke-miterlimit:10;}
	.st58{fill:#4B8F00;stroke:#4B8F00;stroke-width:1.6642;stroke-miterlimit:10;}
	.st59{fill:none;stroke:#4B8F00;stroke-width:2.1801;stroke-linecap:round;stroke-miterlimit:10;}
	.st60{fill:#4B8F00;stroke:#4B8F00;stroke-width:0.997;stroke-miterlimit:10;}
	.st61{fill:none;stroke:#4B8F00;stroke-width:2.1801;stroke-linecap:round;stroke-linejoin:round;stroke-miterlimit:10;}
	.st62{fill:none;stroke:#4B8F00;stroke-width:2;stroke-linecap:round;stroke-linejoin:round;stroke-miterlimit:10;}
	.st63{fill:none;stroke:#4B8F00;stroke-width:2.1801;stroke-linejoin:round;stroke-miterlimit:10;}
	.st64{fill:#4B8F00;stroke:#4B8F00;stroke-width:0.6024;stroke-miterlimit:10;}
	.st65{fill:#FFFFFF;stroke:#4B8F00;stroke-width:2.1801;stroke-miterlimit:10;}
	.st66{fill:#FFFFFF;stroke:#4B8F00;stroke-width:1.6642;stroke-miterlimit:10;}
	.st67{fill:none;stroke:#4B8F00;stroke-width:1.1147;stroke-miterlimit:10;}
	.st68{fill:none;stroke:#FFFFFF;stroke-width:3.4983;stroke-miterlimit:10;}
	.st69{clip-path:url(#SVGID_33_);fill:url(#SVGID_34_);}
	.st70{clip-path:url(#SVGID_36_);fill:url(#SVGID_37_);}
	.st71{display:none;}
	.st72{display:inline;fill:#F1F1F1;stroke:#CBCBCB;stroke-miterlimit:10;}
	.st73{display:inline;}
	.st74{fill:#343542;}
	.st75{fill:#72B12D;stroke:#4B8F00;stroke-miterlimit:10;}
	.st76{display:inline;fill:#E5E5E5;stroke:#CBCBCB;stroke-width:2;stroke-miterlimit:10;}
	.st77{display:inline;fill:#333333;}
	.st78{fill:none;stroke:#333333;stroke-width:1.1859;stroke-miterlimit:10;}
	.st79{fill:none;stroke:#333333;stroke-miterlimit:10;}
	.st80{fill:#FFFFFF;stroke:#72B12D;stroke-width:2;stroke-miterlimit:10;}
</style>
<g id="top">
</g>
<g id="shered-server">
</g>
<g id="dedicated-server">
</g>
<g id="VPS">
</g>
<g id="domain">
</g>
<g id="SLL">
</g>
<g id="ACRONIS">
	<polyline class="st15" points="272.7,274.4 -461.4,274.4 -461.4,-29.6 -826.7,-29.6 -826.7,276.4 	"/>
	<g>
		<g>
			<path class="st43" d="M14.6,116.5h3.5v-8c0,0-12.4-0.9,1.1-20.6c0,0,11.9,18.9,0.9,20.6v8h9V75.8l17,0.1v-4.4h3v45.1l10.4-0.2"/>
			<rect x="32.1" y="80.5" class="st43" width="2" height="3"/>
			<rect x="36.1" y="80.5" class="st43" width="4" height="3"/>
			<rect x="32.1" y="88.5" class="st43" width="2" height="4"/>
			<rect x="36.1" y="88.5" class="st43" width="4" height="4"/>
			<circle class="st49" cx="36.1" cy="89.4" r="35.6"/>
		</g>
		<g>
			<g>
				<path class="st43" d="M108.6,106.5h9.5V77.4c0,0,2.5-1.1,4,0.4l0.3,16.7l5,1.9l-0.4,10.1h3.4l0-19.6l8.6,6.1l-0.6-6.7l8.8,7.5
					l-0.4-7.4l9.4,7.2l-0.4,13h3l0.4-13h7.2l-0.3,13h5.7"/>
				<polygon class="st43" points="160.1,97.5 160.1,102.7 163.8,102.6 163.9,97.5 				"/>
				<rect x="133.1" y="97.5" class="st43" width="7" height="5"/>
				<rect x="142.1" y="97.5" class="st43" width="3" height="5"/>
			</g>
			<circle class="st49" cx="140.3" cy="89.4" r="35.6"/>
		</g>
		<polygon class="st43" points="72.3,43.5 66.5,15.5 110.5,15.5 104.7,43.5 		"/>
		<polyline class="st43" points="70.1,16 70.1,0.5 82.3,0.5 84.4,4.5 108.1,4.5 108.1,16 		"/>
		<polyline class="st43" points="74.1,15 74.1,11.5 105.1,11.5 105.1,15 		"/>
		<polyline class="st43" points="76.1,11 76.1,8.5 103.1,8.5 103.1,11 		"/>
		<polyline class="st49" points="35.6,53.3 36.2,26.3 68.7,26.3 		"/>
		<polyline class="st43" points="108.6,27.7 142.1,27.5 142.1,54 		"/>
	</g>
</g>
<g id="PROSELF">
</g>
<g id="J-support">
</g>
<g id="faq">
</g>
<g id="mouse-over" class="st71">
</g>
<g id="menu">
</g>
</svg>
