<?xml version="1.0" encoding="utf-8"?>
<!-- Generator: Adobe Illustrator 21.0.2, SVG Export Plug-In . SVG Version: 6.00 Build 0)  -->
<svg version="1.1" xmlns="http://www.w3.org/2000/svg" xmlns:xlink="http://www.w3.org/1999/xlink" x="0px" y="0px"
	 viewBox="0 0 173.1 140.3" style="enable-background:new 0 0 173.1 140.3;" xml:space="preserve">
<style type="text/css">
	.st0{fill:#FFFFFF;stroke:#CBCBCB;stroke-width:2;stroke-miterlimit:10;}
	.st1{opacity:0.6;fill:url(#);}
	.st2{opacity:0.7;}
	.st3{fill:#E5E5E5;}
	.st4{fill:#1A1A22;}
	.st5{fill:#FFFFFF;}
	.st6{fill:#72B12D;}
	.st7{fill:#231815;}
	.st8{fill:#333333;}
	.st9{fill:#989898;}
	.st10{fill:#4B8F00;}
	.st11{fill:#CBCBCB;}
	.st12{fill:#FFFFFF;stroke:#CBCBCB;stroke-miterlimit:10;}
	.st13{fill:none;stroke:#000000;stroke-width:2;stroke-miterlimit:10;}
	.st14{fill:#808080;}
	.st15{fill:none;stroke:#CBCBCB;stroke-width:2;stroke-miterlimit:10;}
	.st16{fill:#333333;stroke:#FFFFFF;stroke-miterlimit:10;}
	.st17{fill:none;stroke:#E5E5E5;stroke-width:2;stroke-miterlimit:10;}
	.st18{fill:#1A1A1A;}
	.st19{fill:none;stroke:#CBCBCB;stroke-miterlimit:10;}
	.st20{fill:#89AD3C;}
	.st21{clip-path:url(#SVGID_4_);fill:url(#SVGID_5_);}
	.st22{fill:#A3BB5C;}
	.st23{fill:#C7D49A;}
	.st24{clip-path:url(#SVGID_7_);fill:url(#SVGID_8_);}
	.st25{fill:none;stroke:#333333;stroke-width:2;stroke-miterlimit:10;}
	.st26{opacity:0.95;fill:#FFFFFF;}
	.st27{fill:#4D4D4D;}
	.st28{fill:#F1F1F1;}
	.st29{fill:#666666;}
	.st30{fill:#84AD43;}
	.st31{clip-path:url(#SVGID_12_);fill:url(#SVGID_13_);}
	.st32{fill:#A1BC63;}
	.st33{fill:#C6D59F;}
	.st34{fill:none;stroke:#E5E5E5;stroke-miterlimit:10;}
	.st35{fill:none;stroke:#72B12D;stroke-width:2;stroke-miterlimit:10;}
	.st36{fill:#B2B2B2;}
	.st37{clip-path:url(#SVGID_15_);fill:url(#SVGID_16_);}
	.st38{fill:#C59B6D;}
	.st39{clip-path:url(#SVGID_18_);fill:url(#SVGID_19_);}
	.st40{clip-path:url(#SVGID_21_);fill:url(#SVGID_22_);}
	.st41{clip-path:url(#SVGID_24_);fill:url(#SVGID_25_);}
	.st42{fill:none;stroke:#808080;stroke-width:1.1859;stroke-miterlimit:10;}
	.st43{fill:none;stroke:#808080;stroke-miterlimit:10;}
	.st44{fill:none;stroke:#4B8F00;stroke-width:1.2003;stroke-miterlimit:10;}
	.st45{fill:#4B8F00;stroke:#4B8F00;stroke-width:1.2003;stroke-miterlimit:10;}
	.st46{fill:#4B8F00;stroke:#4B8F00;stroke-miterlimit:10;}
	.st47{fill:#FFFFFF;stroke:#4B8F00;stroke-width:1.2003;stroke-miterlimit:10;}
	.st48{fill:none;stroke:#4B8F00;stroke-miterlimit:10;}
	.st49{fill:none;stroke:#808080;stroke-width:1.1147;stroke-miterlimit:10;}
	.st50{clip-path:url(#SVGID_27_);fill:url(#SVGID_28_);}
	.st51{fill:none;stroke:#808080;stroke-width:1.2003;stroke-miterlimit:10;}
	.st52{fill:#808080;stroke:#808080;stroke-width:1.2003;stroke-miterlimit:10;}
	.st53{fill:#808080;stroke:#808080;stroke-miterlimit:10;}
	.st54{fill:#FFFFFF;stroke:#808080;stroke-width:1.2003;stroke-miterlimit:10;}
	.st55{fill:none;stroke:#4B8F00;stroke-width:1.1859;stroke-miterlimit:10;}
	.st56{clip-path:url(#SVGID_30_);fill:url(#SVGID_31_);}
	.st57{fill:none;stroke:#4B8F00;stroke-width:2.1801;stroke-miterlimit:10;}
	.st58{fill:#4B8F00;stroke:#4B8F00;stroke-width:1.6642;stroke-miterlimit:10;}
	.st59{fill:none;stroke:#4B8F00;stroke-width:2.1801;stroke-linecap:round;stroke-miterlimit:10;}
	.st60{fill:#4B8F00;stroke:#4B8F00;stroke-width:0.997;stroke-miterlimit:10;}
	.st61{fill:none;stroke:#4B8F00;stroke-width:2.1801;stroke-linecap:round;stroke-linejoin:round;stroke-miterlimit:10;}
	.st62{fill:none;stroke:#4B8F00;stroke-width:2;stroke-linecap:round;stroke-linejoin:round;stroke-miterlimit:10;}
	.st63{fill:none;stroke:#4B8F00;stroke-width:2.1801;stroke-linejoin:round;stroke-miterlimit:10;}
	.st64{fill:#4B8F00;stroke:#4B8F00;stroke-width:0.6024;stroke-miterlimit:10;}
	.st65{fill:#FFFFFF;stroke:#4B8F00;stroke-width:2.1801;stroke-miterlimit:10;}
	.st66{fill:#FFFFFF;stroke:#4B8F00;stroke-width:1.6642;stroke-miterlimit:10;}
	.st67{fill:none;stroke:#4B8F00;stroke-width:1.1147;stroke-miterlimit:10;}
	.st68{fill:none;stroke:#FFFFFF;stroke-width:3.4983;stroke-miterlimit:10;}
	.st69{clip-path:url(#SVGID_33_);fill:url(#SVGID_34_);}
	.st70{clip-path:url(#SVGID_36_);fill:url(#SVGID_37_);}
	.st71{display:none;}
	.st72{display:inline;fill:#F1F1F1;stroke:#CBCBCB;stroke-miterlimit:10;}
	.st73{display:inline;}
	.st74{fill:#343542;}
	.st75{fill:#72B12D;stroke:#4B8F00;stroke-miterlimit:10;}
	.st76{display:inline;fill:#E5E5E5;stroke:#CBCBCB;stroke-width:2;stroke-miterlimit:10;}
	.st77{display:inline;fill:#333333;}
	.st78{fill:none;stroke:#333333;stroke-width:1.1859;stroke-miterlimit:10;}
	.st79{fill:none;stroke:#333333;stroke-miterlimit:10;}
	.st80{fill:#FFFFFF;stroke:#72B12D;stroke-width:2;stroke-miterlimit:10;}
</style>
<g id="top">
</g>
<g id="shered-server">
</g>
<g id="dedicated-server">
</g>
<g id="VPS">
</g>
<g id="domain">
</g>
<g id="SLL">
</g>
<g id="ACRONIS">
	<g>
		<g>
			<g>
				<path class="st14" d="M120,24.5c-5.4-2.3-8.5-8-6.9-13.8c1.4-4.7,6.5-12.9,12.2-8.6c3.1,2.3,5.3,6.7,5.6,10.5
					c0,0.5-0.4,2.3-0.2,2.6c1.1,1.7,1.1-1,1.1-1.3c0.3-2.6,1.2-5.3,2.6-7.5c4.3-7,15.2-8.4,19.2-0.3c2.3,4.7,2.4,10.6,1.6,15.7
					c-0.1,0.3,0.9,0.4,1.1,0.3c1.9-1.2,4.4-1.9,6.6-1.7c4.7,0.5,9.1,6.1,8.9,10.9c-0.3,5.1-7.1,6.4-11.2,6.4c-0.1,0-0.5,0-0.5,0.2
					c0,1.6-1,3.3-2,4.4c-4,4.4-11.3,5.3-16.8,5.2c-4.7-0.1-9.8-1.8-10.5-7c-0.2-1.7,0-3.6,0.5-5.2c0.1-0.3-1-0.4-1.1-0.2
					c-1.6,2-3.7,3.7-5.9,4.9c-3.5,1.9-12.6,2.9-12.7-3.1c0-4.7,5.2-9.3,8.5-12c0.2-0.2-0.8-0.5-1.1-0.3c-3.3,2.7-11.7,10.2-7.5,14.8
					c2.7,3.1,8.1,3.1,11.7,1.8c3.1-1.1,6.1-3.3,8.1-5.9c-0.4-0.1-0.8-0.1-1.1-0.2c-5.6,15.6,19.6,14.8,27.4,9c1.5-1.2,3.3-3,3.6-5.1
					c0-0.3,0.1-0.7,0.1-1c-0.1,0.3-0.7,0.2,0,0.2c0.5,0,0.9,0,1.4-0.1c5.7-0.5,12.3-3.3,9.6-10.2c-2.7-7-10.3-10.3-16.9-6.2
					c0.4,0.1,0.7,0.2,1.1,0.3C157.5,16,157.3,8,153,3.4c-2.8-3.1-7.4-3.9-11.4-3.1c-4.2,0.8-7.4,3.8-9.2,7.7
					c-0.4,0.9-2.9,6.8-1.6,7.6c0.2,0.1,0.7,0.2,0.9,0.1c0.4-0.3,0.4-1.4,0.4-1.9c0.1-1.9-0.5-3.8-1.3-5.6c-1.4-3.3-4-6.9-7.8-7.7
					c-4.8-0.9-8.1,3.5-10,7.3c-2,4.1-2.3,8.8,0.6,12.6c1.5,1.9,3.5,3.5,5.7,4.5C119.7,25,120.7,24.8,120,24.5z"/>
			</g>
		</g>
		<path class="st42" d="M119.7,53.3c0,0-14,5.6-9.8,11.9C114.8,72.6,119.7,53.3,119.7,53.3z"/>
		<path class="st42" d="M100.1,47c0,0-14,5.6-9.8,11.9C95.3,66.3,100.1,47,100.1,47z"/>
		<path class="st42" d="M79.3,73.8c0,0-14,5.6-9.8,11.9C74.5,93.1,79.3,73.8,79.3,73.8z"/>
		<path class="st42" d="M140.6,54.7c0,0-14,5.6-9.8,11.9C135.8,74,140.6,54.7,140.6,54.7z"/>
		<path class="st42" d="M120.4,74.9c0,0-14,5.6-9.8,11.9C115.5,94.2,120.4,74.9,120.4,74.9z"/>
		<path class="st42" d="M100.9,74.5c0,0-14,5.6-9.8,11.9C96.1,93.8,100.9,74.5,100.9,74.5z"/>
		<path class="st43" d="M0,137l14.3,0.2V87.6c0,0,5.2-1.9,7.7,0.7l0.9,28.3l8.6,4.2l-0.5,18h5.8l0-34.1l14.5,13.6l-1.1-15.3
			l14.9,16.3l-0.7-16.4l16,15.9l-0.7,20.3l5.1-0.2l0.7-19.1h12.2l-0.6,20l8.2-0.5"/>
		<polygon class="st43" points="89.3,121.8 89.3,128.5 94.3,128.9 94.3,121.8 		"/>
		<polygon class="st43" points="43.3,122.8 43.3,129.6 48.3,130 48.3,122.8 		"/>
		<polygon class="st43" points="51.3,122.8 51.3,129.6 56.3,130 56.3,122.8 		"/>
		<path class="st42" d="M138.2,47.5c0,0,9.4-24.8,34.7-15.9"/>
		<path class="st42" d="M133.8,45.4c0,0,7.8-25.6,37.1-20.4"/>
		<path class="st42" d="M143.4,47.7c0,0,12.1-18.7,25.1-11.7"/>
	</g>
	<polyline class="st15" points="639.8,264.7 -94.2,264.7 -94.2,-39.3 -459.5,-39.3 -459.5,266.7 	"/>
</g>
<g id="PROSELF">
</g>
<g id="J-support">
</g>
<g id="faq">
</g>
<g id="mouse-over" class="st71">
	<g class="st73">
		<g>
			<g>
				<path class="st8" d="M120,24.5c-5.4-2.3-8.5-8-6.9-13.8c1.4-4.7,6.5-12.9,12.2-8.6c3.1,2.3,5.3,6.7,5.6,10.5
					c0,0.5-0.4,2.3-0.2,2.6c1.1,1.7,1.1-1,1.1-1.3c0.3-2.6,1.2-5.3,2.6-7.5c4.3-7,15.2-8.4,19.2-0.3c2.3,4.7,2.4,10.6,1.6,15.7
					c-0.1,0.3,0.9,0.4,1.1,0.3c1.9-1.2,4.4-1.9,6.6-1.7c4.7,0.5,9.1,6.1,8.9,10.9c-0.3,5.1-7.1,6.4-11.2,6.4c-0.1,0-0.5,0-0.5,0.2
					c0,1.6-1,3.3-2,4.4c-4,4.4-11.3,5.3-16.8,5.2c-4.7-0.1-9.8-1.8-10.5-7c-0.2-1.7,0-3.6,0.5-5.2c0.1-0.3-1-0.4-1.1-0.2
					c-1.6,2-3.7,3.7-5.9,4.9c-3.5,1.9-12.6,2.9-12.7-3.1c0-4.7,5.2-9.3,8.5-12c0.2-0.2-0.8-0.5-1.1-0.3c-3.3,2.7-11.7,10.2-7.5,14.8
					c2.7,3.1,8.1,3.1,11.7,1.8c3.1-1.1,6.1-3.3,8.1-5.9c-0.4-0.1-0.8-0.1-1.1-0.2c-5.6,15.6,19.6,14.8,27.4,9c1.5-1.2,3.3-3,3.6-5.1
					c0-0.3,0.1-0.7,0.1-1c-0.1,0.3-0.7,0.2,0,0.2c0.5,0,0.9,0,1.4-0.1c5.7-0.5,12.3-3.3,9.6-10.2c-2.7-7-10.3-10.3-16.9-6.2
					c0.4,0.1,0.7,0.2,1.1,0.3C157.5,16,157.3,8,153,3.4c-2.8-3.1-7.4-3.9-11.4-3.1c-4.2,0.8-7.4,3.8-9.2,7.7
					c-0.4,0.9-2.9,6.8-1.6,7.6c0.2,0.1,0.7,0.2,0.9,0.1c0.4-0.3,0.4-1.4,0.4-1.9c0.1-1.9-0.5-3.8-1.3-5.6c-1.4-3.3-4-6.9-7.8-7.7
					c-4.8-0.9-8.1,3.5-10,7.3c-2,4.1-2.3,8.8,0.6,12.6c1.5,1.9,3.5,3.5,5.7,4.5C119.7,25,120.7,24.8,120,24.5z"/>
			</g>
		</g>
		<path class="st78" d="M119.7,53.3c0,0-14,5.6-9.8,11.9C114.8,72.6,119.7,53.3,119.7,53.3z"/>
		<path class="st78" d="M100.1,47c0,0-14,5.6-9.8,11.9C95.3,66.3,100.1,47,100.1,47z"/>
		<path class="st78" d="M79.3,73.8c0,0-14,5.6-9.8,11.9C74.5,93.1,79.3,73.8,79.3,73.8z"/>
		<path class="st78" d="M140.6,54.7c0,0-14,5.6-9.8,11.9C135.8,74,140.6,54.7,140.6,54.7z"/>
		<path class="st78" d="M120.4,74.9c0,0-14,5.6-9.8,11.9C115.5,94.2,120.4,74.9,120.4,74.9z"/>
		<path class="st78" d="M100.9,74.5c0,0-14,5.6-9.8,11.9C96.1,93.8,100.9,74.5,100.9,74.5z"/>
		<path class="st79" d="M0,137l14.3,0.2V87.6c0,0,5.2-1.9,7.7,0.7l0.9,28.3l8.6,4.2l-0.5,18h5.8l0-34.1l14.5,13.6l-1.1-15.3
			l14.9,16.3l-0.7-16.4l16,15.9l-0.7,20.3l5.1-0.2l0.7-19.1h12.2l-0.6,20l8.2-0.5"/>
		<polygon class="st79" points="89.3,121.8 89.3,128.5 94.3,128.9 94.3,121.8 		"/>
		<polygon class="st79" points="43.3,122.8 43.3,129.6 48.3,130 48.3,122.8 		"/>
		<polygon class="st79" points="51.3,122.8 51.3,129.6 56.3,130 56.3,122.8 		"/>
		<path class="st78" d="M138.2,47.5c0,0,9.4-24.8,34.7-15.9"/>
		<path class="st78" d="M133.8,45.4c0,0,7.8-25.6,37.1-20.4"/>
		<path class="st78" d="M143.4,47.7c0,0,12.1-18.7,25.1-11.7"/>
	</g>
</g>
<g id="menu">
</g>
</svg>
