<?xml version="1.0" encoding="utf-8"?>
<!-- Generator: Adobe Illustrator 21.0.2, SVG Export Plug-In . SVG Version: 6.00 Build 0)  -->
<svg version="1.1" xmlns="http://www.w3.org/2000/svg" xmlns:xlink="http://www.w3.org/1999/xlink" x="0px" y="0px"
	 viewBox="0 0 147.9 140.1" style="enable-background:new 0 0 147.9 140.1;" xml:space="preserve">
<style type="text/css">
	.st0{fill:#FFFFFF;stroke:#CBCBCB;stroke-width:2;stroke-miterlimit:10;}
	.st1{opacity:0.6;fill:url(#);}
	.st2{opacity:0.7;}
	.st3{fill:#E5E5E5;}
	.st4{fill:#1A1A22;}
	.st5{fill:#FFFFFF;}
	.st6{fill:#72B12D;}
	.st7{fill:#231815;}
	.st8{fill:#333333;}
	.st9{fill:#989898;}
	.st10{fill:#4B8F00;}
	.st11{fill:#CBCBCB;}
	.st12{fill:#FFFFFF;stroke:#CBCBCB;stroke-miterlimit:10;}
	.st13{fill:none;stroke:#000000;stroke-width:2;stroke-miterlimit:10;}
	.st14{fill:#808080;}
	.st15{fill:none;stroke:#CBCBCB;stroke-width:2;stroke-miterlimit:10;}
	.st16{fill:#333333;stroke:#FFFFFF;stroke-miterlimit:10;}
	.st17{fill:none;stroke:#E5E5E5;stroke-width:2;stroke-miterlimit:10;}
	.st18{fill:#1A1A1A;}
	.st19{fill:none;stroke:#CBCBCB;stroke-miterlimit:10;}
	.st20{fill:#84AD43;}
	.st21{clip-path:url(#SVGID_3_);fill:url(#SVGID_5_);}
	.st22{fill:#A1BC63;}
	.st23{fill:#C6D59F;}
	.st24{clip-path:url(#SVGID_6_);fill:url(#SVGID_8_);}
	.st25{fill:none;stroke:#333333;stroke-width:2;stroke-miterlimit:10;}
	.st26{opacity:0.95;fill:#FFFFFF;}
	.st27{fill:#4D4D4D;}
	.st28{fill:#F1F1F1;}
	.st29{fill:#666666;}
	.st30{clip-path:url(#SVGID_11_);fill:url(#SVGID_13_);}
	.st31{fill:none;stroke:#E5E5E5;stroke-miterlimit:10;}
	.st32{fill:none;stroke:#72B12D;stroke-width:2;stroke-miterlimit:10;}
	.st33{fill:#B2B2B2;}
	.st34{clip-path:url(#SVGID_14_);fill:url(#SVGID_16_);}
	.st35{fill:#C59B6D;}
	.st36{clip-path:url(#SVGID_17_);fill:url(#SVGID_19_);}
	.st37{clip-path:url(#SVGID_20_);fill:url(#SVGID_22_);}
	.st38{clip-path:url(#SVGID_23_);fill:url(#SVGID_25_);}
	.st39{fill:none;stroke:#808080;stroke-width:1.1859;stroke-miterlimit:10;}
	.st40{fill:none;stroke:#808080;stroke-miterlimit:10;}
	.st41{fill:none;stroke:#4B8F00;stroke-width:1.2003;stroke-miterlimit:10;}
	.st42{fill:#4B8F00;stroke:#4B8F00;stroke-width:1.2003;stroke-miterlimit:10;}
	.st43{fill:#4B8F00;stroke:#4B8F00;stroke-miterlimit:10;}
	.st44{fill:#FFFFFF;stroke:#4B8F00;stroke-width:1.2003;stroke-miterlimit:10;}
	.st45{fill:none;stroke:#4B8F00;stroke-miterlimit:10;}
	.st46{fill:none;stroke:#808080;stroke-width:1.1147;stroke-miterlimit:10;}
	.st47{clip-path:url(#SVGID_26_);fill:url(#SVGID_28_);}
	.st48{fill:none;stroke:#808080;stroke-width:1.2003;stroke-miterlimit:10;}
	.st49{fill:#808080;stroke:#808080;stroke-width:1.2003;stroke-miterlimit:10;}
	.st50{fill:#808080;stroke:#808080;stroke-miterlimit:10;}
	.st51{fill:#FFFFFF;stroke:#808080;stroke-width:1.2003;stroke-miterlimit:10;}
	.st52{font-family:'GenShinGothic-Heavy';}
	.st53{font-size:20.0459px;}
	.st54{fill:none;stroke:#4B8F00;stroke-width:1.1859;stroke-miterlimit:10;}
	.st55{clip-path:url(#SVGID_29_);fill:url(#SVGID_31_);}
	.st56{fill:none;stroke:#4B8F00;stroke-width:2.1801;stroke-miterlimit:10;}
	.st57{fill:#4B8F00;stroke:#4B8F00;stroke-width:1.6642;stroke-miterlimit:10;}
	.st58{fill:none;stroke:#4B8F00;stroke-width:2.1801;stroke-linecap:round;stroke-miterlimit:10;}
	.st59{fill:#4B8F00;stroke:#4B8F00;stroke-width:0.997;stroke-miterlimit:10;}
	.st60{fill:none;stroke:#4B8F00;stroke-width:2.1801;stroke-linecap:round;stroke-linejoin:round;stroke-miterlimit:10;}
	.st61{fill:none;stroke:#4B8F00;stroke-width:2;stroke-linecap:round;stroke-linejoin:round;stroke-miterlimit:10;}
	.st62{fill:none;stroke:#4B8F00;stroke-width:2.1801;stroke-linejoin:round;stroke-miterlimit:10;}
	.st63{fill:#4B8F00;stroke:#4B8F00;stroke-width:0.6024;stroke-miterlimit:10;}
	.st64{fill:#FFFFFF;stroke:#4B8F00;stroke-width:2.1801;stroke-miterlimit:10;}
	.st65{fill:#FFFFFF;stroke:#4B8F00;stroke-width:1.6642;stroke-miterlimit:10;}
	.st66{fill:none;stroke:#4B8F00;stroke-width:1.1147;stroke-miterlimit:10;}
	.st67{fill:none;stroke:#FFFFFF;stroke-width:3.4983;stroke-miterlimit:10;}
	.st68{clip-path:url(#SVGID_32_);fill:url(#SVGID_34_);}
	.st69{clip-path:url(#SVGID_35_);fill:url(#SVGID_37_);}
	.st70{display:none;}
	.st71{display:inline;fill:#F1F1F1;stroke:#CBCBCB;stroke-miterlimit:10;}
	.st72{display:inline;}
	.st73{fill:#343542;}
	.st74{fill:#72B12D;stroke:#4B8F00;stroke-miterlimit:10;}
	.st75{display:inline;fill:#E5E5E5;stroke:#CBCBCB;stroke-width:2;stroke-miterlimit:10;}
	.st76{display:inline;fill:#333333;}
	.st77{fill:none;stroke:#333333;stroke-width:1.1859;stroke-miterlimit:10;}
	.st78{fill:none;stroke:#333333;stroke-miterlimit:10;}
	.st79{fill:#FFFFFF;stroke:#72B12D;stroke-width:2;stroke-miterlimit:10;}
</style>
<g id="top">
</g>
<g id="shered-server">
</g>
<g id="dedicated-server">
</g>
<g id="VPS">
</g>
<g id="domain">
</g>
<g id="SLL">
</g>
<g id="ACRONIS">
</g>
<g id="PROSELF">
	<polyline class="st15" points="992.5,272.3 625.5,272.3 625.5,-31.7 260.2,-31.7 260.2,274.3 -106.9,274.3 	"/>
	<g>
		<path class="st48" d="M9,59.2c0,0-17.2-35.8,13-46.4C52.2,2.3,63.1,45.5,63.8,47.6c0.7,2.1,4.6,22.1-17.6,29.2
			C46.3,76.8,20.3,86.6,9,59.2z"/>
		<path class="st49" d="M21.7,5.1c-4.6,0-9.1-3.5-9.1-3.5l1.1,4.2L6.4,1.9c0,0,1.2,6.3,0,10.9c-1.2,4.6-4.1,13.7-1.6,20.7
			c0,0,19.4-9.5,25.7-17.2c0,0,9.8,3.2,16.8,1.1C47.3,17.4,39.2,5.1,21.7,5.1z"/>
		<path class="st48" d="M35.6,45.2c5.7,5.7,9.9,8,3.4,10.9"/>
		<path class="st50" d="M24.8,48.5c0,0-4.5-2.8-0.8-4.9C27.7,41.6,29.3,48.1,24.8,48.5z"/>
		<path class="st50" d="M40,40.3c0,0-4.5-2.8-0.8-4.9C42.8,33.3,44.5,39.8,40,40.3z"/>
		<path class="st48" d="M39.9,67.2c0,0,2-7.3,11-7.3"/>
		<path class="st48" d="M23.7,38.8c0,0,0,8.6-5.3,7.3"/>
		<path class="st48" d="M33.5,34.8c0,0,8.1,3.3,11-3.7"/>
		<path class="st48" d="M4.6,48.3c0,0-5.6,2.8-3.5,8.8c0,0,3.2,4.6,6.7,2.5"/>
		<path class="st48" d="M51.9,22.6c0,0,3.5-2.5,7,1.8c0,0,3.5,4.9-1.1,7.4"/>
		<path class="st48" d="M29.4,78.5l1.7,5.2c0,0,13.1,2.1,21.5-1.7l0.4-8.1l8.4,3.9c0,0,1.8-4.2,4.4-8.2c1.3-2-3.3-6.2-3.3-6.2"/>
		<polyline class="st48" points="52.4,80.8 55.6,83.9 53.4,101 59.3,106.9 62.4,99.4 58.7,83.6 59.5,76.9 		"/>
		<line class="st48" x1="66" y1="68.2" x2="70.8" y2="78"/>
		<polygon class="st51" points="66.6,125.2 67.9,76.1 143.9,77.6 141.7,128.1 		"/>
		<polyline class="st48" points="63.8,129.9 60.6,132.7 146,135.9 141.7,128.1 		"/>
		<path class="st48" d="M40.5,96.3l9.9,23.3l11.4,5.3c0,0-10,5.7-6.8,11l-10.7-14.6l-2.2-4.1L35.7,96"/>
		<path class="st48" d="M61.7,124.9c0,0,6,0,7.5,2.5c1.4,2.5-3.9,2.8-6.4,2.8"/>
		<path class="st48" d="M59.2,133.4c0,0,0.7,2.1,2.9,2.1l83.3,3.2l2.1-2.1"/>
		<polyline class="st48" points="89.8,134.5 93,128.4 112.2,129.2 113,134.5 		"/>
		<path class="st48" d="M54.6,133.1c0,0,5,6.4,8.9,6.4c0,0,8.5,0,8.5-3.2"/>
		<line class="st48" x1="31.8" y1="84.7" x2="37.4" y2="137.3"/>
		<line class="st40" x1="46.9" y1="13.9" x2="46.9" y2="26.9"/>
		<line class="st40" x1="42.9" y1="13.9" x2="42.9" y2="26.9"/>
		<line class="st40" x1="39.9" y1="13.9" x2="39.9" y2="26.9"/>
		<line class="st40" x1="35.9" y1="13.9" x2="35.9" y2="26.9"/>
		<path class="st50" d="M70.8,121l1.1-40.7c0,0,65.5,0,67.4,2c2,2-0.6,41.9-2.8,41.9C134.3,124.1,70.8,121,70.8,121z"/>
		<text transform="matrix(0.999 4.493000e-02 -4.493000e-02 0.999 78.5094 107.3607)" class="st5 st52 st53">error</text>
	</g>
</g>
<g id="J-support">
</g>
<g id="faq">
</g>
<g id="mouse-over" class="st70">
</g>
<g id="menu">
</g>
</svg>
