<svg xmlns="http://www.w3.org/2000/svg" viewBox="0 0 243.35 63.59"><defs><style>.cls-1{fill:#73ae48;}.cls-2{fill:#259445;}.cls-3{fill:#3a82b6;}.cls-4{fill:#64b8c1;}.cls-5{fill:#11548f;}.cls-6{fill:#ad1f24;}.cls-7,.cls-8{fill:none;stroke:#231815;stroke-miterlimit:10;stroke-width:0.4px;}.cls-8{stroke-dasharray:0.8 0.8;}.cls-9{fill:#606162;}</style></defs><title>logo-6</title><g id="Layer_2" data-name="Layer 2"><g id="company"><rect class="cls-1" x="7.59" width="20.53" height="20.8" rx="1.65" ry="1.65"/><rect class="cls-2" x="7.59" y="22.67" width="20.53" height="20.8" rx="1.65" ry="1.65"/><rect class="cls-3" x="30.04" y="22.67" width="20.52" height="20.8" rx="1.65" ry="1.65"/><path class="cls-4" d="M41.65,21.27a1.28,1.28,0,0,1-1.81,0l-9.43-9.43a1.28,1.28,0,0,1,0-1.81L40,.45a1.28,1.28,0,0,1,1.81,0l9.43,9.43a1.27,1.27,0,0,1,0,1.8Z"/><path class="cls-5" d="M44.56,53.9H43.22V52.32h1.34V48.78H45c.89,0,1.38.06,1.46.18v.3a4.82,4.82,0,0,0-.12,1.1v1.95h.79V53.9h-.79v3.59l.61-.3q.06.67.12,1.71a14.51,14.51,0,0,0-3.47,1.52A17.46,17.46,0,0,1,43,58.29h.06a6.35,6.35,0,0,0,1.46-.3Zm7.31-3c0-.2,0-.91-.06-2.13V48.3c0-.16.14-.25.55-.25a4.8,4.8,0,0,1,1.46.18v.18a7.43,7.43,0,0,0-.12,1.46v1h1.22a10,10,0,0,0-.73-1.28l-.25-.43,1.59-.79a7.8,7.8,0,0,1,1.09,1.77,14.5,14.5,0,0,1-1.4.73H57v1.58H53.76a25.29,25.29,0,0,0,.43,3.9,11.9,11.9,0,0,0,.61-3.11l.79.18c.85.25,1.3.37,1.34.37a24.09,24.09,0,0,1-2.08,4.94c.29.53.51.81.67.85s.22-.39.3-1.28A16.93,16.93,0,0,0,57.6,59c-.25,2.23-.65,3.37-1.22,3.41s-1.58-.71-2.68-2c-.85.81-1.5,1.42-2,1.83-.81-.53-1.38-.88-1.7-1a6.17,6.17,0,0,0,2.74-2.44,34.93,34.93,0,0,1-.85-6.34h-2.5v1.28h2.38v4.63a2.24,2.24,0,0,1-.43,1.58,2.63,2.63,0,0,1-1.7.49A5.13,5.13,0,0,0,49,58.9a12.77,12.77,0,0,1-1.77,3.29,19.17,19.17,0,0,0-1.89-.67,8.08,8.08,0,0,0,1.89-2.74,4.85,4.85,0,0,0,.3-1.4c0-.49.06-1.24.06-2.25V50.85Zm-1.71,4.39h-.73a20.3,20.3,0,0,1-.36,3.35c.52,0,.83,0,.91-.18a3,3,0,0,0,.18-1.46Z"/><path class="cls-5" d="M22.53,47.84c.28,1.1.45,1.77.49,2l-1.22.36h6.64V52H21.55l-.12,1.76h5q-.13,2.5-.31,4.88-.12,2.2-.85,2.68c-.33.37-1.36.57-3.11.61a5.73,5.73,0,0,0-.67-2.13,5.12,5.12,0,0,0,1.83-.12,1.11,1.11,0,0,0,.61-1c.12-1.06.2-2.13.24-3.23h-3A10.14,10.14,0,0,1,16.92,62a9,9,0,0,0-1.83-1.4q4.38-2.38,4.26-8.59H15V50.21h5.79A8,8,0,0,0,20,48.33Z"/><path class="cls-6" d="M35.87,58.3a2.2,2.2,0,0,1-2.32-1.44l6.9-1.7s-1.16-5.52-6-4.3c-4,1-3.71,4.76-3.33,6.12a4.69,4.69,0,0,0,5.32,3.31c4.19-.69,4-4.24,4-4.24L38,56.69A2.18,2.18,0,0,1,35.87,58.3ZM34.77,53a2.33,2.33,0,0,1,2.89,1l-4.47,1.12A2,2,0,0,1,34.77,53Z"/><path class="cls-5" d="M3.11,56.89a10.85,10.85,0,0,1,2.07.85,35.32,35.32,0,0,1-3.66,4.14A11.6,11.6,0,0,0,0,60.78,9.83,9.83,0,0,0,3.11,56.89Zm-3-6.7H4.27a9.78,9.78,0,0,0,.61-2.13,12.36,12.36,0,0,1,2.5.37q.06.12-.12.37a3,3,0,0,0-.24.36c-.16.33-.35.67-.55,1H13.4v1.71H5.67L4.21,54.63H6.58V52.5H7.8c.69,0,1,.06,1,.18a1,1,0,0,1-.06.24,2.68,2.68,0,0,0-.12.85v.85h3.9v1.71H8.65v4.51A1.06,1.06,0,0,1,8,62a7.12,7.12,0,0,1-2.62.36,4.23,4.23,0,0,0-.67-1.95,9.49,9.49,0,0,0,1.52-.06.38.38,0,0,0,.31-.43V56.34H3a6.81,6.81,0,0,0-1.22.12,1,1,0,0,1-.24.06,11.47,11.47,0,0,1-.3-2.13,1.08,1.08,0,0,1,.43-.06,1.16,1.16,0,0,0,.91-.43,7.89,7.89,0,0,0,.85-1.77.62.62,0,0,1,.12-.24H.12Zm10.66,6.58c.45.45,1.07,1.16,1.89,2.13l1.16,1.34-1.71,1.34A32.09,32.09,0,0,0,9.2,58Z"/><line class="cls-7" x1="72.79" y1="2.55" x2="72.79" y2="2.96"/><line class="cls-8" x1="72.79" y1="3.76" x2="72.79" y2="62.78"/><line class="cls-7" x1="72.79" y1="63.19" x2="72.79" y2="63.59"/><path class="cls-5" d="M91,39.82a7.73,7.73,0,0,0-2.86-2.5A32.63,32.63,0,0,0,97.32,29a14.61,14.61,0,0,0,3.3,2.46c.59.32.48.71-.08.79C99.62,32.35,96.6,34.73,91,39.82ZM89.26,14.24V10.71c1.43.2,6.71.52,11.4.6a34.42,34.42,0,0,0,2.22-6.12,23,23,0,0,0,4.37,1.59c.52.12.48.36,0,.68s-1.19,1.11-2.74,3.85c6.95,0,13.26-.24,17.75-.6v3.58C117.65,14,111,14,103,14c-1.19,2-3.5,5.68-5.92,9h8.34a27,27,0,0,0-.4-5.68,19.42,19.42,0,0,0,4.17.28c.56,0,.59.12.28.6a5.24,5.24,0,0,0-.64,2.9V23a62.75,62.75,0,0,0,11-.79V26c-1.43-.16-5.48-.24-11-.24v10.6c0,4.33-.56,4.69-6.11,5.4A14.89,14.89,0,0,0,101,37.55c4.09.71,4.45.4,4.45-1.83v-10c-6.83.08-10.21.6-11.84,1.23A13.34,13.34,0,0,0,92,23.38c2.19-1,5.16-4.77,7.43-9.37C95.41,14,90.53,14.12,89.26,14.24Zm31.17,25A34.08,34.08,0,0,0,112.25,31l2.26-2.18a64.62,64.62,0,0,1,9.13,7.55Z"/><path class="cls-5" d="M153.83,20.59a36.07,36.07,0,0,0,4.05-.2l-1.27,14.5c-.36,4.25-1.11,5.2-7.74,6.24a8.87,8.87,0,0,0-2.58-4.81c4.65,1.07,6.39.16,6.67-2.11l1.23-10.52H143.27c-1,7.78-3.1,11.24-9.85,17.28a6.27,6.27,0,0,0-3.85-2.78,18.71,18.71,0,0,0,10.32-14.57,72.78,72.78,0,0,0,.56-8.06c-5.08,0-8.34.12-11.67.28V12.25c4.09.2,9.65.28,17,.28s13.14-.08,17.08-.28v3.58c-3.89-.2-11.28-.28-18.75-.28-.16,1.79-.32,3.38-.52,5Zm-9.41-8.54a23.87,23.87,0,0,0-2.18-5.4l4.29-1.35a22.77,22.77,0,0,0,2.07,5.24Z"/><path class="cls-5" d="M172.94,41.56a7.49,7.49,0,0,0-2.22-3.21c9.65-1.39,17.12-6.24,19.9-12.31h-4.13c-2.54,3.73-6,6.59-13.7,9.61A5.36,5.36,0,0,0,170.71,33c6.67-2,10-4.17,12.43-7h-5.36a33,33,0,0,1-6,4.05,5.61,5.61,0,0,0-2.58-2.38,36.22,36.22,0,0,0,11.12-7.27c-2.94,0-4.65,0-6.27.16a9.37,9.37,0,0,0,.36-2.74V9.48A9.68,9.68,0,0,0,174,6.7c2.46.16,5,.2,12.15.2s9.81,0,12.31-.2a8.27,8.27,0,0,0-.4,2.78v8.38a7.83,7.83,0,0,0,.44,2.74c-2.82-.16-7.86-.24-14.81-.16-1.27,1.27-2.34,2.34-3.33,3.25h12.27c3.61,0,7.27-.12,8.54-.28l-1.95,11.28c-.8,4.57-2.38,5.76-9.45,6.31a11.13,11.13,0,0,0-1.51-4.29c5.4,1.11,7.23-.32,7.67-2.74L197.44,26H194C190.85,33,184,38.78,172.94,41.56ZM194.86,9.28h-17.2v3.26h17.2Zm0,5.56h-17.2v3.26h17.2Z"/><path class="cls-5" d="M217.46,29.61a7.64,7.64,0,0,0-.2,3.18c-6.59,2.34-8.3,3-9.33,3.73a25.65,25.65,0,0,0-1.27-4.13,19.43,19.43,0,0,0,4.37-.75v-12a23.37,23.37,0,0,0-3.85.32V16.5a31.64,31.64,0,0,0,3.85.24c0-7,0-8-.36-10.13a20.63,20.63,0,0,0,3.93.28c.68,0,.76.28.16.76S214,9.32,214,11v5.76a22.63,22.63,0,0,0,3.3-.24v3.42a17.81,17.81,0,0,0-3.3-.28V30.8Q215.61,30.27,217.46,29.61Zm4.45-14.38v5.08a52.84,52.84,0,0,0,6.83-.08,24.79,24.79,0,0,0-.28,3.5v5c0,5.64-.24,6-4.93,7.39A7.58,7.58,0,0,0,222,32.59c3.42.16,3.54,0,3.54-4.17V23h-3.61c-.08,9.25-1.07,13.54-5.4,18.55a10,10,0,0,0-3.26-1.95c4.17-3.53,5.36-6,5.68-12.79A139,139,0,0,0,218.69,12a92.58,92.58,0,0,0,11,.4c-.24-2.74-.44-5.24-.55-7.11a17,17,0,0,0,3.61.24c.91-.08,1,.16.32,1-.24.28-.28,3-.24,5.88,4.17-.08,6.55-.2,8.58-.4v3.57c-2.1-.2-4.41-.32-8.54-.36.2,6.27.91,11.52,2,14.81,1.31-2.94,2-7.46,2-11.56a20.24,20.24,0,0,0,3.66.71c.71.08.75.2.2.56S240,21,239.18,24.57a29.53,29.53,0,0,1-2.9,8.46c2.82,4.8,3.93,4.17,4,0a10.34,10.34,0,0,0,3.1,2.14c-1.39,5-2.42,5.8-3.34,5.8s-3.57-2.15-5.52-5.36a37.28,37.28,0,0,1-6.31,6,9.42,9.42,0,0,0-3.1-2.3,24.33,24.33,0,0,0,8-6.47c-1.47-3.57-2.38-8.1-3.18-17.59Zm14.85-3.85a12.11,12.11,0,0,0-1.83-3.81L238,6.14a36.45,36.45,0,0,0,2.14,3.53Z"/><path class="cls-9" d="M118.31,51.38l-2.08,6.86h-1.31l-.88-3a21.15,21.15,0,0,1-.51-2.19h0a16.52,16.52,0,0,1-.54,2.2l-.93,3h-1.31l-2-6.86h1.49l.76,3.29c.16.74.32,1.47.45,2.19h0c.14-.71.35-1.47.55-2.18l.95-3.3h1.18l.9,3.23c.21.8.4,1.53.54,2.25h0c.11-.71.27-1.44.46-2.24l.8-3.24Z"/><path class="cls-9" d="M128.26,51.38l-2.08,6.86h-1.31l-.88-3a20.62,20.62,0,0,1-.51-2.19h0a16.14,16.14,0,0,1-.54,2.2l-.93,3h-1.31l-2-6.86h1.49l.76,3.29c.16.74.32,1.47.45,2.19h0c.14-.71.35-1.47.55-2.18l.95-3.3h1.18l.89,3.23c.21.8.4,1.53.54,2.25h0c.11-.71.27-1.44.46-2.24l.8-3.24Z"/><path class="cls-9" d="M138.21,51.38l-2.08,6.86h-1.31l-.88-3a21.35,21.35,0,0,1-.51-2.19h0a16.52,16.52,0,0,1-.54,2.2l-.93,3h-1.31l-2-6.86h1.49l.76,3.29c.16.74.32,1.47.45,2.19h0c.14-.71.35-1.47.55-2.18l.94-3.3h1.18l.9,3.23c.21.8.4,1.53.54,2.25h0c.11-.71.28-1.44.46-2.24l.8-3.24Z"/><path class="cls-9" d="M139.12,57.39a.94.94,0,0,1,.93-1,1,1,0,1,1-.93,1Z"/><path class="cls-9" d="M148.09,56.41c0,.62,0,1.36.05,1.83h-1.27l-.08-1.07h0a2.29,2.29,0,0,1-2.08,1.21c-1.56,0-2.74-1.38-2.74-3.5,0-2.33,1.33-3.65,2.86-3.65a2,2,0,0,1,1.82.92h0v-3.9h1.44Zm-1.44-2.25a1.6,1.6,0,0,0-1.52-1.78c-1.11,0-1.72,1.1-1.72,2.45s.6,2.38,1.69,2.38a1.64,1.64,0,0,0,1.54-1.78Z"/><path class="cls-9" d="M150.12,51.38a3.53,3.53,0,0,1,.77-2.63,2.38,2.38,0,0,1,1.67-.64,2.83,2.83,0,0,1,1,.19l-.15,1.11a1.81,1.81,0,0,0-.73-.14c-.9,0-1.17.81-1.17,1.73v.37h1.51v1.08h-1.49v5.78h-1.44V52.46h-.92V51.38Z"/><path class="cls-9" d="M153.56,53.95H157v1h-3.42Z"/><path class="cls-9" d="M163.34,58a5.34,5.34,0,0,1-2.18.41c-2.06,0-3.26-1.38-3.26-3.48S159,51.23,161,51.23s2.7,1.6,2.7,3.3a4.23,4.23,0,0,1,0,.61H159.3a2,2,0,0,0,2.08,2.13,4.27,4.27,0,0,0,1.73-.33Zm-1-3.86c0-.82-.32-1.84-1.43-1.84s-1.51,1-1.58,1.84Z"/><path class="cls-9" d="M174.49,58.24h-1.42V54.32c0-1.15-.37-1.9-1.25-1.9A1.46,1.46,0,0,0,170.49,54v4.23h-1.42V54.11c0-1-.36-1.69-1.19-1.69a1.52,1.52,0,0,0-1.38,1.67v4.16h-1.42V53.31c0-.77,0-1.34-.05-1.93h1.25l.07,1h0a2.24,2.24,0,0,1,2-1.16,1.86,1.86,0,0,1,1.82,1.26h0a2.36,2.36,0,0,1,2.12-1.26c1,0,2.14.69,2.14,2.86Z"/><path class="cls-9" d="M181.1,56.61a9.34,9.34,0,0,0,.1,1.63h-1.31l-.1-.8h0a2.32,2.32,0,0,1-1.92.93,1.94,1.94,0,0,1-2-2c0-1.71,1.48-2.55,3.83-2.55,0-.51,0-1.53-1.38-1.53a3.16,3.16,0,0,0-1.67.47l-.3-1a4.27,4.27,0,0,1,2.21-.57c2,0,2.58,1.33,2.58,2.79Zm-1.41-1.82c-1.13,0-2.44.21-2.44,1.43a1,1,0,0,0,1,1.1,1.4,1.4,0,0,0,1.43-1.39Z"/><path class="cls-9" d="M184.35,58.24h-1.44v-10h1.44Z"/><path class="cls-9" d="M187.64,58.24h-1.44v-10h1.44Z"/><path class="cls-9" d="M189.28,57.39a.94.94,0,0,1,.93-1,1,1,0,1,1-.93,1Z"/><path class="cls-9" d="M197.14,58a4.43,4.43,0,0,1-1.77.35,3.17,3.17,0,0,1-3.27-3.5,3.42,3.42,0,0,1,3.55-3.65,3.69,3.69,0,0,1,1.53.31l-.29,1.11a2.67,2.67,0,0,0-1.23-.27,2.17,2.17,0,0,0-2.09,2.44,2.13,2.13,0,0,0,2.08,2.4,3.13,3.13,0,0,0,1.29-.27Z"/><path class="cls-9" d="M204.35,54.75c0,2.56-1.67,3.62-3.21,3.62-1.78,0-3.14-1.31-3.14-3.52s1.42-3.62,3.24-3.62S204.35,52.65,204.35,54.75Zm-3.16-2.44c-1.23,0-1.71,1.32-1.71,2.5,0,1.34.64,2.47,1.69,2.47s1.69-1.13,1.69-2.5C202.87,53.66,202.39,52.31,201.19,52.31Z"/><path class="cls-9" d="M215.18,58.24h-1.42V54.32c0-1.15-.37-1.9-1.24-1.9A1.46,1.46,0,0,0,211.19,54v4.23h-1.42V54.11c0-1-.36-1.69-1.19-1.69a1.52,1.52,0,0,0-1.38,1.67v4.16h-1.42V53.31c0-.77,0-1.34-.05-1.93H207l.07,1h0a2.23,2.23,0,0,1,2-1.16,1.86,1.86,0,0,1,1.82,1.26h0A2.37,2.37,0,0,1,213,51.23c1,0,2.14.69,2.14,2.86Z"/></g></g></svg>