<svg xmlns="http://www.w3.org/2000/svg" viewBox="0 0 257.25 56.17"><defs><style>.cls-1{fill:#e95504;}.cls-2{fill:#004da0;}</style></defs><title>logo-3</title><g id="Layer_2" data-name="Layer 2"><g id="company"><rect class="cls-1" y="37.69" width="257.25" height="3.63"/><path class="cls-2" d="M24.16,29.52V12.63H21.49v-4h2.67V7a7.34,7.34,0,0,1,1.7-5.24A6.81,6.81,0,0,1,30.71,0H31A12.59,12.59,0,0,1,34.6.49l0,4.15a8.41,8.41,0,0,0-2.78-.5c-2,0-3,1.12-3,3.24V8.6h5.73v4H28.87V29.52Z"/><path class="cls-2" d="M69.75,29.88c-4-.07-6-2.11-6-6.23v-11H61.07v-4h2.67V2.82h4.71V8.6h5.66v4H68.46V22.9c0,1.8.86,2.68,2.64,2.68A6.48,6.48,0,0,0,74,24.89v4a8.52,8.52,0,0,1-4.08.95Z"/><path class="cls-2" d="M103.81,29.52V8.6h4.71v4l.1-.18a7.94,7.94,0,0,1,7-4.23H116L116,12.87h-.23c-4.52,0-7.22,3.13-7.22,8.38v8.27Z"/><path class="cls-2" d="M45.82,30c-3.57,0-6.15-1.6-7.27-4.5-.46-1.18-.61-2.63-.61-5.75V8.6h4.71v11.9a5.5,5.5,0,0,0,1.09,3.83,4.57,4.57,0,0,0,3.47,1.36,4.85,4.85,0,0,0,3.56-1.4A5.34,5.34,0,0,0,52,20.41V8.6h4.71V29.52H52V27.2l-.09.1A7.83,7.83,0,0,1,45.82,30Z"/><path class="cls-2" d="M86.82,30c-3.57,0-6.15-1.6-7.27-4.5-.46-1.18-.61-2.63-.61-5.75V8.6h4.71v11.9a5.49,5.49,0,0,0,1.09,3.83,4.56,4.56,0,0,0,3.47,1.36,4.85,4.85,0,0,0,3.56-1.4A5.34,5.34,0,0,0,93,20.41V8.6h4.71V29.52H93V27.2l-.09.1A7.83,7.83,0,0,1,86.82,30Z"/><path class="cls-2" d="M147.83,50.53a15.1,15.1,0,0,1-9.16-3.23l2.2-3.35A12.16,12.16,0,0,0,148,46.59c2.14,0,3.42-.89,3.42-2.39v-.08c0-1.53-1.87-2.09-4-2.73l-.84-.25c-3.5-1-6.73-2.45-6.73-6.42v-.08c0-3.86,3.08-6.44,7.66-6.44a15,15,0,0,1,7.93,2.45l-2,3.41a12.42,12.42,0,0,0-6.1-1.92c-1.94,0-3.09.79-3.09,2.12v.08c0,1.51,2.08,2.18,4.49,3l.43.14c3.31,1,6.69,2.6,6.69,6.38v.08C155.82,48,152.83,50.53,147.83,50.53Z"/><path class="cls-2" d="M174.64,49.8V37.9c0-3.3-1.66-5.19-4.56-5.19s-4.79,2.07-4.79,5.27V49.8h-4.71v-29h4.71V31.2l.09-.1a7.83,7.83,0,0,1,6.08-2.66c4.87,0,7.89,3.08,7.89,8V49.8Z"/><path class="cls-2" d="M195.22,50.28a10.85,10.85,0,0,1-11.1-10.82v-.08a11.16,11.16,0,0,1,22.32-.08v.08A11,11,0,0,1,195.22,50.28Zm0-17.73c-3.7,0-6.39,2.84-6.39,6.75v.08a6.58,6.58,0,0,0,6.47,6.83c3.72,0,6.43-2.84,6.43-6.75v-.08A6.53,6.53,0,0,0,195.22,32.55Z"/><path class="cls-2" d="M211.45,56.17V28.87h4.71v2.41l.09-.09a8.66,8.66,0,0,1,6.5-2.75c5.14,0,10.34,3.73,10.34,10.86v.08c0,7.13-5.2,10.86-10.34,10.86a8.94,8.94,0,0,1-6.51-2.59l-.09-.09v8.61Zm10.78-23.66c-3.53,0-6.19,2.92-6.19,6.79v.08c0,3.87,2.66,6.79,6.19,6.79s6.07-2.85,6.07-6.79V39.3C228.3,35.43,225.69,32.51,222.23,32.51Z"/><path class="cls-2" d="M128.28,30a10.45,10.45,0,0,1-10.74-10.86v-.08c0-6.21,4.39-10.9,10.22-10.9,6.93,0,10,5.66,10,11.26,0,.41,0,.83-.07,1.26v.09l-15.47,0v.06a5.93,5.93,0,0,0,6.11,5.38,7.68,7.68,0,0,0,5.73-2.52l2.76,2.51A10.83,10.83,0,0,1,128.28,30Zm-.56-18c-2.8,0-4.89,2-5.45,5.23v.06h10.81v-.06C132.6,14,130.56,12,127.72,12Z"/></g></g></svg>