<svg xmlns="http://www.w3.org/2000/svg" xmlns:xlink="http://www.w3.org/1999/xlink" viewBox="0 0 161.29 133.81"><defs><style>.cls-1{fill:none;}.cls-2{clip-path:url(#clip-path);}.cls-3{fill:url(#radial-gradient);}.cls-4{fill:#90be62;}.cls-5{fill:#75b343;}.cls-6{fill:#b8d298;}.cls-7{fill:#231815;}</style><clipPath id="clip-path"><path class="cls-1" d="M67.3,62.37c0,7.7,6.62,13.93,14.78,13.93s14.77-6.24,14.77-13.93S90.24,48.44,82.08,48.44,67.3,54.67,67.3,62.37"/></clipPath><radialGradient id="radial-gradient" cx="2118.12" cy="-836.89" r="0.33" gradientTransform="matrix(70.19, 0, 0, -66.16, -148583.66, -55314.26)" gradientUnits="userSpaceOnUse"><stop offset="0" stop-color="#fff"/><stop offset="1" stop-color="#0070b8"/></radialGradient></defs><title>logo-4</title><g id="Layer_2" data-name="Layer 2"><g id="company"><g class="cls-2"><rect class="cls-3" x="67.3" y="48.44" width="29.56" height="27.86"/></g><path class="cls-4" d="M73.5,59.58c-2.29,0-4.68-.11-7.23-.27-12.16-.77-21.77-2.68-28.8-5.45,1.85,12,22.5,30.87,46.07,32.22a33,33,0,0,1-10-26.5"/><path class="cls-5" d="M142.67,0C75.32,1.68,28.56,21.08,24,34c-2.87,8.11,1.66,15.19,13.48,19.84a10.44,10.44,0,0,1-.12-1C35.26,19.61,142.67,0,142.67,0"/><path class="cls-6" d="M111,50.81c-4.74,3.13-11.63,6.61-23.45,8.07a32.51,32.51,0,0,1-3.92,27.2,43.72,43.72,0,0,0,22.48-4.67A32.7,32.7,0,0,0,111,50.81"/><path class="cls-7" d="M4.39,105.38v5.17a2.51,2.51,0,0,0,.41,1.74,3.24,3.24,0,0,0,1.92.38h.18v.68H0v-.68H.2a2.12,2.12,0,0,0,1.54-.41,2.74,2.74,0,0,0,.36-1.71V99.71A2.77,2.77,0,0,0,1.75,98,2.14,2.14,0,0,0,.2,97.59H0v-.68H11.48l.36,3.05H11l0-.23c-.14-.94-.42-1.51-.85-1.71a10.07,10.07,0,0,0-3.3-.31H4.39v7H7a5.71,5.71,0,0,0,2.32-.29c.34-.2.51-.64.51-1.34v-.19h.85v4.32H9.78V107a1.79,1.79,0,0,0-.43-1.35,4.88,4.88,0,0,0-2.4-.32Z"/><path class="cls-7" d="M23.56,111.33a8.43,8.43,0,0,1-2.31,1.76,5.38,5.38,0,0,1-2.42.58,3.24,3.24,0,0,1-2.74-1.13,5.76,5.76,0,0,1-.88-3.55v-3.12a5.8,5.8,0,0,0-.21-2,2.34,2.34,0,0,0-1.23-.83l-.64-.28v-.17l4.19-1.41v7.13a6.09,6.09,0,0,0,.51,3.07,2,2,0,0,0,1.79.76,4.82,4.82,0,0,0,1.83-.33,11.28,11.28,0,0,0,2.11-1.25v-4.7a5.62,5.62,0,0,0-.22-2,2.39,2.39,0,0,0-1.23-.83l-.64-.28v-.17l4.19-1.41v9.43a1.27,1.27,0,0,0,.45,1.14,3.15,3.15,0,0,0,1.67.3h.08v.67l-4.31,1Z"/><path class="cls-7" d="M37.4,111.89v1a5.78,5.78,0,0,1-2.93.8,3.23,3.23,0,0,1-2.75-1.08,6.15,6.15,0,0,1-.82-3.65v-6.67H28.83L33,98.48v3h4v.8H33v6.32a6,6,0,0,0,.59,3,2.08,2.08,0,0,0,1.9,1,4.1,4.1,0,0,0,1.91-.72"/><path class="cls-7" d="M48.81,111.33a8.44,8.44,0,0,1-2.31,1.76,5.43,5.43,0,0,1-2.42.58,3.25,3.25,0,0,1-2.74-1.13,5.79,5.79,0,0,1-.87-3.55v-3.12a5.88,5.88,0,0,0-.22-2A2.35,2.35,0,0,0,39,103l-.64-.28v-.17l4.19-1.41v7.13a6.09,6.09,0,0,0,.52,3.07,2,2,0,0,0,1.78.76,4.8,4.8,0,0,0,1.83-.33,10.91,10.91,0,0,0,2.11-1.25v-4.7a5.65,5.65,0,0,0-.22-2,2.39,2.39,0,0,0-1.23-.83l-.64-.28v-.17l4.2-1.41v9.43a1.27,1.27,0,0,0,.44,1.14A3.15,3.15,0,0,0,53,112h.09v.67l-4.31,1Z"/><path class="cls-7" d="M58.88,104.46v6.08a2.39,2.39,0,0,0,.44,1.72,3,3,0,0,0,1.86.4h.17v.68H54.57v-.68h.21a2.27,2.27,0,0,0,1.62-.41,2.65,2.65,0,0,0,.38-1.71v-4.67a5.15,5.15,0,0,0-.23-2,2.42,2.42,0,0,0-1.28-.82l-.67-.26v-.17l4.29-1.42v2.31a11.46,11.46,0,0,1,2.15-1.8,3.49,3.49,0,0,1,1.77-.59,2.75,2.75,0,0,1,2.33,1.35l-1.66,1.75c-.56-.92-1.18-1.38-1.84-1.38a4.63,4.63,0,0,0-2.51,1.39,2.8,2.8,0,0,0-.24.19"/><path class="cls-7" d="M69.59,103.05A3,3,0,0,1,72,101.83a2.34,2.34,0,0,1,1.9.88,3.44,3.44,0,0,1,.73,2.27,1.07,1.07,0,0,1-.67,1.14,12.82,12.82,0,0,1-3.22.24H68.4a6.27,6.27,0,0,1,1.19-3.3m3.57,9.31A4.64,4.64,0,0,1,69.73,111a4.69,4.69,0,0,1-1.39-3.44c0-.09,0-.26,0-.51H77v-.34a5.91,5.91,0,0,0-1.3-4.08A4.6,4.6,0,0,0,72,101.16a5.77,5.77,0,0,0-4.33,1.78A6.18,6.18,0,0,0,66,107.42a6,6,0,0,0,1.81,4.49,6.27,6.27,0,0,0,4.58,1.76,10.21,10.21,0,0,0,4.79-1.31v-1a9,9,0,0,1-4,1"/><path class="cls-7" d="M87.05,113.17l-.27-3.6h.87l0,.17a4.29,4.29,0,0,0,1.4,2.53,4.06,4.06,0,0,0,2.7.89,3.7,3.7,0,0,0,2.54-.95,3,3,0,0,0,1.06-2.28q0-1.67-2.73-3.42l-1.73-1.12a16.48,16.48,0,0,1-3.29-2.53,3.21,3.21,0,0,1-.78-2.18,3.58,3.58,0,0,1,1.65-3.07,7.39,7.39,0,0,1,4.34-1.16,13.73,13.73,0,0,1,4.3.71l.31,3.09h-.87l-.06-.17a3.9,3.9,0,0,0-4.13-3,3.56,3.56,0,0,0-2.39.81,2.59,2.59,0,0,0-1,2.06c0,1,.78,2.08,2.33,3.08l2.5,1.6A14.58,14.58,0,0,1,97,107.09a3.41,3.41,0,0,1,.73,2.23A3.88,3.88,0,0,1,96,112.62a7.46,7.46,0,0,1-4.51,1.23,14.53,14.53,0,0,1-4.45-.67"/><path class="cls-7" d="M105.58,103.22a4.78,4.78,0,0,1,1.71-.34,3.7,3.7,0,0,1,3,1.38,5.39,5.39,0,0,1,1.15,3.58,5.66,5.66,0,0,1-1.14,3.64,3.57,3.57,0,0,1-2.9,1.43,4.5,4.5,0,0,1-1.94-.47,4.79,4.79,0,0,1-1.65-1.23v-7a7.9,7.9,0,0,1,1.8-1m-.31,10.34a10.24,10.24,0,0,0,1.46.11,7,7,0,0,0,5-1.84,6.33,6.33,0,0,0,1.93-4.8,6.13,6.13,0,0,0-1.46-4.22,4.73,4.73,0,0,0-3.72-1.66,5.43,5.43,0,0,0-2.3.54,10.64,10.64,0,0,0-2.43,1.66v-2.21l-4.2,1.41v.17l.67.28a2.1,2.1,0,0,1,1.19.83,5.28,5.28,0,0,1,.23,2v9.36a2.56,2.56,0,0,1-.39,1.71,2.27,2.27,0,0,1-1.62.41h-.1v.68h6.32v-.68h-.14a2.23,2.23,0,0,1-1.59-.41,2.69,2.69,0,0,1-.37-1.71v-1.93a11.66,11.66,0,0,0,1.48.33"/><path class="cls-7" d="M119.9,101.23v9.31a2.68,2.68,0,0,0,.37,1.71,2.16,2.16,0,0,0,1.55.41H122v.68h-6.33v-.68h.24a2.05,2.05,0,0,0,1.52-.41,2.76,2.76,0,0,0,.36-1.71v-4.65a5.86,5.86,0,0,0-.19-2,2.85,2.85,0,0,0-1.31-.84l-.59-.27v-.17Zm-1.4-1.53a1.46,1.46,0,0,1-1.05-.4,1.28,1.28,0,0,1-.43-1,1.3,1.3,0,0,1,.43-1,1.45,1.45,0,0,1,1.05-.41,1.48,1.48,0,0,1,1.06.41,1.31,1.31,0,0,1,.42,1,1.3,1.3,0,0,1-.42,1,1.49,1.49,0,0,1-1.06.4"/><path class="cls-7" d="M127.81,104.46v6.08a2.41,2.41,0,0,0,.44,1.72,3,3,0,0,0,1.86.4h.17v.68h-6.78v-.68h.2a2.26,2.26,0,0,0,1.62-.41,2.62,2.62,0,0,0,.38-1.71v-4.67a5.17,5.17,0,0,0-.23-2,2.4,2.4,0,0,0-1.28-.82l-.67-.26v-.17l4.28-1.42v2.31a11.44,11.44,0,0,1,2.15-1.8,3.47,3.47,0,0,1,1.75-.59,2.77,2.77,0,0,1,2.34,1.35l-1.66,1.75c-.56-.92-1.18-1.38-1.84-1.38a4.64,4.64,0,0,0-2.5,1.39l-.24.19"/><path class="cls-7" d="M139,101.23v9.31a2.67,2.67,0,0,0,.38,1.71,2.15,2.15,0,0,0,1.56.41h.18v.68h-6.33v-.68H135a2.06,2.06,0,0,0,1.52-.41,2.76,2.76,0,0,0,.36-1.71v-4.65a5.69,5.69,0,0,0-.2-2,2.83,2.83,0,0,0-1.31-.84l-.58-.27v-.17Zm-1.39-1.53a1.49,1.49,0,0,1-1.06-.4,1.3,1.3,0,0,1-.42-1,1.31,1.31,0,0,1,.42-1,1.56,1.56,0,0,1,2.11,0,1.31,1.31,0,0,1,.43,1,1.29,1.29,0,0,1-.43,1,1.48,1.48,0,0,1-1.05.4"/><path class="cls-7" d="M150.73,111.89v1a5.82,5.82,0,0,1-2.93.8,3.24,3.24,0,0,1-2.75-1.08,6.13,6.13,0,0,1-.83-3.65v-6.67h-2.06l4.17-3.79v3h4v.8h-4v6.32a6,6,0,0,0,.59,3,2.08,2.08,0,0,0,1.89,1,4.14,4.14,0,0,0,1.92-.72"/><path class="cls-7" d="M152.68,112.87l-.27-3h.9l0,.21c.32,2,1.37,3,3.16,3a3.06,3.06,0,0,0,2-.68,2.08,2.08,0,0,0,.82-1.64,1.46,1.46,0,0,0-.42-1,9.09,9.09,0,0,0-2.06-1.29l-1.07-.55c-2-1-3-2.23-3-3.52a2.71,2.71,0,0,1,1.12-2.28,5,5,0,0,1,3-.84,10.69,10.69,0,0,1,3.56.68v2.45h-.9l0-.2a5.12,5.12,0,0,0-.21-.87,2,2,0,0,0-.38-.64,2.53,2.53,0,0,0-.71-.51,3.08,3.08,0,0,0-1.36-.23,2.29,2.29,0,0,0-1.54.51,1.64,1.64,0,0,0-.6,1.32c0,.78.79,1.59,2.37,2.41l1.18.62a8.32,8.32,0,0,1,2.39,1.67,2.82,2.82,0,0,1,.65,1.89,2.9,2.9,0,0,1-1.32,2.49,5.82,5.82,0,0,1-3.46.94,8.31,8.31,0,0,1-3.83-.8"/><path class="cls-7" d="M48.71,133.57l-2.28,0,0-.37,1.24-.38a.27.27,0,0,0,.22-.26q0-.65,0-1.66v-8.54h-3l-.75,2.28-.34.06-.22-3.07.06-.07q2.06,0,3.95,0h2.24q1.88,0,4,0l.05.07-.53,3-.34.06-.54-2.34h-3v8.54q0,1,0,1.66a.27.27,0,0,0,.22.26l1.24.38,0,.37Z"/><path class="cls-7" d="M55.23,121.28q1.37-.28,2.74-.61l.08.07q0,.8,0,2.29t0,3.36a5,5,0,0,1,2.72-1,2.55,2.55,0,0,1,1.85.66,2.58,2.58,0,0,1,.69,1.95v3q0,1,0,1.58a.31.31,0,0,0,.21.3l.94.29,0,.35-1.93,0-1.83,0,0-.35.83-.25a.29.29,0,0,0,.22-.27c0-.08,0-.26,0-.54v-3.73A2,2,0,0,0,61.2,127a2.07,2.07,0,0,0-1.46-.46,4.29,4.29,0,0,0-1.75.41v3.84q0,1.06,0,1.94a.29.29,0,0,0,.21.3l.87.26,0,.35-1.88,0-1.95,0,0-.35.95-.28a.28.28,0,0,0,.23-.27q0-.82,0-2.1V127q0-1.75,0-3.09t0-2l-1.13-.34Z"/><path class="cls-7" d="M66.72,126.17a7.26,7.26,0,0,1,2.89-.73,2.9,2.9,0,0,1,2,.68,2.52,2.52,0,0,1,.74,2l0,3.56a5.55,5.55,0,0,0,0,.7.73.73,0,0,0,.15.41.65.65,0,0,0,.36.2,3.46,3.46,0,0,0,.65.06l0,.33a8.78,8.78,0,0,1-.88.29,3.34,3.34,0,0,1-.71.14,1.13,1.13,0,0,1-1.13-.86,3.86,3.86,0,0,1-2.24.86,2.89,2.89,0,0,1-1.89-.59,2,2,0,0,1-.72-1.66,2.07,2.07,0,0,1,1.15-1.94,7.94,7.94,0,0,1,3.62-.62v-.67a1.85,1.85,0,0,0-.48-1.42,2.1,2.1,0,0,0-1.49-.46,8.1,8.1,0,0,0-1.91.29Zm4.07,3.53a5.37,5.37,0,0,0-2.41.37,1.31,1.31,0,0,0-.64,1.24,1.39,1.39,0,0,0,.43,1.15,1.83,1.83,0,0,0,1.16.34,3.29,3.29,0,0,0,1.45-.3Z"/><path class="cls-7" d="M75.2,126q1.47-.28,2.72-.6l.08.06q0,1.11-.05,2.45v3.29q0,1,0,1.42a.31.31,0,0,0,.21.3l1,.29,0,.35-2,0-2,0,0-.35,1-.29a.29.29,0,0,0,.21-.26q0-.33,0-1.12v-2.86q0-1.12,0-2.07l-1.11-.31ZM78,122.41a1,1,0,0,1-.28.74,1,1,0,0,1-.71.29.92.92,0,0,1-.68-.26,1,1,0,0,1-.26-.7,1,1,0,0,1,.28-.73,1,1,0,0,1,.73-.27,1,1,0,0,1,.67.24A.91.91,0,0,1,78,122.41Z"/><path class="cls-7" d="M80.89,121.56l0-.28q1.49-.29,2.74-.61l.08.07q0,1.39-.05,3.88v5.57q0,1.53,0,2.47a.32.32,0,0,0,.23.31l.91.28,0,.35-2,0-2,0,0-.35.95-.28a.3.3,0,0,0,.23-.27q0-1,0-2.16V127q0-3.18,0-5.11Z"/><path class="cls-7" d="M87.21,126.17a7.27,7.27,0,0,1,2.89-.73,2.9,2.9,0,0,1,2,.68,2.52,2.52,0,0,1,.74,2l0,3.56a5.62,5.62,0,0,0,0,.7.74.74,0,0,0,.15.41.66.66,0,0,0,.37.2A3.47,3.47,0,0,0,94,133l0,.33a8.75,8.75,0,0,1-.88.29,3.32,3.32,0,0,1-.71.14,1.13,1.13,0,0,1-1.13-.86,3.86,3.86,0,0,1-2.24.86,2.9,2.9,0,0,1-1.9-.59,2,2,0,0,1-.72-1.66,2.06,2.06,0,0,1,1.15-1.94,7.94,7.94,0,0,1,3.62-.62v-.67a1.85,1.85,0,0,0-.48-1.42,2.1,2.1,0,0,0-1.49-.46,8.11,8.11,0,0,0-1.91.29Zm4.07,3.53a5.37,5.37,0,0,0-2.41.37,1.31,1.31,0,0,0-.64,1.24,1.39,1.39,0,0,0,.43,1.15,1.82,1.82,0,0,0,1.16.34,3.29,3.29,0,0,0,1.45-.3Z"/><path class="cls-7" d="M95.69,126q1.41-.28,2.66-.6l.08.06v1a4.75,4.75,0,0,1,2.72-1.05,2.52,2.52,0,0,1,1.87.68,2.63,2.63,0,0,1,.68,1.93v3q0,1.07,0,1.58a.3.3,0,0,0,.22.3l.93.29,0,.35-1.93,0-1.83,0,0-.35.84-.25a.29.29,0,0,0,.21-.27q0-.12,0-.54v-3.73a2,2,0,0,0-.49-1.51,2.07,2.07,0,0,0-1.46-.46,3.64,3.64,0,0,0-1.75.5v3.74q0,1.07,0,2a.28.28,0,0,0,.19.29l.87.26,0,.35-1.87,0-1.95,0,0-.35,1-.29a.28.28,0,0,0,.19-.26c0-.37,0-.72,0-1.05v-2.92q0-1.12,0-2.08l-1.12-.31Z"/><path class="cls-7" d="M111.35,121.28q1.5-.29,2.74-.61l.08.07q-.05,1.83-.05,3.94v4.66q0,1.18,0,2.34a6.68,6.68,0,0,0,0,.7.75.75,0,0,0,.15.41.6.6,0,0,0,.35.19,3.57,3.57,0,0,0,.65.06l0,.33q-.37.15-.88.29a3.28,3.28,0,0,1-.7.14,1.16,1.16,0,0,1-1.14-1,4.22,4.22,0,0,1-2.53,1,3.05,3.05,0,0,1-2.48-1.13,4.21,4.21,0,0,1-.93-2.77,4.31,4.31,0,0,1,1.23-3.29,4.83,4.83,0,0,1,3.45-1.16,6.69,6.69,0,0,1,1.2.12q0-1.89,0-3.68l-1.13-.34Zm1.21,5.1a4,4,0,0,0-1.24-.18,2.76,2.76,0,0,0-2.17.84,3.7,3.7,0,0,0-.75,2.53,3.79,3.79,0,0,0,.66,2.34,2.21,2.21,0,0,0,1.87.88,3.49,3.49,0,0,0,1.62-.44Z"/></g></g></svg>