<svg xmlns="http://www.w3.org/2000/svg" viewBox="0 0 192.41 141.9"><defs><style>.cls-1{fill:#ec6c00;}.cls-2{fill:#231815;}</style></defs><title>logo-1</title><g id="Layer_2" data-name="Layer 2"><g id="company"><path class="cls-1" d="M135.83,0a42.82,42.82,0,0,0-26.67,9.28,40.63,40.63,0,1,1,0,67.42A43,43,0,1,0,135.83,0Z"/><path class="cls-1" d="M58.4,0a43,43,0,1,0,43,43A43,43,0,0,0,58.4,0ZM78.51,24.74H59.88V39.39h18v9.89h-18V73.95H46.28V14.83H78.51Z"/><path class="cls-1" d="M112,14.89h13.39v23h14.17v-23h13.4V73.32h-13.4V48.47H125.38V73.32H112Z"/><path class="cls-2" d="M0,103.9H14.85v4.56H6.26v6.79h8.29v4.59H6.26v11.35H0Z"/><path class="cls-2" d="M18.74,103.9H25v17.48a8.58,8.58,0,0,0,.82,4.44,3.15,3.15,0,0,0,2.82,1.23,3.2,3.2,0,0,0,2.86-1.24c.56-.82.84-2.3.84-4.43V103.9h6v16.76c0,3.74-.79,6.5-2.4,8.29s-4.08,2.69-7.41,2.69-5.79-.89-7.39-2.68-2.41-4.55-2.41-8.3Z"/><path class="cls-2" d="M41.6,103.9H59.75v4.88H53.82v22.4h-6.3v-22.4H41.6Z"/><path class="cls-2" d="M63,103.9h6.3v17.48a8.49,8.49,0,0,0,.83,4.44A3.13,3.13,0,0,0,73,127.05a3.2,3.2,0,0,0,2.86-1.24c.56-.82.84-2.3.84-4.43V103.9h6v16.76q0,5.61-2.41,8.29t-7.41,2.69q-5,0-7.39-2.68c-1.6-1.79-2.4-4.55-2.4-8.3Z"/><path class="cls-2" d="M87.92,103.9h6.44c.33,0,.67,0,1,0h.56c3.47,0,6,.59,7.58,1.75s2.38,3,2.38,5.6a6.4,6.4,0,0,1-1.31,4.15,6.74,6.74,0,0,1-3.8,2.24,3.73,3.73,0,0,1,1.95,1.16,9.56,9.56,0,0,1,1.46,3.18l3,9.24h-6.46l-2.17-7.75a6.38,6.38,0,0,0-1.28-2.77,2.89,2.89,0,0,0-2.07-.66H94v11.17H87.92ZM94,108.46v7h1.33a5.6,5.6,0,0,0,3.37-.81,3.13,3.13,0,0,0,1-2.62,3.57,3.57,0,0,0-.94-2.78,5.24,5.24,0,0,0-3.36-.79Z"/><path class="cls-2" d="M110.21,103.9h15.52v4.56h-9.27V115h8.76v4.59h-8.76v7h9.73v4.59h-16Z"/><path class="cls-2" d="M141,103.9h6.26v10.72h6.63V103.9h6.26v27.28h-6.26v-11.6h-6.63v11.6H141Z"/><path class="cls-2" d="M165.27,103.89h5.94v5.3h-5.94Zm0,8.76h5.94v18.52h-5.94Z"/><path class="cls-2" d="M174.27,103.9h18.14v4.88h-5.93v22.4h-6.3v-22.4h-5.92Z"/><path class="cls-2" d="M1.95,141.73.49,135.67H2.38L3,139.58l.77-3.91H5.42l.73,3.91.64-3.91H8.63L7.2,141.73H5.27l-.7-3.62-.67,3.62Z"/><path class="cls-2" d="M10,141.73v-6.06h4.85v1.45H12v.82h2.45v1.38H12v1h3v1.46Z"/><path class="cls-2" d="M20.2,141.73v-6.06h2.49a7.26,7.26,0,0,1,1.31.1,2.25,2.25,0,0,1,.81.31,1.83,1.83,0,0,1,.63.7,2.34,2.34,0,0,1,.2,1,2,2,0,0,1-.6,1.56,2.52,2.52,0,0,1-1.73.53H22.14v1.86Zm1.94-3.34h.63a1.67,1.67,0,0,0,.82-.14.54.54,0,0,0,.21-.48.58.58,0,0,0-.21-.5,1.65,1.65,0,0,0-.82-.13h-.63Z"/><path class="cls-2" d="M27.17,141.73v-6.06h2.9a3.54,3.54,0,0,1,1.94.41,1.53,1.53,0,0,1,.58,1.33,1.69,1.69,0,0,1-.24.92,1.59,1.59,0,0,1-.74.58,1.11,1.11,0,0,1,.74.43,1.61,1.61,0,0,1,.25.93l0,.84v0c0,.23.07.38.18.38v.22h-2c0-.15-.06-.27-.08-.38a2.45,2.45,0,0,1,0-.26v-.61a.94.94,0,0,0-.18-.66.86.86,0,0,0-.65-.19h-.83v2.09Zm1.92-3.47H30a1.14,1.14,0,0,0,.64-.12.47.47,0,0,0,.18-.43.49.49,0,0,0-.18-.43,1.18,1.18,0,0,0-.68-.13h-.84Z"/><path class="cls-2" d="M34.09,138.7a3.16,3.16,0,0,1,.84-2.33,3.5,3.5,0,0,1,4.6,0,3.64,3.64,0,0,1,0,4.66,3.49,3.49,0,0,1-4.6,0A3.15,3.15,0,0,1,34.09,138.7Zm2,0a2.16,2.16,0,0,0,.28,1.26,1,1,0,0,0,.91.41,1,1,0,0,0,.89-.41,2.16,2.16,0,0,0,.28-1.26,2.24,2.24,0,0,0-.28-1.27,1,1,0,0,0-.89-.4,1.05,1.05,0,0,0-.91.4A2.26,2.26,0,0,0,36.06,138.71Z"/><path class="cls-2" d="M42,141.73v-6.06h2.34a8.46,8.46,0,0,1,1.34.08,2.44,2.44,0,0,1,.76.27,2.26,2.26,0,0,1,1,1,3.76,3.76,0,0,1,.32,1.64,3.51,3.51,0,0,1-.4,1.74,2.38,2.38,0,0,1-1.16,1,2.4,2.4,0,0,1-.74.2,13.5,13.5,0,0,1-1.44.06ZM44,140.2h.52a1.29,1.29,0,0,0,1-.33,1.82,1.82,0,0,0,.29-1.17,1.78,1.78,0,0,0-.29-1.15,1.21,1.21,0,0,0-1-.34H44Z"/><path class="cls-2" d="M49.38,135.67h1.94v3.73a.79.79,0,0,0,.94,1,1,1,0,0,0,.71-.2,1.07,1.07,0,0,0,.21-.76v-3.73h1.94v3.89a2.13,2.13,0,0,1-.73,1.75,3.3,3.3,0,0,1-2.13.59,3.36,3.36,0,0,1-2.14-.59,2.13,2.13,0,0,1-.74-1.75Z"/><path class="cls-2" d="M60.94,139.38h1.85a2.59,2.59,0,0,1-.85,1.86,3,3,0,0,1-2.06.66A3,3,0,0,1,57.6,141a3.18,3.18,0,0,1-.84-2.34,3.23,3.23,0,0,1,.82-2.33,3,3,0,0,1,2.26-.86,3.11,3.11,0,0,1,2.07.64,2.52,2.52,0,0,1,.84,1.82H60.89a.93.93,0,0,0-1-1,1,1,0,0,0-.86.41,2.31,2.31,0,0,0-.29,1.27A2.15,2.15,0,0,0,59,140a1,1,0,0,0,.89.42,1,1,0,0,0,.72-.26A1.16,1.16,0,0,0,60.94,139.38Z"/><path class="cls-2" d="M64.36,141.73v-6.06h4.85v1.45H66.3v.82h2.46v1.38H66.3v1h3v1.46Z"/><path class="cls-2" d="M75.48,141.73,74,135.67h1.9l.65,3.91.76-3.91H79l.73,3.91.63-3.91h1.85l-1.44,6.06H78.8l-.7-3.62-.66,3.62Z"/><path class="cls-2" d="M83.57,141.73v-6.06h4.84v1.45h-2.9v.82H88v1.38H85.51v1h3v1.46Z"/><path class="cls-2" d="M90.2,141.73v-6.06h2.49c.53,0,.92,0,1.17,0a2.37,2.37,0,0,1,.63.14,1.5,1.5,0,0,1,.7.52,1.57,1.57,0,0,1,.25.91,1.37,1.37,0,0,1-.19.71,1.2,1.2,0,0,1-.54.5,1.52,1.52,0,0,1,.71.52,1.59,1.59,0,0,1,.23.9,1.81,1.81,0,0,1-.23.94,1.48,1.48,0,0,1-.65.61,2.21,2.21,0,0,1-.66.21,9.71,9.71,0,0,1-1.22.06Zm1.89-3.64h.81a1.09,1.09,0,0,0,.57-.12.49.49,0,0,0,.16-.41.44.44,0,0,0-.18-.4,1.75,1.75,0,0,0-.82-.11h-.54Zm0,2.23H93a1.16,1.16,0,0,0,.64-.13.5.5,0,0,0,.19-.44.46.46,0,0,0-.19-.42,1.14,1.14,0,0,0-.65-.13h-.89Z"/><path class="cls-2" d="M104.78,139.38h1.85a2.57,2.57,0,0,1-.84,1.86,3.52,3.52,0,0,1-4.35-.2,3.7,3.7,0,0,1,0-4.67,3,3,0,0,1,2.26-.86,3.09,3.09,0,0,1,2.06.64,2.45,2.45,0,0,1,.84,1.82h-1.86a1,1,0,0,0-.31-.71,1,1,0,0,0-.72-.24,1,1,0,0,0-.86.41,2.28,2.28,0,0,0-.29,1.27,2.15,2.15,0,0,0,.3,1.25,1,1,0,0,0,.89.42,1,1,0,0,0,.71-.26A1.06,1.06,0,0,0,104.78,139.38Z"/><path class="cls-2" d="M107.95,138.7a3.17,3.17,0,0,1,.84-2.33,3.51,3.51,0,0,1,4.61,0,3.66,3.66,0,0,1,0,4.66,3.5,3.5,0,0,1-4.61,0A3.16,3.16,0,0,1,107.95,138.7Zm2,0a2.13,2.13,0,0,0,.29,1.26,1.19,1.19,0,0,0,1.79,0,2.19,2.19,0,0,0,.29-1.26,2.27,2.27,0,0,0-.29-1.27,1.2,1.2,0,0,0-1.79,0A2.23,2.23,0,0,0,109.92,138.71Z"/><path class="cls-2" d="M117.66,141.73H115.9v-6.06h2.36l.85,3a2.7,2.7,0,0,0,.06.28c0,.15.08.36.13.61,0-.2.08-.38.11-.53l.08-.34.86-3h2.37v6.06H121l0-3v-.52c0-.17,0-.35,0-.53-.07.3-.15.65-.24,1l0,.06-.74,3h-1.36l-.76-2.91c0-.13-.07-.28-.1-.45s-.09-.4-.15-.68c0,.25,0,.47,0,.67s0,.33,0,.45Z"/><path class="cls-2" d="M126.39,141.73h-1.76v-6.06H127l.84,3s0,.13.07.28l.14.61.11-.53a2.87,2.87,0,0,1,.09-.34l.85-3h2.38v6.06h-1.77v-3c0-.17,0-.35,0-.52s0-.35,0-.53c-.07.3-.15.65-.24,1v.06l-.75,3h-1.35l-.76-2.91-.11-.45c0-.17-.08-.4-.14-.68,0,.25,0,.47,0,.67s0,.33,0,.45Z"/><path class="cls-2" d="M133.33,135.67h1.94v3.73a.8.8,0,0,0,.94,1,.79.79,0,0,0,.92-1v-3.73h1.94v3.89a2.14,2.14,0,0,1-.73,1.75,3.32,3.32,0,0,1-2.13.59,3.37,3.37,0,0,1-2.15-.59,2.13,2.13,0,0,1-.74-1.75Z"/><path class="cls-2" d="M141,141.73v-6.06h1.85l1.7,2.82a3,3,0,0,1,.17.33c.06.15.12.33.19.54,0-.12,0-.23,0-.36s0-.29,0-.47v-2.86h1.86v6.06h-1.86l-1.7-2.79a1.59,1.59,0,0,1-.17-.35c-.06-.15-.12-.33-.19-.52,0,.1,0,.21,0,.34s0,.28,0,.5v2.83Z"/><path class="cls-2" d="M148.62,141.73v-6.06h2v6.06Z"/><path class="cls-2" d="M156.47,139.38h1.84a2.6,2.6,0,0,1-.84,1.86,3,3,0,0,1-2.06.66,3,3,0,0,1-2.29-.86,3.17,3.17,0,0,1-.84-2.34,3.24,3.24,0,0,1,.82-2.33,3,3,0,0,1,2.26-.86,3.11,3.11,0,0,1,2.07.64,2.46,2.46,0,0,1,.84,1.82h-1.86a1,1,0,0,0-.3-.71,1,1,0,0,0-.73-.24,1,1,0,0,0-.86.41,2.25,2.25,0,0,0-.29,1.27,2.15,2.15,0,0,0,.3,1.25,1,1,0,0,0,.9.42,1,1,0,0,0,.71-.26A1.18,1.18,0,0,0,156.47,139.38Z"/><path class="cls-2" d="M159.29,141.73l2.13-6.06h2l2.13,6.06H163.6l-.22-.81h-1.93l-.23.81Zm2.5-2.08H163l-.61-2.09Z"/><path class="cls-2" d="M167.82,141.73v-4.46h-1.75v-1.6h5.44v1.6h-1.75v4.46Z"/><path class="cls-2" d="M172.92,141.73v-6.06h2v6.06Z"/><path class="cls-2" d="M176.58,138.7a3.16,3.16,0,0,1,.85-2.33,3.49,3.49,0,0,1,4.6,0,3.64,3.64,0,0,1,0,4.66,3.49,3.49,0,0,1-4.6,0A3.15,3.15,0,0,1,176.58,138.7Zm2,0a2.14,2.14,0,0,0,.28,1.26,1,1,0,0,0,.9.41,1,1,0,0,0,.89-.41,2.2,2.2,0,0,0,.28-1.26,2.28,2.28,0,0,0-.28-1.27,1,1,0,0,0-.89-.4,1.05,1.05,0,0,0-.9.4A2.24,2.24,0,0,0,178.55,138.71Z"/><path class="cls-2" d="M184.52,141.73v-6.06h1.85l1.7,2.82a2.39,2.39,0,0,1,.17.33c.06.15.12.33.2.54a2.31,2.31,0,0,1,0-.36c0-.13,0-.29,0-.47v-2.86h1.86v6.06h-1.86l-1.7-2.79a2.24,2.24,0,0,1-.18-.35c-.06-.15-.12-.33-.18-.52,0,.1,0,.21,0,.34s0,.28,0,.5v2.83Z"/></g></g></svg>