<svg xmlns="http://www.w3.org/2000/svg" viewBox="0 0 27 27"><defs><style>.cls-1{fill:#333;}</style></defs><title>phone</title><g id="Layer_2" data-name="Layer 2"><g id="レイヤー_1" data-name="レイヤー 1"><g id="Phone"><path class="cls-1" d="M24.7,16.91l-4.37-2.25a3,3,0,0,0-3.34.45l-.51.47a1.67,1.67,0,0,1-1.87.25,8,8,0,0,1-3.45-3.45,1.65,1.65,0,0,1,.25-1.87l.47-.51a2.95,2.95,0,0,0,.45-3.34L10.08,2.29A4.22,4.22,0,0,0,3.77.86l-1.33,1A6.2,6.2,0,0,0,.3,8.71,28.44,28.44,0,0,0,17.77,26.65a6.21,6.21,0,0,0,6.49-1.49l1.52-1.54a4.21,4.21,0,0,0-1.08-6.71ZM24,21.84l-1.52,1.54a3.74,3.74,0,0,1-3.84.88A25.9,25.9,0,0,1,2.71,7.94,3.67,3.67,0,0,1,4,3.89l1.33-1a1.69,1.69,0,0,1,2.52.58l2.25,4.37a.42.42,0,0,1-.07.47l-.47.51a4.18,4.18,0,0,0-.64,4.73,10.48,10.48,0,0,0,4.54,4.54,4.26,4.26,0,0,0,4.74-.64L18.7,17a.46.46,0,0,1,.47-.06l4.37,2.25A1.68,1.68,0,0,1,24,21.84Z"/></g></g></g></svg>