<svg xmlns="http://www.w3.org/2000/svg" viewBox="0 0 305.35 176.06"><defs><style>.cls-1{fill:#4b8f00;}.cls-2{font-size:13px;fill:#333;font-family:GenShinGothic-Bold, Gen Shin Gothic;font-weight:700;}.cls-3{letter-spacing:-0.5em;}</style></defs><title>404_1</title><g id="Layer_2" data-name="Layer 2"><g id="PLESK"><path class="cls-1" d="M66.84,55.82v13.8H55.95V93.48H39V69.63H0V57.28L34.15,1.7h21.8V55.82Zm-49.16,0H39V37.05q0-3,.73-19h-.48Q35.48,26.4,32,32.94Z"/><path class="cls-1" d="M140.92,95.18q-14.41,0-22.77-12.35t-8.36-35.6Q109.8,24,118.1,12T140.92,0q14.41,0,22.7,12t8.3,35.18q0,23.25-8.36,35.6T140.92,95.18Zm0-14.17q13.8,0,13.8-33.79,0-33.06-13.8-33.06T127,47.23Q127,81,140.92,81Z"/><path class="cls-1" d="M251.22,95h-13.8V84.11H213.56v-17h23.86v-39h12.35l55.58,34.15v21.8H251.22Zm0-49.16V67.16H270q3,0,19,.73V67.4q-8.36-3.76-14.89-7.27Z"/><text class="cls-2" transform="translate(10.81 147.57)">もうしわけございません<tspan class="cls-3" x="143" y="0">。</tspan><tspan x="0" y="24">お探しのページが見つかりませんでした</tspan><tspan class="cls-3" x="234" y="24">。</tspan></text></g></g></svg>