<svg xmlns="http://www.w3.org/2000/svg" viewBox="0 0 176.41 125.56"><defs><style>.cls-1,.cls-2{fill:none;stroke:#4b8f00;stroke-miterlimit:10;}.cls-2{stroke-width:1.11px;}</style></defs><title>Asset 9</title><g id="Layer_2" data-name="Layer 2"><g id="J-support"><path class="cls-1" d="M14.6,116.5h3.5v-8s-12.37-.87,1.09-20.64c0,0,11.91,18.86.91,20.64v8h9V75.79l17,.11V71.5h3v45.14l10.41-.16"/><rect class="cls-1" x="32.1" y="80.5" width="2" height="3"/><rect class="cls-1" x="36.1" y="80.5" width="4" height="3"/><rect class="cls-1" x="32.1" y="88.5" width="2" height="4"/><rect class="cls-1" x="36.1" y="88.5" width="4" height="4"/><circle class="cls-2" cx="36.12" cy="89.44" r="35.56"/><path class="cls-1" d="M108.6,106.5h9.5V77.37s2.53-1.1,4,.4l.25,16.72,5,1.94-.41,10.07h3.42V86.92L138.91,93l-.64-6.7,8.78,7.45-.42-7.4,9.43,7.17-.43,13h3l.43-13h7.2l-.34,13h5.68"/><polygon class="cls-1" points="160.1 97.5 160.1 102.65 163.84 102.63 163.86 97.5 160.1 97.5"/><rect class="cls-1" x="133.1" y="97.5" width="7" height="5"/><rect class="cls-1" x="142.1" y="97.5" width="3" height="5"/><circle class="cls-2" cx="140.29" cy="89.44" r="35.56"/><polygon class="cls-1" points="72.28 43.5 66.52 15.5 110.47 15.5 104.71 43.5 72.28 43.5"/><polyline class="cls-1" points="70.1 16 70.1 0.5 82.28 0.5 84.44 4.5 108.1 4.5 108.1 16"/><polyline class="cls-1" points="74.1 15 74.1 11.5 105.1 11.5 105.1 15"/><polyline class="cls-1" points="76.1 11 76.1 8.5 103.1 8.5 103.1 11"/><polyline class="cls-2" points="35.58 53.33 36.2 26.35 68.65 26.26"/><polyline class="cls-1" points="108.56 27.71 142.1 27.46 142.1 54"/></g></g></svg>