<svg xmlns="http://www.w3.org/2000/svg" viewBox="0 0 460 508.77"><defs><style>.cls-1,.cls-11,.cls-5,.cls-7{fill:#4b8f00;}.cls-12,.cls-13,.cls-2{fill:#fff;}.cls-3{fill:#333;}.cls-10,.cls-14,.cls-4,.cls-6,.cls-8,.cls-9{fill:none;}.cls-10,.cls-11,.cls-12,.cls-13,.cls-4,.cls-5,.cls-6,.cls-7,.cls-8,.cls-9{stroke:#4b8f00;}.cls-11,.cls-12,.cls-13,.cls-14,.cls-4,.cls-5,.cls-6,.cls-7{stroke-miterlimit:10;}.cls-10,.cls-12,.cls-4,.cls-6,.cls-8{stroke-width:2.18px;}.cls-13,.cls-5{stroke-width:1.66px;}.cls-6,.cls-8,.cls-9{stroke-linecap:round;}.cls-7{stroke-width:1px;}.cls-10,.cls-8,.cls-9{stroke-linejoin:round;}.cls-9{stroke-width:2px;}.cls-11{stroke-width:0.6px;}.cls-14{stroke:#fff;stroke-width:3px;}</style></defs><title>img-5</title><g id="Layer_2" data-name="Layer 2"><g id="J-support"><path class="cls-1" d="M444.93,134.72H279.63c-17,0-23.27,7.77-23.27,7.77l-44.68,43.23H15.45A15.63,15.63,0,0,0,0,201.37V414.65a15.13,15.13,0,0,0,15.45,15.07h429.1A15.13,15.13,0,0,0,460,414.65V147.38C459,138.11,444.93,134.72,444.93,134.72Z"/><path class="cls-2" d="M123.23,233a2.36,2.36,0,0,1,1.76.73,2.42,2.42,0,0,1,.71,1.74v1.17a2.42,2.42,0,0,1-.71,1.74,2.36,2.36,0,0,1-1.76.73H88.72a2.5,2.5,0,0,1-2.47-2.47V235.5A2.5,2.5,0,0,1,88.72,233h6q.34,0,.33-.29V226.2a.3.3,0,0,0-.33-.34h-4.7a2.44,2.44,0,0,1-2.47-2.47v-1a2.44,2.44,0,0,1,2.47-2.47h4.7a.3.3,0,0,0,.33-.34v-4.74a2.36,2.36,0,0,1,.73-1.76,2.41,2.41,0,0,1,1.74-.71h1.59a2.41,2.41,0,0,1,1.74.71,2.36,2.36,0,0,1,.73,1.76v4.74c0,.22.1.34.29.34h7.92c.2,0,.29-.11.29-.34v-4.74a2.36,2.36,0,0,1,.73-1.76,2.41,2.41,0,0,1,1.74-.71h1.64A2.41,2.41,0,0,1,116,213a2.36,2.36,0,0,1,.73,1.76v4.74a.3.3,0,0,0,.34.34H122a2.44,2.44,0,0,1,2.47,2.47v1a2.44,2.44,0,0,1-2.47,2.47h-4.95a.3.3,0,0,0-.34.34v6.54c0,.2.11.29.34.29Zm-28,9.1a3.84,3.84,0,0,1,1.89-1,2.9,2.9,0,0,1,.84-.13,3.38,3.38,0,0,1,1.26.25l2.05.75a1.55,1.55,0,0,1,1,1.22,2,2,0,0,1,0,.38,1.63,1.63,0,0,1-.46,1.13,57.33,57.33,0,0,1-8.22,6.83,3.09,3.09,0,0,1-1.68.5,1.41,1.41,0,0,1-.34,0,3.15,3.15,0,0,1-1.89-.84L88.26,250a1.59,1.59,0,0,1-.59-1.26,1.63,1.63,0,0,1,.8-1.47A37.71,37.71,0,0,0,95.18,242.13Zm6.75-16.27c-.2,0-.29.11-.29.34v6.54a.26.26,0,0,0,.29.29h7.92a.26.26,0,0,0,.29-.29V226.2c0-.22-.1-.34-.29-.34Zm8.47,18.87a1.59,1.59,0,0,1-.59-1.26,1.55,1.55,0,0,1,.84-1.47l1.42-.75a3.69,3.69,0,0,1,1.8-.46h.29a3.92,3.92,0,0,1,2.05.75q2.26,1.72,4.21,3.23t3.5,2.85a1.59,1.59,0,0,1,.59,1.26v.25a1.69,1.69,0,0,1-.92,1.34l-2,1.13a3.17,3.17,0,0,1-1.55.42,2.9,2.9,0,0,1-.46,0,3.44,3.44,0,0,1-1.89-.92Q115.18,248.63,110.4,244.73Z"/><path class="cls-2" d="M168.21,220.41a2.51,2.51,0,0,1-2.47,2.47H145.61a.47.47,0,0,0-.46.25q-.38.76-1,1.93a.22.22,0,0,0,0,.19.16.16,0,0,0,.17.11H161a2.43,2.43,0,0,1,2.47,2.47V246.4a9.64,9.64,0,0,1-.52,3.54,3.71,3.71,0,0,1-1.91,1.95,13.36,13.36,0,0,1-5.28,1h-.13a2.66,2.66,0,0,1-1.76-.67,3.27,3.27,0,0,1-1.13-1.72q-.17-.67-.38-1.3a1.48,1.48,0,0,1-.13-.59,1.76,1.76,0,0,1,1.59-1.63h0q1.17,0,2.56,0,1,0,1-.75V245q0-.29-.33-.29H143.52a.26.26,0,0,0-.29.29v5.28a2.36,2.36,0,0,1-.73,1.76,2.41,2.41,0,0,1-1.74.71h-1.26a2.41,2.41,0,0,1-1.74-.71,2.36,2.36,0,0,1-.73-1.76V235.42a.14.14,0,0,0-.06-.13s-.09,0-.15,0a29.45,29.45,0,0,1-2.6,2.39,2.22,2.22,0,0,1-1.43.54,1.54,1.54,0,0,1-.38,0,2.71,2.71,0,0,1-1.68-1q-.46-.54-1-1.09a2.12,2.12,0,0,1-.54-1.43v-.21a2.11,2.11,0,0,1,.84-1.55,32.75,32.75,0,0,0,8-9.85.12.12,0,0,0,0-.17.18.18,0,0,0-.15-.08H132a2.51,2.51,0,0,1-2.47-2.47v-.92A2.51,2.51,0,0,1,132,217h8.55a.39.39,0,0,0,.42-.29q.42-1.13.75-2.35a2.63,2.63,0,0,1,1.22-1.51,2.5,2.5,0,0,1,1.3-.38,4.24,4.24,0,0,1,.59,0l1.63.38a2.2,2.2,0,0,1,1.47,1.09,2.07,2.07,0,0,1,.33,1.09,1.76,1.76,0,0,1-.17.71c-.08.31-.18.62-.29.92a.22.22,0,0,0,0,.21.22.22,0,0,0,.19.08h17.73a2.51,2.51,0,0,1,2.47,2.47ZM157.1,232.57a.3.3,0,0,0,.33-.34v-1.17q0-.29-.33-.29H143.52a.26.26,0,0,0-.29.29v1.17c0,.22.1.34.29.34Zm-13.88,6.67q0,.34.29.33H157.1a.3.3,0,0,0,.33-.33V238c0-.2-.11-.29-.33-.29H143.52a.26.26,0,0,0-.29.29Z"/><path class="cls-2" d="M201.58,217.18h.63a7,7,0,0,1,3.86,1l1,.63a3.41,3.41,0,0,1,1.43,2.68,3.21,3.21,0,0,1-.17,1c0,.14-.08.35-.17.63a4.59,4.59,0,0,0-.13.46q-.71,2.77-1.34,4.82a50,50,0,0,1-2,5.24,28.33,28.33,0,0,1-3.12,5.49,32.68,32.68,0,0,1-6.5,6.44,35.37,35.37,0,0,1-8.64,4.76,3.21,3.21,0,0,1-2.14.13,3.48,3.48,0,0,1-1.84-1.09l-2.35-2.56a1.5,1.5,0,0,1-.38-1,1.47,1.47,0,0,1,.08-.46,1.52,1.52,0,0,1,1-1A27.91,27.91,0,0,0,195.29,235a22.66,22.66,0,0,0,4.65-10.73c.06-.22,0-.34-.25-.34H181.13q-1.38,0-3.1.08h-.13a2.4,2.4,0,0,1-1.63-.63,2.34,2.34,0,0,1-.71-1.72v-2.39a2.16,2.16,0,0,1,.71-1.64,2.29,2.29,0,0,1,1.55-.59H178q2,.13,3.1.13h18.95Q200.87,217.22,201.58,217.18Z"/><path class="cls-2" d="M242.5,227.54c0,.2.11.29.33.29h4.11q.59,0,1.38,0h.17a2.28,2.28,0,0,1,1.55.59,2.11,2.11,0,0,1,.75,1.63v1.34a2.34,2.34,0,0,1-.71,1.72,2.42,2.42,0,0,1-1.72.67H243q-.34,0-.29.29,0,1,.08,3.52t.1,3.92q0,1.36.06,3.37.08,2.77.08,3.65a3.84,3.84,0,0,1-1.3,3,4.94,4.94,0,0,1-3.44,1.17q-2.1,0-4.44-.08a2.62,2.62,0,0,1-1.8-.8,2.79,2.79,0,0,1-.84-1.8l0-.92a1.92,1.92,0,0,1,.63-1.64,2,2,0,0,1,1.47-.63.71.71,0,0,1,.21,0q1.38.09,2.26.08a1,1,0,0,0,.84-.33,1.75,1.75,0,0,0,.25-1q0-3.86,0-6.2a.1.1,0,0,0-.06-.11.2.2,0,0,0-.15,0,40.84,40.84,0,0,1-4.95,4.78,51.07,51.07,0,0,1-6,4.32,2.72,2.72,0,0,1-1.47.42,3,3,0,0,1-.5,0,2.85,2.85,0,0,1-1.8-1l-1.26-1.47a1.78,1.78,0,0,1-.46-1.17,2.17,2.17,0,0,1,0-.42,1.92,1.92,0,0,1,1-1.34,45.2,45.2,0,0,0,6.83-4.4,35.28,35.28,0,0,0,5.28-4.95s0-.07,0-.12a.13.13,0,0,0-.13-.08h-7.5q-.84,0-2,0h-.08a2.22,2.22,0,0,1-1.63-.67,2.15,2.15,0,0,1-.76-1.68V230a2.1,2.1,0,0,1,.76-1.63,2.28,2.28,0,0,1,1.55-.59h.17q1,0,1.84,0h10.69a.26.26,0,0,0,.29-.29l-.08-1.8q0-.71-.08-1.51V224a2.34,2.34,0,0,1,.54-1.51,2.16,2.16,0,0,1,1.63-.71h1.68a2.21,2.21,0,0,1,1.68.71,2.46,2.46,0,0,1,.63,1.68l0,1.55Z"/><path class="cls-2" d="M265.35,249.38a2.6,2.6,0,0,1-1.8.88h-.34a3,3,0,0,1-1.68-.5l-2.22-1.47a1.73,1.73,0,0,1-.8-1.51,1.88,1.88,0,0,1,.63-1.42,20,20,0,0,0,5.32-8.59q1.22-3.65,1.22-16.77,0-1.09,0-2a.78.78,0,0,1,0-.25,2.27,2.27,0,0,1,.55-1.47,1.94,1.94,0,0,1,1.55-.75h2.68a2,2,0,0,1,1.63.75,2.24,2.24,0,0,1,.59,1.51l-.08,2.1q0,13.75-1.26,18.57A25.33,25.33,0,0,1,265.35,249.38Zm18.28.54a3.89,3.89,0,0,1-2,.5h-.08a2.83,2.83,0,0,1-1.89-.67l-.54-.42a4.4,4.4,0,0,1-1.55-3.56v-.46c0-.39,0-.77,0-1.13V219.57l-.08-1.76a2.23,2.23,0,0,1,.59-1.51,2,2,0,0,1,1.59-.75h2.77a2.11,2.11,0,0,1,1.64.75,2.39,2.39,0,0,1,.54,1.55l0,1.76v20.79a.22.22,0,0,0,.08.19.22.22,0,0,0,.21,0,22.42,22.42,0,0,0,7.71-6.12,1.82,1.82,0,0,1,1.47-.71h0a1.75,1.75,0,0,1,1.43.75l1.17,1.72a3,3,0,0,1,.59,1.84,2.87,2.87,0,0,1-.8,2.05,48.34,48.34,0,0,1-6.18,5.47A47.27,47.27,0,0,1,283.63,249.93Z"/><path class="cls-2" d="M335.07,216.85a2.06,2.06,0,0,1,.29,1,2.37,2.37,0,0,1-.13.75A2.14,2.14,0,0,1,334,220a.17.17,0,0,0,0,.29l1.43.88a2.46,2.46,0,0,1,1.13,1.55,2.37,2.37,0,0,1,.13.75,2.69,2.69,0,0,1-.29,1.22q-.29.67-.5,1.3a49.11,49.11,0,0,1-5.53,10.86c-.14.17-.11.32.08.46l1.76,1.13a2.35,2.35,0,0,1,1,1.59v.38a2.47,2.47,0,0,1-.46,1.43L331,244a2.23,2.23,0,0,1-1.63.88.92.92,0,0,1-.29,0,2.33,2.33,0,0,1-1.51-.54l-1.8-1.34a.33.33,0,0,0-.46,0,40.49,40.49,0,0,1-12.75,9.1,4.25,4.25,0,0,1-1.55.29,5.17,5.17,0,0,1-.63,0,3.69,3.69,0,0,1-2-.92l-2.35-2a1.32,1.32,0,0,1-.46-1,1.36,1.36,0,0,1,0-.34,1.24,1.24,0,0,1,.92-1,35.76,35.76,0,0,0,12.87-8c.17-.17.15-.31,0-.42q-2.47-1.59-4.82-3a2.05,2.05,0,0,1-1-1.43,1.91,1.91,0,0,1,0-.38,1.87,1.87,0,0,1,.54-1.3l1.13-1.3a3.15,3.15,0,0,1,1.8-1,3.8,3.8,0,0,1,.54,0,3.1,3.1,0,0,1,1.47.38q2.64,1.43,4.86,2.73a.3.3,0,0,0,.42-.13,25,25,0,0,0,3.61-7.29.19.19,0,0,0,0-.19.21.21,0,0,0-.19-.11h-10.4a.67.67,0,0,0-.54.25,53.05,53.05,0,0,1-9.1,9.27,3,3,0,0,1-1.93.67h0a3.39,3.39,0,0,1-2-.71l-1.72-1.3a1.71,1.71,0,0,1-.67-1.38,1.73,1.73,0,0,1,.8-1.51,39,39,0,0,0,4.07-3.23,31.86,31.86,0,0,0,3.31-3.48q1.42-1.76,2.28-3t1.87-2.81a18,18,0,0,0,1.43-2.77,2.78,2.78,0,0,1,1.34-1.43,2.36,2.36,0,0,1,1.13-.29,2.39,2.39,0,0,1,.75.13l2.77.84a1.89,1.89,0,0,1,1.22,1.13,2.78,2.78,0,0,1,.08.67,2,2,0,0,1-.29,1q-.46.8-1,1.76a.22.22,0,0,0,0,.19.16.16,0,0,0,.17.1H328a16.82,16.82,0,0,0,3.14-.29c.2,0,.25-.14.17-.34q-.75-1.47-1.34-2.52a1.9,1.9,0,0,1-.25-.92,2.61,2.61,0,0,1,.08-.63,1.63,1.63,0,0,1,1-1.09,2.31,2.31,0,0,1,1-.21,2.5,2.5,0,0,1,.8.13A2.37,2.37,0,0,1,334,215Q334.53,215.84,335.07,216.85Zm.25-2.35a1.72,1.72,0,0,1-.29-.92,2.14,2.14,0,0,1,.08-.59,1.76,1.76,0,0,1,1-1.13,2.81,2.81,0,0,1,1-.17,2.5,2.5,0,0,1,.8.13,2.55,2.55,0,0,1,1.42,1.09q.59,1,1.17,2.05a1.92,1.92,0,0,1,.25.92,1.89,1.89,0,0,1-.13.67,2,2,0,0,1-1.09,1.22,2.67,2.67,0,0,1-.92.17,2.5,2.5,0,0,1-.8-.13,2.37,2.37,0,0,1-1.3-1.13Q335.91,215.51,335.32,214.5Z"/><path class="cls-2" d="M348.19,236.22h-.13a2.17,2.17,0,0,1-1.59-.67,2.15,2.15,0,0,1-.75-1.68V230.6a2.36,2.36,0,0,1,2.35-2.31h.13q3.06.17,4.95.17h22.81q1.17,0,2.81-.13h.17a2.2,2.2,0,0,1,1.55.63,2.1,2.1,0,0,1,.75,1.63v3.27a2.28,2.28,0,0,1-.75,1.72,2.2,2.2,0,0,1-1.55.63h-.17q-1.76-.13-2.81-.13H353.14Q351,236.09,348.19,236.22Z"/><path class="cls-1" d="M257.54,53.44a1.64,1.64,0,0,1,1.18.48,1.6,1.6,0,0,1,.5,1.19v.17A1.7,1.7,0,0,1,257.54,57h-4.26a.18.18,0,0,0-.2.2v2.53a5.19,5.19,0,0,1-.38,2.23,2.47,2.47,0,0,1-1.38,1.18,12.05,12.05,0,0,1-3.78.54h-.06a1.85,1.85,0,0,1-1.22-.45,2.39,2.39,0,0,1-.8-1.17,4.46,4.46,0,0,1-.2-.54,1,1,0,0,1,.12-1,1.05,1.05,0,0,1,.88-.46h2a.94.94,0,0,0,.51-.1.44.44,0,0,0,.14-.38V57.16c0-.13-.08-.2-.23-.2h-7.84s-.06,0-.07,0,0,.05,0,.07a26,26,0,0,1,1.93,1.73,1.38,1.38,0,0,1,.4,1,.85.85,0,0,1,0,.2,1.52,1.52,0,0,1-.62,1.08l-.71.51a1.55,1.55,0,0,1-.94.31l-.28,0a1.89,1.89,0,0,1-1.14-.62q-.74-.82-1.68-1.7a1.27,1.27,0,0,1-.46-1,1.25,1.25,0,0,1,.57-1.08l.54-.37a.07.07,0,0,0,0-.07s0,0,0,0h-4.23a1.7,1.7,0,0,1-1.68-1.68v-.17a1.6,1.6,0,0,1,.5-1.19,1.64,1.64,0,0,1,1.18-.48H248.7a.2.2,0,0,0,.23-.23v-.74c0-.13-.08-.2-.23-.2H236.91a1.7,1.7,0,0,1-1.68-1.68V43.75a1.7,1.7,0,0,1,1.68-1.68h6.51a.18.18,0,0,0,.2-.2v-.51a.18.18,0,0,0-.2-.2h-8.55a1.6,1.6,0,0,1-1.19-.5,1.63,1.63,0,0,1-.48-1.18V39.4a1.65,1.65,0,0,1,1.68-1.68h8.55a.18.18,0,0,0,.2-.2A1.55,1.55,0,0,1,245.15,36h1.11a1.55,1.55,0,0,1,1.54,1.53c0,.13.06.2.17.2h8.81a1.65,1.65,0,0,1,1.68,1.68v.09a1.63,1.63,0,0,1-.48,1.18,1.6,1.6,0,0,1-1.19.5H248a.18.18,0,0,0-.2.2v.51a.17.17,0,0,0,.2.2h6.91a1.7,1.7,0,0,1,1.68,1.68V50.6a1.7,1.7,0,0,1-1.68,1.68h-1.62a.18.18,0,0,0-.2.2v.74c0,.15.07.23.2.23Zm-18.13-8.55a.18.18,0,0,0-.2.2v.57c0,.15.07.23.2.23h4c.13,0,.2-.08.2-.23v-.57a.18.18,0,0,0-.2-.2Zm0,3.61a.18.18,0,0,0-.2.2v.54c0,.15.07.23.2.23h4c.13,0,.2-.08.2-.23v-.54a.18.18,0,0,0-.2-.2Zm13-3.41a.18.18,0,0,0-.2-.2H248a.17.17,0,0,0-.2.2v.57c0,.15.06.23.2.23h4.21c.13,0,.2-.08.2-.23Zm-.2,4.38c.13,0,.2-.08.2-.23v-.54a.18.18,0,0,0-.2-.2H248a.17.17,0,0,0-.2.2v.54c0,.15.06.23.2.23Z"/><path class="cls-1" d="M285.18,37.24a1.7,1.7,0,0,1,1.68,1.68V58.24a6.26,6.26,0,0,1-.4,2.49,2.82,2.82,0,0,1-1.33,1.38,10.59,10.59,0,0,1-4,.71H281a1.74,1.74,0,0,1-1.19-.45,2.38,2.38,0,0,1-.8-1.19,7.45,7.45,0,0,0-.28-.85,1,1,0,0,1-.08-.4,1,1,0,0,1,.2-.6,1,1,0,0,1,.85-.48h0q.91,0,2.16,0c.47,0,.71-.23.71-.68V54.92c0-.15-.07-.23-.2-.23h-4.77c-.13,0-.2.08-.2.23v6a1.7,1.7,0,0,1-1.68,1.68h-.91a1.7,1.7,0,0,1-1.68-1.68v-6c0-.15-.07-.23-.2-.23h-4.83a.22.22,0,0,0-.26.2,17.82,17.82,0,0,1-2.61,7,1.29,1.29,0,0,1-1.08.57h-.06A1.56,1.56,0,0,1,263,62l-.4-.31-.37-.31a1.64,1.64,0,0,1-.62-1.05,1.48,1.48,0,0,1,0-.28,1.61,1.61,0,0,1,.28-.91,10.61,10.61,0,0,0,.85-1.51,14.25,14.25,0,0,0,1-3.42q.31-1.83.41-3.24t.1-3.31V38.92A1.7,1.7,0,0,1,266,37.24ZM268.42,50.48c0,.15.07.23.2.23H273c.13,0,.2-.08.2-.23V48a.18.18,0,0,0-.2-.2h-4.26a.2.2,0,0,0-.23.23Q268.5,49.2,268.42,50.48Zm4.77-9a.18.18,0,0,0-.2-.2h-4.26c-.15,0-.23.07-.23.2v2.27c0,.13.08.2.23.2H273a.18.18,0,0,0,.2-.2Zm9.23,2.47a.18.18,0,0,0,.2-.2V41.45a.18.18,0,0,0-.2-.2h-4.77a.18.18,0,0,0-.2.2v2.27a.18.18,0,0,0,.2.2Zm-5,6.56c0,.15.07.23.2.23h4.77c.13,0,.2-.08.2-.23V48a.18.18,0,0,0-.2-.2h-4.77a.18.18,0,0,0-.2.2Z"/><path class="cls-1" d="M313.17,38.8h.4a3.5,3.5,0,0,1,2.5.94l.34.31a1.68,1.68,0,0,1,.57,1.17v.17a1.78,1.78,0,0,1-.37,1.11l-.28.43a34.59,34.59,0,0,1-2.53,3.61,27.32,27.32,0,0,1-3,3.3,1.8,1.8,0,0,1-1.28.51,2.07,2.07,0,0,1-1.34-.48l-1-.82a1.16,1.16,0,0,1-.48-1,1.27,1.27,0,0,1,.51-1.05,18.93,18.93,0,0,0,2-1.87,11.22,11.22,0,0,0,1.36-1.76.13.13,0,0,0,0-.13.12.12,0,0,0-.1-.07H296.27q-1,0-2,.09h-.14a1.51,1.51,0,0,1-1-.4,1.46,1.46,0,0,1-.48-1.11V40.25a1.41,1.41,0,0,1,.48-1.11,1.47,1.47,0,0,1,1-.37h.17a19.49,19.49,0,0,0,2,.11h15.09Q312.15,38.89,313.17,38.8Zm-12.45,7.87a1.44,1.44,0,0,1,.4-1,1.34,1.34,0,0,1,1.08-.51H304a1.65,1.65,0,0,1,1.68,1.68q0,1.42,0,2.44t-.2,2.34a16.23,16.23,0,0,1-.43,2.32,16.94,16.94,0,0,1-.77,2.16A11.09,11.09,0,0,1,303,58.2a14.49,14.49,0,0,1-1.69,1.93A15.32,15.32,0,0,1,299,62a2.16,2.16,0,0,1-1.19.37l-.2,0a2.37,2.37,0,0,1-1.34-.54l-1.51-1.22a.87.87,0,0,1-.37-.71.8.8,0,0,1,0-.2,1,1,0,0,1,.6-.8,11.5,11.5,0,0,0,1.76-1.14,9,9,0,0,0,3.14-3.85,16.6,16.6,0,0,0,.81-5.81Z"/><path class="cls-1" d="M324.93,39.83h12.84a15.23,15.23,0,0,0,1.88-.11.22.22,0,0,0,.2-.26v-.17a3.5,3.5,0,0,1,1.05-2.54,3.57,3.57,0,0,1,5.09,0,3.59,3.59,0,0,1,.1,5,3.58,3.58,0,0,1-2.34,1.18.26.26,0,0,0-.28.2c-.09.3-.19.64-.28,1q-.48,1.9-.89,3.3A29.32,29.32,0,0,1,340.9,51a20.81,20.81,0,0,1-2.1,3.71A21.3,21.3,0,0,1,334.38,59a25.29,25.29,0,0,1-5.87,3.24,2.52,2.52,0,0,1-.85.14,3.32,3.32,0,0,1-.6-.06,2.54,2.54,0,0,1-1.25-.77l-1.59-1.73a1,1,0,0,1-.26-.65,1,1,0,0,1,.06-.31,1,1,0,0,1,.71-.68,19.15,19.15,0,0,0,9.8-6.31,15.77,15.77,0,0,0,3.18-7.3c0-.15,0-.23-.2-.23H324.93q-.94,0-2.1.06h-.09a1.6,1.6,0,0,1-1.59-1.56V41.22a1.43,1.43,0,0,1,.51-1.11,1.44,1.44,0,0,1,1-.4h.14Q324.17,39.83,324.93,39.83Zm17.42.54a1.51,1.51,0,1,0-.45-1.08A1.48,1.48,0,0,0,342.35,40.37Z"/><path class="cls-1" d="M353,39.88a1.57,1.57,0,0,1,.46-1.11,1.43,1.43,0,0,1,1.11-.51h1.88a1.42,1.42,0,0,1,1.11.51,1.57,1.57,0,0,1,.46,1.11V51.56a1.56,1.56,0,0,1-.43,1.11,1.52,1.52,0,0,1-1.14.51h-1.9a1.46,1.46,0,0,1-1.14-.51,1.52,1.52,0,0,1-.43-1.08v-.09c0-.44,0-.8,0-1.08V39.88Zm13.41-.31a1.55,1.55,0,0,1,.4-1.05,1.43,1.43,0,0,1,1.11-.51h1.88a1.46,1.46,0,0,1,1.14.51,1.51,1.51,0,0,1,.45,1.11.08.08,0,0,1,0,.06V47.5a20.48,20.48,0,0,1-.89,6.68,12.19,12.19,0,0,1-2.69,4.4,16.38,16.38,0,0,1-5.57,3.61,2.34,2.34,0,0,1-.88.17,3,3,0,0,1-.57-.06,2.51,2.51,0,0,1-1.28-.74l-1.39-1.48a.91.91,0,0,1-.26-.62,2,2,0,0,1,0-.31,1,1,0,0,1,.71-.68,12.42,12.42,0,0,0,5.54-3.15A7.66,7.66,0,0,0,366,52.09a19.35,19.35,0,0,0,.48-4.9v-6Z"/><path class="cls-1" d="M385.4,39a1.6,1.6,0,0,1,.51-1.14,1.41,1.41,0,0,1,1-.4l.17,0,1.85.2a1.41,1.41,0,0,1,1.05.6,1.44,1.44,0,0,1,.28.85,1.07,1.07,0,0,1-.06.34q-.09.51-.23,1.14-.17.88-.46,2.13a.23.23,0,0,0,0,.14.15.15,0,0,0,.13.06q1-.08,1.73-.09,5.51,0,5.51,5.88a45.19,45.19,0,0,1-.38,5.88,15.6,15.6,0,0,1-1.24,4.69,4.53,4.53,0,0,1-1.95,2.13,6.55,6.55,0,0,1-3.08.65,17,17,0,0,1-1.85-.11,2.18,2.18,0,0,1-1.26-.65,2.3,2.3,0,0,1-.64-1.31l-.23-1.28v-.2a1.1,1.1,0,0,1,.34-.8,1.11,1.11,0,0,1,.77-.31,1.08,1.08,0,0,1,.25,0,11.93,11.93,0,0,0,1.9.23,2,2,0,0,0,1.93-1.11,10.11,10.11,0,0,0,.79-3.1,32,32,0,0,0,.28-4.29q0-1.48-.6-1.92a3.63,3.63,0,0,0-2.07-.44l-1.14.06a.25.25,0,0,0-.26.23q-.94,3.55-2.22,7.26a50.42,50.42,0,0,1-2.67,6.44,1.76,1.76,0,0,1-1,.85,1.83,1.83,0,0,1-.62.11,2,2,0,0,1-.74-.14l-1.45-.57a1.28,1.28,0,0,1-.77-.85,1.2,1.2,0,0,1-.09-.43,1.31,1.31,0,0,1,.23-.74,44.08,44.08,0,0,0,4.69-11.42.09.09,0,0,0,0-.11.16.16,0,0,0-.11-.06l-1.62.23-1.87.26L380,48a1.58,1.58,0,0,1-1-.34,1.53,1.53,0,0,1-.57-1.08l-.11-1.36a1.37,1.37,0,0,1,.4-1.12,1.62,1.62,0,0,1,1.14-.5h1.68q.71,0,3.1-.2a.23.23,0,0,0,.25-.23A38.61,38.61,0,0,0,385.4,39Zm11.85,4.46a1.43,1.43,0,0,1-.2-.74,1.76,1.76,0,0,1,.06-.43,1.2,1.2,0,0,1,.77-.85L399,41a1.8,1.8,0,0,1,.77-.17,2.28,2.28,0,0,1,.6.08,1.74,1.74,0,0,1,1.05.88,54.49,54.49,0,0,1,3.55,7.93,1.84,1.84,0,0,1,.11.63,1.7,1.7,0,0,1-.17.71,1.87,1.87,0,0,1-.94,1l-1.39.65a1.45,1.45,0,0,1-.6.14,1.26,1.26,0,0,1-.57-.14,1.36,1.36,0,0,1-.77-.91A33.68,33.68,0,0,0,397.25,43.44Z"/><path class="cls-1" d="M411.46,44.32a1.56,1.56,0,0,1,.57-1.11,1.43,1.43,0,0,1,1-.37l.23,0,1.36.17a1.58,1.58,0,0,1,1.34,1.56,2,2,0,0,1,0,.31q-.45,2.3-.65,4.18a.12.12,0,0,0,.06.1.08.08,0,0,0,.11,0A14.66,14.66,0,0,1,423.19,47a10.75,10.75,0,0,1,3.58.57,7.22,7.22,0,0,1,2.64,1.55,7.09,7.09,0,0,1,1.58,2.2,6.11,6.11,0,0,1,.55,2.56,9,9,0,0,1-.45,2.93,7.12,7.12,0,0,1-1.53,2.51,8.38,8.38,0,0,1-2.77,1.95,15.88,15.88,0,0,1-4.28,1.14,30.11,30.11,0,0,1-3.84.23q-1,0-2.07-.06a2.21,2.21,0,0,1-1.33-.51,2.31,2.31,0,0,1-.8-1.19L414,59.49a1,1,0,0,1-.06-.34.9.9,0,0,1,.28-.65,1.05,1.05,0,0,1,.82-.4h.14a29.18,29.18,0,0,0,3.27.2,13.71,13.71,0,0,0,5.14-.82q3-1.16,3-3.69a2.45,2.45,0,0,0-1.08-2,4.52,4.52,0,0,0-2.79-.81,11,11,0,0,0-4.22.81,8.08,8.08,0,0,0-3.22,2.32l-.31.4a2.92,2.92,0,0,1-1.17.88,2,2,0,0,1-1.34.14l-.74-.2a1.78,1.78,0,0,1-1.08-.77,1.81,1.81,0,0,1-.28-1v-.31Q411.12,48.84,411.46,44.32Zm4.69-2.53a1.67,1.67,0,0,1-1.05-.77,1.64,1.64,0,0,1-.23-.82,1.75,1.75,0,0,1,.06-.43l.25-.94a1.57,1.57,0,0,1,.77-1,1.69,1.69,0,0,1,.85-.23,1.76,1.76,0,0,1,.43.06q3.55.85,8.47,1.59a1.43,1.43,0,0,1,1.05.63,1.51,1.51,0,0,1,.25.82,2.86,2.86,0,0,1,0,.4l-.26,1.05a1.77,1.77,0,0,1-.77,1.08,1.67,1.67,0,0,1-1,.31,1.53,1.53,0,0,1-.31,0Q420.75,42.81,416.14,41.79Z"/><path class="cls-1" d="M272.26,78.31a1.55,1.55,0,0,1,1.56,1.56,1.55,1.55,0,0,1-.45,1.12,1.49,1.49,0,0,1-1.11.47H270a.09.09,0,0,0-.08.06.12.12,0,0,0,0,.11l0,.06a1.06,1.06,0,0,1,.23.63,1.2,1.2,0,0,1-.11.48,1.29,1.29,0,0,1-.88.74l-1.82.48a0,0,0,1,0,0,.06h3.64a1.65,1.65,0,0,1,1.68,1.68V99.94a5.89,5.89,0,0,1-.33,2.2,2.36,2.36,0,0,1-1.18,1.21,7.55,7.55,0,0,1-3.21.63h-.06a1.85,1.85,0,0,1-1.22-.45,2.23,2.23,0,0,1-.77-1.16q-.11-.4-.26-.8a.29.29,0,0,0-.28-.2h-6.68a.1.1,0,0,0-.11.11.85.85,0,0,1-.26.63.82.82,0,0,1-.6.26h-1.25a1.7,1.7,0,0,1-1.68-1.68v-6A1.7,1.7,0,0,1,256.43,93h7.84a1.7,1.7,0,0,1,1.68,1.68v5.48a.21.21,0,0,0,.2.23h2a.8.8,0,0,0,.47-.1.5.5,0,0,0,.13-.41V92.35a.2.2,0,0,0-.23-.23h-5.6a1.65,1.65,0,0,1-1.68-1.68V85.76a1.65,1.65,0,0,1,1.68-1.68h3.89a.11.11,0,0,0,.11-.07.15.15,0,0,0,0-.13,16.81,16.81,0,0,0-1.33-2.24.43.43,0,0,0-.34-.17h-.71a.38.38,0,0,0-.34.17q-.37.45-.77.91a1.87,1.87,0,0,1-1.22.63,1.4,1.4,0,0,1-.28,0,2.25,2.25,0,0,1-1.11-.28,18.45,18.45,0,0,0-1.85-.91.34.34,0,0,1-.17-.24.27.27,0,0,1,.11-.27v0h-2.56a.12.12,0,0,0-.11.06.12.12,0,0,0,0,.11,1.15,1.15,0,0,1,.17.6,1.24,1.24,0,0,1-.12.51,1.28,1.28,0,0,1-.85.74l-.51.14a2.22,2.22,0,0,1-.48.06,1.82,1.82,0,0,1-.82-.2,2,2,0,0,1-1-.94l-.45-.8c-.08-.11-.15-.11-.23,0q-.46.57-.94,1.11a1.66,1.66,0,0,1-1.19.6h-.17a1.89,1.89,0,0,1-1.14-.37q-.31-.23-.65-.43a1.28,1.28,0,0,1-.2-2A16.25,16.25,0,0,0,250,77.57a2.34,2.34,0,0,1,1-.94,1.81,1.81,0,0,1,.82-.2,1.58,1.58,0,0,1,.51.09l1.22.31a1,1,0,0,1,.61.54.93.93,0,0,1,0,.82c0,.08,0,.11.09.11h4A1.7,1.7,0,0,1,260,80v.31a.1.1,0,0,0,0,.09s.06,0,.1,0a13.49,13.49,0,0,0,2-2.76,2.33,2.33,0,0,1,1-1,1.85,1.85,0,0,1,.88-.23,1.91,1.91,0,0,1,.46.06l1.22.31a1,1,0,0,1,.67.54.88.88,0,0,1,0,.85c0,.09,0,.14.09.14Zm-14,5.77a1.63,1.63,0,0,1,1.18.48,1.6,1.6,0,0,1,.5,1.19v4.69a1.6,1.6,0,0,1-.5,1.19,1.63,1.63,0,0,1-1.18.48h-5.6a.2.2,0,0,0-.23.23v9.95a1.65,1.65,0,0,1-1.68,1.68h-.45a1.64,1.64,0,0,1-1.18-.48,1.6,1.6,0,0,1-.5-1.19V85.76a1.6,1.6,0,0,1,.5-1.19,1.63,1.63,0,0,1,1.18-.48Zm-2.13,2.56a.18.18,0,0,0-.2-.2h-3.27c-.15,0-.23.07-.23.2v.17c0,.13.08.2.23.2h3.27a.18.18,0,0,0,.2-.2Zm-3.69,3a.2.2,0,0,0,.23.23h3.27c.13,0,.2-.08.2-.23v-.17c0-.15-.07-.23-.2-.23h-3.27a.2.2,0,0,0-.23.23Zm9.83,5.91a.2.2,0,0,0-.23-.23h-3.27a.2.2,0,0,0-.23.23v.37a.2.2,0,0,0,.23.23H262a.2.2,0,0,0,.23-.23Zm-3.72,3.41c0,.13.08.2.23.2H262c.15,0,.23-.07.23-.2v-.43c0-.13-.08-.2-.23-.2h-3.27c-.15,0-.23.07-.23.2ZM268.48,87c.15,0,.23-.07.23-.2v-.17c0-.13-.08-.2-.23-.2h-3.3a.18.18,0,0,0-.2.2v.17a.18.18,0,0,0,.2.2ZM265,89.59c0,.15.07.23.2.23h3.3a.2.2,0,0,0,.23-.23v-.17a.2.2,0,0,0-.23-.23h-3.3c-.13,0-.2.08-.2.23Z"/><path class="cls-1" d="M301.13,95.53a1.7,1.7,0,0,1,1.68,1.68v.57a1.7,1.7,0,0,1-1.68,1.68H291.8a.18.18,0,0,0-.2.2v2.64a1.6,1.6,0,0,1-.5,1.19,1.64,1.64,0,0,1-1.18.48h-1a1.64,1.64,0,0,1-1.18-.48,1.6,1.6,0,0,1-.5-1.19V99.65a.18.18,0,0,0-.2-.2h-9.15a1.7,1.7,0,0,1-1.68-1.68v-.57a1.7,1.7,0,0,1,1.68-1.68H287a.18.18,0,0,0,.2-.2v-1c0-.15-.07-.23-.2-.23h-6.65a1.63,1.63,0,0,1-1.18-.48,1.59,1.59,0,0,1-.5-1.19V83.09a1.6,1.6,0,0,1,.5-1.19,1.63,1.63,0,0,1,1.18-.48h.43a.12.12,0,0,0,.1-.07.1.1,0,0,0,0-.13,17.24,17.24,0,0,0-1.14-1.82,1.27,1.27,0,0,1-.2-1.14,1.29,1.29,0,0,1,.74-.88l.6-.28a2.26,2.26,0,0,1,.91-.2,1.61,1.61,0,0,1,.51.08,1.9,1.9,0,0,1,1.19.74q.54.71,1,1.34a1.33,1.33,0,0,1,.26.77,1.29,1.29,0,0,1-.08.45,1.45,1.45,0,0,1-.82.94l-.2.09a.1.1,0,0,0,0,.07s0,0,.06,0h4.06a.14.14,0,0,0,.13-.07.13.13,0,0,0,0-.13q-.46-1-1.17-2.16a1.26,1.26,0,0,1-.23-.71,1.47,1.47,0,0,1,.88-1.31l.65-.23a2,2,0,0,1,.8-.17,2.62,2.62,0,0,1,.63.09,2,2,0,0,1,1.11.82,17.39,17.39,0,0,1,.94,1.48,1.35,1.35,0,0,1,.2.68,1.59,1.59,0,0,1-1,1.42l-.51.2s0,0,0,0,0,0,0,0h3.55a.37.37,0,0,0,.34-.2,24.32,24.32,0,0,0,1.82-3.32,1.89,1.89,0,0,1,.91-1,1.82,1.82,0,0,1,.82-.2,2.39,2.39,0,0,1,.51.06l1.51.46a1.2,1.2,0,0,1,.82.74,1.23,1.23,0,0,1,.09.43,1.13,1.13,0,0,1-.23.68l-1.48,2.16a.12.12,0,0,0,0,.11.09.09,0,0,0,.08.06A1.6,1.6,0,0,1,300.56,83v9.38a1.65,1.65,0,0,1-1.68,1.68H291.8c-.13,0-.2.08-.2.23v1a.18.18,0,0,0,.2.2ZM287,86.15c.13,0,.2-.08.2-.23V85c0-.15-.07-.23-.2-.23h-4c-.13,0-.2.08-.2.23v.91c0,.15.07.23.2.23Zm-4.18,4.29a.18.18,0,0,0,.2.2h4a.18.18,0,0,0,.2-.2v-.91c0-.15-.07-.23-.2-.23h-4c-.13,0-.2.08-.2.23ZM296,86.15a.2.2,0,0,0,.23-.23V85a.2.2,0,0,0-.23-.23H291.8c-.13,0-.2.08-.2.23v.91c0,.15.07.23.2.23Zm0,4.49c.15,0,.23-.07.23-.2v-.91a.2.2,0,0,0-.23-.23H291.8c-.13,0-.2.08-.2.23v.91a.18.18,0,0,0,.2.2Z"/><path class="cls-1" d="M327.72,79.16h.4a3.5,3.5,0,0,1,2.5.94l.34.31a1.68,1.68,0,0,1,.57,1.17v.17a1.78,1.78,0,0,1-.37,1.11l-.28.43a34.77,34.77,0,0,1-2.53,3.61,27.4,27.4,0,0,1-3,3.3,1.8,1.8,0,0,1-1.28.51,2.07,2.07,0,0,1-1.34-.48l-1-.82a1.16,1.16,0,0,1-.48-1,1.27,1.27,0,0,1,.51-1.05,18.84,18.84,0,0,0,2-1.87,11.18,11.18,0,0,0,1.36-1.76.13.13,0,0,0,0-.13.12.12,0,0,0-.1-.07H310.81q-1,0-2,.09h-.14a1.51,1.51,0,0,1-1-.4,1.46,1.46,0,0,1-.48-1.11V80.61a1.41,1.41,0,0,1,.48-1.11,1.47,1.47,0,0,1,1-.37h.17a19.47,19.47,0,0,0,2,.11H325.9Q326.7,79.25,327.72,79.16ZM315.27,87a1.44,1.44,0,0,1,.4-1,1.34,1.34,0,0,1,1.08-.51h1.76a1.65,1.65,0,0,1,1.68,1.68q0,1.42,0,2.44t-.2,2.34a16.23,16.23,0,0,1-.43,2.32,16.82,16.82,0,0,1-.77,2.16,11.09,11.09,0,0,1-1.18,2.12,14.5,14.5,0,0,1-1.69,1.93,15.36,15.36,0,0,1-2.32,1.83,2.15,2.15,0,0,1-1.19.37l-.2,0a2.37,2.37,0,0,1-1.34-.54l-1.51-1.22a.86.86,0,0,1-.37-.71.81.81,0,0,1,0-.2,1,1,0,0,1,.6-.8,11.5,11.5,0,0,0,1.76-1.14,9,9,0,0,0,3.14-3.85,16.6,16.6,0,0,0,.81-5.81Z"/><path class="cls-1" d="M354.51,81.3l.71,0a4.5,4.5,0,0,1,2.36.6l.74.45a1.82,1.82,0,0,1,.77,1.05,2.33,2.33,0,0,1,.06.51,1.87,1.87,0,0,1-.17.8,8.39,8.39,0,0,0-.37.91,29.32,29.32,0,0,1-5,9.55,25.6,25.6,0,0,1-4.43,4.29,30.51,30.51,0,0,1-5.85,3.41,2.37,2.37,0,0,1-1,.23l-.43,0a2.5,2.5,0,0,1-1.33-.62l-1.68-1.51a.86.86,0,0,1-.34-.68,1,1,0,0,1,0-.23,1,1,0,0,1,.65-.74,24.76,24.76,0,0,0,5.94-2.86,23.12,23.12,0,0,0,4.23-3.76,17,17,0,0,0,2.36-3.48,16.2,16.2,0,0,0,1.45-3.59c0-.13,0-.2-.17-.2h-6.82a.43.43,0,0,0-.34.17,36.84,36.84,0,0,1-5.85,5.8,2.29,2.29,0,0,1-2.7,0L336,90.36a1.06,1.06,0,0,1-.48-.91,1.15,1.15,0,0,1,.54-1,26.24,26.24,0,0,0,2.71-2.15A21.8,21.8,0,0,0,341,84.05q.94-1.14,1.51-1.93t1.25-1.85a11.81,11.81,0,0,0,1-1.9,1.79,1.79,0,0,1,.88-.94,1.58,1.58,0,0,1,1.28-.11l2,.65a1.2,1.2,0,0,1,.8.8,1.23,1.23,0,0,1,.09.43,1.24,1.24,0,0,1-.2.68l-.79,1.31a.13.13,0,0,0,0,.13.12.12,0,0,0,.1.07h4.49A9.51,9.51,0,0,0,354.51,81.3Z"/><path class="cls-1" d="M383.18,93.71a2,2,0,0,1-1.22.65l-.31,0a2,2,0,0,1-1.08-.31l-1-.57a1.14,1.14,0,0,1-.6-.94.52.52,0,0,1,0-.17,1.24,1.24,0,0,1,.37-.91,22.2,22.2,0,0,0,3-4,.1.1,0,0,0,0-.1.13.13,0,0,0-.11,0l-1.59.33-2.78.55-3,.57a.26.26,0,0,0-.23.26v7a3.17,3.17,0,0,0,.23,1.38,1.6,1.6,0,0,0,1,.7,7.17,7.17,0,0,0,2.23.26,46.45,46.45,0,0,0,7.61-.71,1.08,1.08,0,0,1,.26,0A1.35,1.35,0,0,1,387.33,99l-.06,1.42a1.79,1.79,0,0,1-.5,1.25,1.91,1.91,0,0,1-1.21.63,70.68,70.68,0,0,1-7.3.43,26.39,26.39,0,0,1-3.67-.21,9.92,9.92,0,0,1-2.39-.6,3,3,0,0,1-1.39-1.11,4.19,4.19,0,0,1-.64-1.52,10.8,10.8,0,0,1-.16-2V90c0-.13-.07-.19-.2-.17l-4,.82a2,2,0,0,1-.34,0,1.6,1.6,0,0,1-.88-.25,1.55,1.55,0,0,1-.71-1.05l-.23-1.31a2,2,0,0,1,0-.31,1.61,1.61,0,0,1,.28-.91,1.68,1.68,0,0,1,1.08-.68q2-.28,4.77-.79a.22.22,0,0,0,.2-.26V81.72l-.08-2.19a1.55,1.55,0,0,1,.4-1.05,1.47,1.47,0,0,1,1.11-.48h1.9a1.38,1.38,0,0,1,1.08.48,1.51,1.51,0,0,1,.4,1v.14q-.11,1.22-.11,2.07v2.59c0,.13.08.19.23.17q5.88-1.11,8.44-1.7l.8-.2a4.07,4.07,0,0,1,1.11-.17,2.83,2.83,0,0,1,1.79.6l.77.6a1.87,1.87,0,0,1,.68,1.14,2.69,2.69,0,0,1,0,.37,1.78,1.78,0,0,1-.28,1l-.2.37a41,41,0,0,1-2.19,3.64A38,38,0,0,1,383.18,93.71Z"/><path class="cls-1" d="M411.6,79.56l.68,0a3.83,3.83,0,0,1,2.33.71l.17.14a1.71,1.71,0,0,1,.71,1.11,2.87,2.87,0,0,1,0,.4,1.74,1.74,0,0,1-.26.91l-.34.68A42.24,42.24,0,0,1,410.66,91a.21.21,0,0,0,.06.31A71.46,71.46,0,0,1,417.37,98a1.59,1.59,0,0,1,.43,1.08.32.32,0,0,1,0,.14,1.54,1.54,0,0,1-.57,1.17l-1.51,1.34a1.55,1.55,0,0,1-1,.37l-.2,0a1.49,1.49,0,0,1-1.08-.6,59.52,59.52,0,0,0-5.8-6.48.21.21,0,0,0-.31,0,39.32,39.32,0,0,1-9,7,2.17,2.17,0,0,1-1,.25l-.37,0a2.12,2.12,0,0,1-1.25-.65l-1.36-1.39a1.1,1.1,0,0,1-.31-.77,1.27,1.27,0,0,1,0-.26,1.2,1.2,0,0,1,.68-.82,30.47,30.47,0,0,0,5.73-3.41A31.22,31.22,0,0,0,405,90.79a24.62,24.62,0,0,0,2.44-3.25A15.61,15.61,0,0,0,409,84.42a.15.15,0,0,0,0-.14.15.15,0,0,0-.13-.06H400q-.79,0-2,.08h-.14a1.55,1.55,0,0,1-1.53-1.53V81.12a1.43,1.43,0,0,1,.51-1.11,1.49,1.49,0,0,1,1.05-.43H398q1.22.09,2,.09h9.72A14.81,14.81,0,0,0,411.6,79.56Z"/><path class="cls-3" d="M124.5,501.61a15,15,0,0,1-8.81-2.8,1.92,1.92,0,0,1-.84-1.49.63.63,0,0,1,0-.19,2.19,2.19,0,0,1,.58-1.49l.42-.5a2.09,2.09,0,0,1,1.53-.81h.27a2.76,2.76,0,0,1,1.46.42,10.12,10.12,0,0,0,5.59,1.84,5.65,5.65,0,0,0,3.41-.88,2.88,2.88,0,0,0,1.19-2.45,2.52,2.52,0,0,0-.92-2.13,15.76,15.76,0,0,0-3.14-1.67l-.27-.12L121,487.7a11.32,11.32,0,0,1-4.2-3,7.09,7.09,0,0,1-1.67-4.83,7.53,7.53,0,0,1,2.84-6,10.78,10.78,0,0,1,7.2-2.4,12.71,12.71,0,0,1,7.36,2.26,1.92,1.92,0,0,1,.88,1.53v.19a2.19,2.19,0,0,1-.57,1.49l-.08.12a2.21,2.21,0,0,1-1.53.84,2,2,0,0,1-.38,0,2.68,2.68,0,0,1-1.38-.38,8.68,8.68,0,0,0-4.29-1.11,5.25,5.25,0,0,0-3.06.8,2.6,2.6,0,0,0-1.15,2.26,2.5,2.5,0,0,0,.31,1.26,3,3,0,0,0,1,1,11.48,11.48,0,0,0,1.26.73q.56.27,1.71.69l.27.12,3.79,1.61a10.72,10.72,0,0,1,4.37,3,7.5,7.5,0,0,1,1.5,4.85,8,8,0,0,1-2.89,6.25A11.43,11.43,0,0,1,124.5,501.61Z"/><path class="cls-3" d="M148.95,501.61a15,15,0,0,1-8.81-2.8,1.92,1.92,0,0,1-.84-1.49.61.61,0,0,1,0-.19,2.19,2.19,0,0,1,.58-1.49l.42-.5a2.08,2.08,0,0,1,1.53-.81h.27a2.76,2.76,0,0,1,1.46.42,10.12,10.12,0,0,0,5.59,1.84,5.65,5.65,0,0,0,3.41-.88,2.88,2.88,0,0,0,1.19-2.45,2.52,2.52,0,0,0-.92-2.13,15.73,15.73,0,0,0-3.14-1.67l-.27-.12-3.91-1.65a11.33,11.33,0,0,1-4.2-3,7.09,7.09,0,0,1-1.67-4.83,7.53,7.53,0,0,1,2.84-6,10.78,10.78,0,0,1,7.2-2.4,12.71,12.71,0,0,1,7.36,2.26,1.93,1.93,0,0,1,.88,1.53v.19a2.19,2.19,0,0,1-.58,1.49l-.08.12a2.2,2.2,0,0,1-1.53.84,2,2,0,0,1-.38,0,2.67,2.67,0,0,1-1.38-.38,8.68,8.68,0,0,0-4.29-1.11,5.26,5.26,0,0,0-3.07.8,2.6,2.6,0,0,0-1.15,2.26,2.5,2.5,0,0,0,.31,1.26,3,3,0,0,0,1,1,11.47,11.47,0,0,0,1.26.73q.56.27,1.7.69l.27.12,3.79,1.61a10.72,10.72,0,0,1,4.37,3,7.5,7.5,0,0,1,1.5,4.85,8,8,0,0,1-2.89,6.25A11.43,11.43,0,0,1,148.95,501.61Z"/><path class="cls-3" d="M167,501.08a2.29,2.29,0,0,1-2.26-2.26V474.29A2.29,2.29,0,0,1,167,472h1.3a2.29,2.29,0,0,1,2.26,2.26v21.65a.24.24,0,0,0,.27.27h9.24a2.29,2.29,0,0,1,2.26,2.26v.34a2.29,2.29,0,0,1-2.26,2.26Z"/><path class="cls-3" d="M194.75,483a2.09,2.09,0,0,1,1.5.61,2,2,0,0,1,.63,1.52v9.43a1.12,1.12,0,0,0,.11.51,5.62,5.62,0,0,0,2.6,2.33,11.66,11.66,0,0,0,4.23.85q2.17.11,5.42.11,1.19,0,2.53,0,5,0,9-.29h.11a1.24,1.24,0,0,1,1,.54,1.37,1.37,0,0,1,.25.8,1.72,1.72,0,0,1-.07.47,9.7,9.7,0,0,0-.36,1.19,3.16,3.16,0,0,1-1,1.5,2.67,2.67,0,0,1-1.63.63q-4.48.18-8.42.18-3.72,0-6.94-.14a16.28,16.28,0,0,1-5.29-1,9,9,0,0,1-3.67-2.76c-.12-.14-.24-.16-.36,0q-1.73,1.48-3.4,2.78a1.63,1.63,0,0,1-1,.36,2.68,2.68,0,0,1-.43,0,1.74,1.74,0,0,1-1.16-1l-.65-1.48a2.21,2.21,0,0,1-.22-.94,2.41,2.41,0,0,1,1.16-2.06q1.59-.9,2.78-1.73a.49.49,0,0,0,.22-.43v-6.69a.22.22,0,0,0-.25-.25h-2a2,2,0,0,1-1.52-.63,2.08,2.08,0,0,1-.62-1.5v-.69a2.1,2.1,0,0,1,2.13-2.13Zm1.92-9.54a1.87,1.87,0,0,1,.61,1.41,2.23,2.23,0,0,1-.69,1.63l-.94.9a1.78,1.78,0,0,1-1.3.54h-.14a2.27,2.27,0,0,1-1.45-.69,34.45,34.45,0,0,0-3.25-3,1.85,1.85,0,0,1-.69-1.48,1.72,1.72,0,0,1,.58-1.3l.58-.58a2.69,2.69,0,0,1,1.63-.69.71.71,0,0,1,.22,0,2.46,2.46,0,0,1,1.48.51A40.85,40.85,0,0,1,196.67,473.42Zm8.28,18.47a.22.22,0,0,0-.25.25V495a2.16,2.16,0,0,1-2.13,2.13h-.76a2,2,0,0,1-1.52-.63,2.08,2.08,0,0,1-.61-1.5V480.07a2.1,2.1,0,0,1,2.13-2.13h4.52s0,0,0-.05a.13.13,0,0,0,0-.09l-1.45-.61a1.22,1.22,0,0,1-.76-1,1,1,0,0,1,0-.25,1.2,1.2,0,0,1,.47-.94l1.41-1.12a.17.17,0,0,0,0-.13.08.08,0,0,0-.09-.05h-3.72a1.89,1.89,0,0,1-1.41-.6,2,2,0,0,1,0-2.82,1.89,1.89,0,0,1,1.41-.6h14.31a.77.77,0,0,0,.25,0,3.65,3.65,0,0,1,.51,0,1.82,1.82,0,0,1,1.16.43l.83.65a1.71,1.71,0,0,1,.65,1.37,1.62,1.62,0,0,1-.58,1.27,50.71,50.71,0,0,1-4.48,3.47.1.1,0,0,0-.05.13.17.17,0,0,0,.09.13q.8.36,1.45.72a1,1,0,0,0,.51.14h2a2.1,2.1,0,0,1,2.13,2.13v12.58a6.9,6.9,0,0,1-.34,2.47,2.81,2.81,0,0,1-1.32,1.39,7.41,7.41,0,0,1-2.86.69h-.14a2.25,2.25,0,0,1-1.48-.54,2.81,2.81,0,0,1-1-1.48.31.31,0,0,1,0-.14,1.19,1.19,0,0,1-.11-.47,1.44,1.44,0,0,1,.29-.87,1.35,1.35,0,0,1,1.16-.61h.22a.42.42,0,0,0,.51-.51v-.43a.22.22,0,0,0-.25-.25H212.9c-.19,0-.29.08-.29.25v2.67a2.16,2.16,0,0,1-2.13,2.13H210a2,2,0,0,1-1.52-.63,2.08,2.08,0,0,1-.62-1.5v-2.67c0-.17-.1-.25-.29-.25Zm2.89-9.9c0-.17-.1-.25-.29-.25h-2.6a.22.22,0,0,0-.25.25v.76c0,.19.08.29.25.29h2.6a.25.25,0,0,0,.29-.29Zm-3.14,5.82a.22.22,0,0,0,.25.25h2.6c.19,0,.29-.08.29-.25V487a.26.26,0,0,0-.29-.29h-2.6c-.17,0-.25.1-.25.29Zm7.23-14a.08.08,0,0,0,0-.09.08.08,0,0,0-.09-.05H207a.06.06,0,0,0-.05,0s0,0,0,0q1,.36,3,1.16a.47.47,0,0,0,.47,0Q211.27,474.36,211.92,473.85Zm3.9,8.13a.22.22,0,0,0-.25-.25H212.9c-.19,0-.29.08-.29.25v.76a.26.26,0,0,0,.29.29h2.67c.17,0,.25-.1.25-.29Zm-3.22,5.82c0,.17.1.25.29.25h2.67a.22.22,0,0,0,.25-.25V487c0-.19-.09-.29-.25-.29H212.9a.26.26,0,0,0-.29.29Z"/><path class="cls-3" d="M231.51,470.67a2.39,2.39,0,0,1,1.19-1.19,2.22,2.22,0,0,1,.94-.22,2.51,2.51,0,0,1,.72.11l.94.29a2,2,0,0,1,1.19,1,1.85,1.85,0,0,1,0,1.59q-1.12,2.46-2.31,4.7a.89.89,0,0,0-.14.51v24a2,2,0,0,1-.63,1.52,2.08,2.08,0,0,1-1.5.61h-.83a2.1,2.1,0,0,1-2.13-2.13V485.2a.12.12,0,0,0-.07-.11.07.07,0,0,0-.11,0l-.9,1a1.24,1.24,0,0,1-.94.43,1.22,1.22,0,0,1-.29,0,1.42,1.42,0,0,1-1-.83q-.4-.9-.87-1.73a3,3,0,0,1-.33-1.37,2.08,2.08,0,0,1,0-.4,2.88,2.88,0,0,1,.72-1.63A37.73,37.73,0,0,0,231.51,470.67Zm4.37,6.76a2,2,0,0,1,.63-1.52,2.08,2.08,0,0,1,1.5-.62h19.41a2.1,2.1,0,0,1,2.13,2.13v0a2.08,2.08,0,0,1-.61,1.5,2,2,0,0,1-1.52.63H238a2.16,2.16,0,0,1-2.13-2.13Zm4.34,26.31a2.1,2.1,0,0,1-2.13-2.13v-7.92a2.08,2.08,0,0,1,.62-1.5,2,2,0,0,1,1.52-.63h15.4a2,2,0,0,1,1.52.63,2.08,2.08,0,0,1,.62,1.5v7.81a2.1,2.1,0,0,1-2.13,2.13h-2.24a1,1,0,0,1-1-1,.13.13,0,0,0-.15-.14h-8.82a.13.13,0,0,0-.14.14,1.1,1.1,0,0,1-.34.83,1.14,1.14,0,0,1-.81.32Zm14.86-23a2,2,0,0,1,1.45.62,2.05,2.05,0,0,1,0,2.93,2,2,0,0,1-1.45.62H240.84a2.1,2.1,0,0,1-2.06-2.08,2,2,0,0,1,.61-1.46,2,2,0,0,1,1.45-.62Zm-14.24,9.54a2,2,0,0,1-1.45-.61,2,2,0,0,1-.61-1.48,2,2,0,0,1,.61-1.46,2,2,0,0,1,1.45-.6h14a2.06,2.06,0,0,1,1.48.6,2,2,0,0,1,.61,1.46,2.1,2.1,0,0,1-2.1,2.1Zm13.55-20.42a2,2,0,0,1,1.46.61,2.09,2.09,0,0,1,0,2.93,2,2,0,0,1-1.46.62H241.53a2,2,0,0,1-1.48-.62,2,2,0,0,1,0-2.93,2,2,0,0,1,1.48-.61ZM252.34,496a.26.26,0,0,0-.29-.29h-8.57c-.17,0-.25.1-.25.29v2c0,.19.08.29.25.29H252a.26.26,0,0,0,.29-.29Z"/><path class="cls-3" d="M265.56,480a2.51,2.51,0,0,1-.4,0,1.77,1.77,0,0,1-1.12-.4,1.82,1.82,0,0,1-.76-1.37l-.18-1.77v-.22a1.93,1.93,0,0,1,.51-1.3,2,2,0,0,1,1.45-.69,16.16,16.16,0,0,0,1.63-.11l6.09-.51q5.62-.47,9.6-.83,3.69-.29,8.53-.54H291a1.92,1.92,0,0,1,1.41.58,2.16,2.16,0,0,1,.65,1.48v1.45a2.09,2.09,0,0,1-.61,1.5,2.16,2.16,0,0,1-1.52.67,30.47,30.47,0,0,0-4.88.4,8.89,8.89,0,0,0-5.19,3.47,9.66,9.66,0,0,0-2.19,6,6.18,6.18,0,0,0,2.49,5.26,14.43,14.43,0,0,0,6.8,2.44,1.68,1.68,0,0,1,1.23.76,1.6,1.6,0,0,1,.29.9,1.52,1.52,0,0,1-.11.54l-.69,2.13a2.78,2.78,0,0,1-1.08,1.41,2.35,2.35,0,0,1-1.3.4,2.72,2.72,0,0,1-.43,0,20.84,20.84,0,0,1-6.58-2.19,12.89,12.89,0,0,1-4.68-4.28,10.91,10.91,0,0,1-1.79-6.14,13.78,13.78,0,0,1,1.34-6.09,14.86,14.86,0,0,1,3.11-4.43s0-.06,0-.11,0-.06-.07,0Q270.19,479.16,265.56,480Zm20.13,3.79a1.65,1.65,0,0,1-.22-.79,1.35,1.35,0,0,1,.07-.43,1.31,1.31,0,0,1,.79-.9,1.93,1.93,0,0,1,.8-.18,2,2,0,0,1,.65.11,1.93,1.93,0,0,1,1.12.87q.58.94,1.12,1.92a1.68,1.68,0,0,1,.18.76,2.39,2.39,0,0,1-.07.58,1.64,1.64,0,0,1-.94,1,2,2,0,0,1-.72.14,2,2,0,0,1-.65-.11,1.92,1.92,0,0,1-1-.94A21.2,21.2,0,0,0,285.7,483.83Zm4.27-1.7a1.52,1.52,0,0,1-.25-.83,1.25,1.25,0,0,1,.07-.4,1.41,1.41,0,0,1,.79-.94,2,2,0,0,1,.83-.18,2.44,2.44,0,0,1,.58.07,2.12,2.12,0,0,1,1.16.83q.61.9,1.16,1.81a1.65,1.65,0,0,1,.25.83,1.81,1.81,0,0,1-.07.51,1.64,1.64,0,0,1-.87,1,1.9,1.9,0,0,1-.8.18,1.74,1.74,0,0,1-.61-.11,1.75,1.75,0,0,1-1.09-.9C290.76,483.36,290.37,482.73,290,482.13Z"/><path class="cls-3" d="M332.54,485.16a2.16,2.16,0,0,1-2.13,2.13h-3.47a.31.31,0,0,0-.33.25,23.78,23.78,0,0,1-3.87,7.38c-.12.14-.1.25.07.32q3.8,1.56,6.51,3a1.45,1.45,0,0,1,.83,1.16v.25a1.53,1.53,0,0,1-.47,1.12l-1.37,1.37a2.45,2.45,0,0,1-1.59.72,1.75,1.75,0,0,1-.33,0,2.65,2.65,0,0,1-1.41-.4,70.36,70.36,0,0,0-6.65-3.32.47.47,0,0,0-.47,0q-4.63,2.89-12.62,4.23a2.73,2.73,0,0,1-.47,0,2.68,2.68,0,0,1-1.27-.33,3.37,3.37,0,0,1-1.34-1.26q-.36-.65-.79-1.3a1.14,1.14,0,0,1-.07-1.23,1.06,1.06,0,0,1,.94-.69,36.44,36.44,0,0,0,9.36-2.06.06.06,0,0,0,.07-.07.12.12,0,0,0-.07-.11q-1.81-.69-2.82-1c-.1,0-.16,0-.18.07a1.33,1.33,0,0,1-.63.54,1.06,1.06,0,0,1-.81,0l-2.71-.69a1.52,1.52,0,0,1-1-1,1.36,1.36,0,0,1-.14-.62,1.65,1.65,0,0,1,.22-.79q1.55-2.67,3.07-5.49a.13.13,0,0,0,0-.14.19.19,0,0,0-.16-.07H301.5a2.16,2.16,0,0,1-2.13-2.13v-.83a2.16,2.16,0,0,1,2.13-2.13H309a.41.41,0,0,0,.4-.22l1.41-3a2.52,2.52,0,0,1,1.23-1.27,2.4,2.4,0,0,1,1.19-.33,2.31,2.31,0,0,1,.54.07l1.52.33a1.53,1.53,0,0,1,1.16.87,1.58,1.58,0,0,1,.22.76,1.61,1.61,0,0,1-.18.72l-.9,1.88a.13.13,0,0,0,0,.14.15.15,0,0,0,.13.07h14.71a2.16,2.16,0,0,1,2.13,2.13Zm-26.82-8.6c-.19,0-.29.08-.29.25v1.84a2.1,2.1,0,0,1-2.13,2.13h-1.19a2.1,2.1,0,0,1-2.13-2.13v-5a2.08,2.08,0,0,1,.61-1.5,2,2,0,0,1,1.52-.63h10.55a.22.22,0,0,0,.25-.25v-.62a2.16,2.16,0,0,1,2.13-2.13h1.52a2.16,2.16,0,0,1,2.13,2.13v.62a.22.22,0,0,0,.25.25h10.92a2,2,0,0,1,1.52.63,2.08,2.08,0,0,1,.62,1.5v5a2.1,2.1,0,0,1-2.13,2.13h-1.48a2.1,2.1,0,0,1-2.13-2.13v-1.84c0-.17-.1-.25-.29-.25Zm14.64,11a.16.16,0,0,0,0-.18.24.24,0,0,0-.18-.07h-6.9a.4.4,0,0,0-.4.22l-1.74,3.25c-.07.17,0,.28.14.33q2.64.79,5.75,1.92a.41.41,0,0,0,.43-.11A14.07,14.07,0,0,0,320.36,487.55Z"/><path class="cls-3" d="M355.93,494.63c-.17,0-.25.1-.25.29v3c0,.19.08.29.25.29h10.84a2.1,2.1,0,0,1,2.13,2.13v.51a2.08,2.08,0,0,1-.62,1.5,2,2,0,0,1-1.52.63h-27.4a2,2,0,0,1-1.52-.63,2.08,2.08,0,0,1-.61-1.5v-.51a2.1,2.1,0,0,1,2.13-2.13h10.34c.17,0,.25-.1.25-.29v-3c0-.19-.09-.29-.25-.29h-7.37a2.1,2.1,0,0,1-2.13-2.13v-.36a2.08,2.08,0,0,1,.61-1.5,2,2,0,0,1,1.52-.63h7.37a.22.22,0,0,0,.25-.25v-2.89c0-.19-.09-.29-.25-.29h-5.39a2.08,2.08,0,0,1-1.5-.62,2,2,0,0,1-.63-1.52v-.62a.15.15,0,0,0-.07-.14.16.16,0,0,0-.15,0q-.94.62-1.88,1.19a2.27,2.27,0,0,1-1.08.29,1.94,1.94,0,0,1-.54-.07,2.46,2.46,0,0,1-1.41-.94q-.4-.54-.79-1a1.58,1.58,0,0,1-.4-1,1.32,1.32,0,0,1,0-.32,1.55,1.55,0,0,1,.79-1.19,37.6,37.6,0,0,0,6.65-4.74,35.72,35.72,0,0,0,5.21-5.6,4,4,0,0,1,3.33-1.77h1.37a4.18,4.18,0,0,1,3.4,1.73,34.54,34.54,0,0,0,12.54,10.09,1.53,1.53,0,0,1,.87,1.08,2.51,2.51,0,0,1,0,.4,1.49,1.49,0,0,1-.36,1q-.51.65-1,1.45a2.26,2.26,0,0,1-1.37,1,2,2,0,0,1-.54.07,2.28,2.28,0,0,1-1.08-.29q-.9-.54-1.81-1.16a.16.16,0,0,0-.14,0,.14.14,0,0,0-.07.14v.54a2,2,0,0,1-.63,1.52,2.08,2.08,0,0,1-1.5.62h-5.64c-.17,0-.25.1-.25.29v2.89a.22.22,0,0,0,.25.25h7.48a2,2,0,0,1,1.52.63,2.08,2.08,0,0,1,.61,1.5v.36a2.1,2.1,0,0,1-2.13,2.13Zm-11.17-12.9s-.07.05-.05.09a.08.08,0,0,0,.09.05H361a.09.09,0,0,0,.09-.05s0-.07-.06-.09a40.7,40.7,0,0,1-8.1-7.81.14.14,0,0,0-.14-.07.24.24,0,0,0-.18.07A38.22,38.22,0,0,1,344.76,481.73Z"/><path class="cls-1" d="M70.23,473.52a6.33,6.33,0,1,1,12.65,0v6.32H89v-6.32a12.47,12.47,0,0,0-24.94,0v6.32h6.14Zm0,0"/><path class="cls-1" d="M90.67,481.9H62.46a3.38,3.38,0,0,0-3.37,3.37V505.4a3.38,3.38,0,0,0,3.38,3.37H90.69a3.38,3.38,0,0,0,3.38-3.37V485.27a3.38,3.38,0,0,0-3.4-3.37ZM79.33,501.35H73.79l1.1-5.88a3.28,3.28,0,1,1,5-2.8,3.21,3.21,0,0,1-1.63,2.8Zm0,0"/><path class="cls-4" d="M108.29,52.62s25-48.56,62.83-24.82-.83,71.67-2.57,74.19-20.68,23.46-47.62,5.48C120.94,107.47,87.52,87.68,108.29,52.62Z"/><path class="cls-5" d="M179.42,21c-3.94-4.92-4-12.79-4-12.79l-3.71,4.75-2-11.1s-6,6.6-12.12,9.12-18.79,7-24.42,15.67c0,0,27.29,12.93,41.35,13.28,0,0,5,13.21,13.37,19C187.9,58.9,194.6,39.89,179.42,21Z"/><path class="cls-6" d="M146.85,69.59c-1.42,10.92-.37,17.44-9.17,12.8"/><path class="cls-7" d="M133.85,60.74s-.7-7.21,4.73-5S138.17,65.23,133.85,60.74Z"/><path class="cls-7" d="M156.11,70.14s-.7-7.21,4.73-5S160.43,74.63,156.11,70.14Z"/><path class="cls-4" d="M117.59,37.35s-7.74-7.48-13.77,4.91c0,0-5.07,8.77,3.7,11.35"/><path class="cls-4" d="M186,68.23s9.53,1.12,4.11,11.7c0,0-3.64,9.06-10.32,6.19"/><path class="cls-6" d="M134.2,44.41s3.58-4.77,10.3-.44"/><path class="cls-6" d="M165.55,54.39s8.06.43,6.71,8.24"/><path class="cls-4" d="M150.32,92.42a25.13,25.13,0,0,1-19.25-6.07S132,108,150.32,92.42Z"/><polyline class="cls-8" points="107.69 97.05 56.16 134.9 45.24 91.96 30.02 92.47 45.24 148.91 54.69 151.45 90.38 130.1 50.49 187.47"/><line class="cls-8" x1="136.16" y1="147.54" x2="119.13" y2="185.99"/><polyline class="cls-9" points="128.42 112.19 126.88 123.29 146.49 122.77 147.05 114.84 150.62 164.57 191.66 131.11 201.11 142.94 144.95 186.72 138.13 186.72 136.03 146.5"/><polyline class="cls-8" points="104.54 99.59 115.52 118.64 127.39 111.67"/><path class="cls-10" d="M193.76,133.15l6.3-13.22s4.2-5.09,4.72.51l-1,8.65L220,126l13.12-1s5.78,2.54,0,4.58l-14.17,4.07-17.84,9.66"/><path class="cls-11" d="M33.37,40.85l-19.9,2.88a3.43,3.43,0,0,0-3,3.87l6,39.18a3.51,3.51,0,0,0,4,2.87l19.9-2.87a3.43,3.43,0,0,0,3-3.88l-6-39.18a3.51,3.51,0,0,0-4-2.87ZM12.51,50.12l23.7-3.42,4.48,29.09L17,79.21Zm1.19-4.86,19.9-2.87a1.91,1.91,0,0,1,2.19,1.56L36,45.17l-23.7,3.42-.19-1.22a1.87,1.87,0,0,1,1.61-2.12Zm26.5,40L20.3,88.12a1.9,1.9,0,0,1-2.17-1.56l-.9-5.82,23.7-3.42.89,5.82a1.86,1.86,0,0,1-1.62,2.11Zm0,0"/><path class="cls-11" d="M29.19,79.79a3.11,3.11,0,0,0-2.68,3.52,3.18,3.18,0,0,0,3.62,2.61,3.12,3.12,0,0,0,2.69-3.52,3.18,3.18,0,0,0-3.63-2.6Zm.71,4.59a1.6,1.6,0,0,1-1.81-1.31,1.55,1.55,0,0,1,1.34-1.75,1.59,1.59,0,0,1,1.81,1.3,1.56,1.56,0,0,1-1.34,1.76Zm0,0"/><path class="cls-11" d="M20.85,46.57,24,46.11a.77.77,0,0,0,.67-.88.8.8,0,0,0-.91-.65L20.61,45a.78.78,0,0,0-.67.88.79.79,0,0,0,.91.65Zm0,0"/><path class="cls-11" d="M26.38,45.77l.79-.12a.78.78,0,0,0,.67-.88.79.79,0,0,0-.91-.65l-.79.11a.78.78,0,0,0-.67.88.8.8,0,0,0,.91.65Zm0,0"/><path class="cls-11" d="M45,42.74a.82.82,0,0,0-1.12.16A.76.76,0,0,0,44,44a7.28,7.28,0,0,1,1.6,10.38.75.75,0,0,0,.17,1.08.82.82,0,0,0,.59.14.79.79,0,0,0,.53-.31A8.79,8.79,0,0,0,45,42.74Zm0,0"/><path class="cls-11" d="M41.92,45a.82.82,0,0,0-1.12.16A.76.76,0,0,0,41,46.21,5,5,0,0,1,43,49.54a4.91,4.91,0,0,1-1,3.77.76.76,0,0,0,.17,1.08.83.83,0,0,0,.59.14.79.79,0,0,0,.53-.3,6.42,6.42,0,0,0,1.26-4.91A6.54,6.54,0,0,0,41.92,45Zm0,0"/><path class="cls-11" d="M4.21,49.74A.75.75,0,0,0,4,48.66a.81.81,0,0,0-1.11.16A8.79,8.79,0,0,0,4.87,61.36a.82.82,0,0,0,.59.14A.77.77,0,0,0,6,61.2a.76.76,0,0,0-.16-1.08,7.28,7.28,0,0,1-1.6-10.37Zm0,0"/><path class="cls-11" d="M7.62,49.71a.82.82,0,0,0-1.12.16,6.41,6.41,0,0,0-1.26,4.92,6.54,6.54,0,0,0,2.69,4.35A.82.82,0,0,0,9,59a.76.76,0,0,0-.17-1.08,5,5,0,0,1-2.07-3.33,4.91,4.91,0,0,1,1-3.77.76.76,0,0,0-.17-1.08Zm0,0"/><path class="cls-4" d="M44.62,91.45s6.82-5.59,5.77-11.69-6.3-12.2-6.3-12.2-6.29-6.1-5.24-2A85.15,85.15,0,0,0,42,74.67l-2.55,2.64"/><path class="cls-12" d="M9,70.61s3.15-6.1,5.78-6.1,3.67,0,2.09,4.07c0,0,4.72,2,1.57,6.61s4.2,1-3.15,4.58h0l.27,7.5S6.41,87.39,9,70.61Z"/><line class="cls-13" x1="22.15" y1="88.91" x2="30.02" y2="92.47"/><rect class="cls-1" x="23" y="283.72" width="200" height="55" rx="7.56" ry="7.56"/><rect class="cls-14" x="22.5" y="284.22" width="200" height="55" rx="7.56" ry="7.56"/><rect class="cls-1" x="238" y="283.72" width="200" height="55" rx="7.56" ry="7.56"/><rect class="cls-14" x="237.5" y="284.22" width="200" height="55" rx="7.56" ry="7.56"/><path class="cls-2" d="M79.51,314l-2,2.72q-1.09-1.41-2.47-2.93V324.3H71.77v-9.59a22.29,22.29,0,0,1-3.45,2.66,10.61,10.61,0,0,0-.69-1.66,9.37,9.37,0,0,0-.88-1.49,18.56,18.56,0,0,0,4.35-3.29,21.32,21.32,0,0,0,3.45-4.48H67.8v-3h4v-5.11h3.29v5.11h1.25l.57-.14,1.88,1.2a27.19,27.19,0,0,1-3.29,5.95Q76.77,311.54,79.51,314Zm8,6.25h5.92v3.21H77.72v-3.21h6.41V310.1H78.86v-3.21h5.27v-8.31h3.4v8.31H92.8v3.21H87.53Z"/><path class="cls-2" d="M119.5,303v17.58a5.41,5.41,0,0,1-.33,2.12,2.19,2.19,0,0,1-1.2,1.11q-1.25.57-5.41.57a9.57,9.57,0,0,0-1.09-3.29q1.09.05,4,.05a.94.94,0,0,0,.56-.16.64.64,0,0,0,.15-.49V306.16h-6.49a20.74,20.74,0,0,1-.38,3.15,64.72,64.72,0,0,1,6.87,6.93l-2.72,2.15a55.56,55.56,0,0,0-5.24-5.81,14.57,14.57,0,0,1-6,6.38,10.23,10.23,0,0,0-2.31-2.45v7.85H96.65V303h9.7v-4.62h3.4V303ZM100,306.16v10.27a13.69,13.69,0,0,0,3.18-2.23,8.57,8.57,0,0,0,1.94-2.68,14,14,0,0,0,.91-2.66,15.45,15.45,0,0,0,.33-2.7Z"/><path class="cls-2" d="M131.73,309.58v1.52q.79.6,2.74,2.21t2.15,1.75l-1.93,2.85q-.9-1.14-3-3.26v9.59h-3.18v-10a26.74,26.74,0,0,1-4.27,6.55,16.6,16.6,0,0,0-1.66-3.23A21.34,21.34,0,0,0,125.5,314a30.77,30.77,0,0,0,2.39-4.4h-4.64v-3h5.3v-3.45q-2.23.44-4.67.73a8.38,8.38,0,0,0-1-2.58,43.67,43.67,0,0,0,11.17-2.85l2.36,2.55a40.52,40.52,0,0,1-4.73,1.44v4.16h4.81v3ZM141,301.7v15.54h-3.21V301.7Zm3.34-2.85h3.29v21.43a5.7,5.7,0,0,1-.34,2.23,2.25,2.25,0,0,1-1.18,1.14q-1.41.68-5.54.63a11.2,11.2,0,0,0-1.14-3.42q1.82.08,4.18.08.73,0,.73-.68Z"/><path class="cls-2" d="M174.78,300.18v20.21a5,5,0,0,1-.34,2.08,2.17,2.17,0,0,1-1.18,1.07q-1.36.65-5.32.6a11.56,11.56,0,0,0-1.06-3.18q1,.06,3.88.05.73,0,.73-.65v-4.18h-5.87V324h-3.34v-7.77h-5.68q-.87,5.41-3.5,8.26a10.06,10.06,0,0,0-1.24-1.18,7.65,7.65,0,0,0-1.37-1,10.5,10.5,0,0,0,1.78-2.7,13.05,13.05,0,0,0,1-3.25q.3-1.74.39-3.08t.09-3.14v-9.94ZM157,313.06h5.32v-3.42H157v.52Q157,311.51,157,313.06Zm5.32-9.73H157v3.23h5.24Zm9.21,3.23v-3.23h-5.87v3.23Zm-5.87,6.49h5.87v-3.42h-5.87Z"/><path class="cls-2" d="M325,322h10.89v3.31H310.56V322h10.59v-14.4h-9.1v-3.45H334.3v3.45H325Z"/><path class="cls-2" d="M363.94,315.25H352.88q-.19.35-.79,1.33h11.3q0,.76-.05,1.14a51.12,51.12,0,0,1-.65,5.91,5.66,5.66,0,0,1-1,2.54,2.61,2.61,0,0,1-1.82,1,17.34,17.34,0,0,1-2.83.05,6,6,0,0,0-.73-2.58q.9.08,2,.08a1.08,1.08,0,0,0,.84-.3q.63-.68,1-5.22H359.1a21.67,21.67,0,0,1-2.39,4.66,15.45,15.45,0,0,1-3.18,3.57,7.23,7.23,0,0,0-2.34-1.82,11.78,11.78,0,0,0,2.91-2.69,18.16,18.16,0,0,0,2.28-3.72h-1.66a19.88,19.88,0,0,1-2.91,3.93,18.81,18.81,0,0,1-3.59,3.06,7.78,7.78,0,0,0-2.17-2,14.28,14.28,0,0,0,3-2.11,16.94,16.94,0,0,0,2.64-2.92h-1.68a17.78,17.78,0,0,1-3.23,2.72,9.88,9.88,0,0,0-1-1,7.83,7.83,0,0,0-1.16-.91l-3,1.47L339,322.78l-1.22-3.34,1-.38,1.28-.5,1.2-.48v-7.85h-2.8v-3.1h2.8v-5.49h3v5.49h2.61v3.1h-2.61v6.57l2.23-1,.6,2.36a14.17,14.17,0,0,0,2.55-2.93h-3.15v-2.8h17.5ZM362.06,302v9.4H348.89V302ZM359,305.61v-1.33h-7.17v1.33Zm0,3.5v-1.33h-7.17v1.33Z"/><rect class="cls-1" x="23" y="351.72" width="200" height="55" rx="7.56" ry="7.56"/><rect class="cls-14" x="22.5" y="351.22" width="200" height="55" rx="7.56" ry="7.56"/><rect class="cls-1" x="237" y="351.72" width="200" height="55" rx="7.56" ry="7.56"/><rect class="cls-14" x="237.5" y="351.22" width="200" height="55" rx="7.56" ry="7.56"/><path class="cls-2" d="M101.92,365.95v13a23.42,23.42,0,0,0,5.81,3.72,13.14,13.14,0,0,0-2.42,2.91,23.2,23.2,0,0,1-3.4-2.2v8.48H98.47V380.1a33.16,33.16,0,0,1-3.4-4.48q-3.07,11.55-10.92,16a9.44,9.44,0,0,0-1.22-1.33,10.32,10.32,0,0,0-1.41-1.14,18.81,18.81,0,0,0,7.55-7.2,34.2,34.2,0,0,0-4.18-3.18,12.36,12.36,0,0,1-1.41,1.63,15.74,15.74,0,0,0-2.77-2.12A18.4,18.4,0,0,0,84.62,373a32.31,32.31,0,0,0,2.63-7.12l3.29.63q-.38,1.49-1,3.4h3.86l.6-.11,2.17.76-.23,1.29L95.7,373l1-.41a17.86,17.86,0,0,0,1.74,2.69v-9.32Zm-9.59,7.12H88.26a24.22,24.22,0,0,1-1.68,3.23,32.21,32.21,0,0,1,4,2.69A31.49,31.49,0,0,0,92.34,373.06Z"/><path class="cls-2" d="M129.69,380.07h3.45v11.76h-3.45v-1.58H114.26v1.6h-3.37V380.07h3.37V387h5.81V378.6H112V368.5h3.29v6.87h4.78v-9.21h3.4v9.21h5.08V368.5H132V378.6h-8.56V387h6.22Z"/><path class="cls-2" d="M146.37,367.58v18.91h-5.65V389h-3V367.58Zm-3.1,3h-2.55v4.89h2.55Zm-2.55,13h2.55v-5.24h-2.55Zm22-6.52h-2.85v2.39h2.66v2.88h-2.66v6.06a4.87,4.87,0,0,1-.3,1.9,2,2,0,0,1-1.09,1,13.46,13.46,0,0,1-4.65.54,9.88,9.88,0,0,0-1.06-3.12q1.33.05,3.29.05c.4,0,.6-.16.6-.49v-6h-9.75v-2.88h9.75V377h-9.83v-2.88h6.3V371.7h-5.35V368.8h5.35v-2.91h3.26v2.91H162v2.91h-5.57v2.45h6.33ZM148,384.15l2.66-1.52a17.94,17.94,0,0,1,3.37,4.56l-2.85,1.63A17,17,0,0,0,148,384.15Z"/><path class="cls-2" d="M317.45,370.34l2.17.52q-.9,9-4,14.59a14.93,14.93,0,0,0,5.05,4.51,9.76,9.76,0,0,0-1.25,1.26,8.72,8.72,0,0,0-1,1.45,17.29,17.29,0,0,1-4.81-4.26,18.87,18.87,0,0,1-4.94,4.26,10,10,0,0,0-1.82-2.42v2.61H303.6V388.4q-4.7.79-9,1.44l-.62-3.29,1.3-.15,1.25-.15V371.5h-1.9v-3.07h14v2h8.31ZM303.6,371.5h-4v2.64h4Zm-4,5.62v2.77h4v-2.77Zm0,5.71v3l1.83-.24,2.13-.27v-2.53Zm7.17-11.33v18.28a14.75,14.75,0,0,0,4.81-4.4,40.81,40.81,0,0,1-3.75-11l3.15-.62a32.07,32.07,0,0,0,2.55,8.23,30.85,30.85,0,0,0,2.42-8.29h-8.23V371.5Z"/><path class="cls-2" d="M326.88,380.2h8.77a11.82,11.82,0,0,1-.14,1.36,66.08,66.08,0,0,1-.75,6.89,6.59,6.59,0,0,1-1.15,3.06,4.18,4.18,0,0,1-2.77,1.2,31.46,31.46,0,0,1-4.35.05,7.13,7.13,0,0,0-1.22-3.48q1.93.19,4.18.19a2.06,2.06,0,0,0,1.25-.33q.82-.63,1.25-5.87h-5.65q-.16.87-.25,1.25l-3.34-.54a72,72,0,0,0,1.71-9.78h7.69V371h-8.37v-3.07h11.65v9.35h-8.07Q327.18,378.41,326.88,380.2Zm14.81-12.9H345v25.56h-3.31Z"/><path class="cls-2" d="M369,389.33h2.39a.82.82,0,0,0,.83-.68,16.27,16.27,0,0,0,.28-3.12,7.63,7.63,0,0,0,3,1.33,9.81,9.81,0,0,1-1,4.43,3.1,3.1,0,0,1-2.76,1.17h-3.2q-2.28,0-3.06-.88a5.15,5.15,0,0,1-.77-3.3V381.5h-4.08q-.22,1.63-.5,2.88a14.67,14.67,0,0,1-.88,2.61,9.38,9.38,0,0,1-1.48,2.38,12,12,0,0,1-2.28,2,15.26,15.26,0,0,1-3.27,1.67,8.73,8.73,0,0,0-2.07-2.91,13.58,13.58,0,0,0,3.37-1.56,6.84,6.84,0,0,0,2.08-2.09,10.13,10.13,0,0,0,1.06-2.3,14.44,14.44,0,0,0,.5-2.66h-6.57v-3.18h10.68v-4.51h-4.81a21.13,21.13,0,0,1-2.12,3.78,18.31,18.31,0,0,0-2.93-1.44,14.9,14.9,0,0,0,2.23-4,32.36,32.36,0,0,0,1.47-4.85l3.4.68-.84,2.69h3.61v-3.75h3.34v3.75h8.53v3.18h-8.53v4.51h10.7v3.18H368v6.76a1.41,1.41,0,0,0,.18.87A1.2,1.2,0,0,0,369,389.33Z"/><polyline class="cls-8" points="115.52 118.64 115.78 124.06 101.07 159.16 110.88 170.25 120.68 161.99 121.97 125.86 126.88 123.29"/></g></g></svg>