<svg xmlns="http://www.w3.org/2000/svg" viewBox="0 0 173.13 140.31"><defs><style>.cls-1{fill:#4b8f00;}.cls-2,.cls-3{fill:none;stroke:#4b8f00;stroke-miterlimit:10;}.cls-2{stroke-width:1.19px;}</style></defs><title>Asset 8</title><g id="Layer_2" data-name="Layer 2"><g id="PROSELF"><path class="cls-1" d="M120,24.85a11.53,11.53,0,0,1-6.88-13.76c1.36-4.72,6.49-12.85,12.19-8.61a15.57,15.57,0,0,1,5.64,10.47c0,.5-.38,2.27-.17,2.59,1.09,1.66,1.11-1,1.15-1.27a18.94,18.94,0,0,1,2.64-7.51c4.35-7,15.19-8.41,19.19-.32,2.3,4.65,2.42,10.65,1.62,15.71-.05.34.91.37,1.08.26A10.84,10.84,0,0,1,163,20.74c4.72.46,9.14,6.15,8.87,10.86-.3,5.11-7.07,6.41-11.17,6.42-.09,0-.46,0-.46.17a7.28,7.28,0,0,1-2,4.44c-4,4.44-11.26,5.29-16.82,5.17-4.71-.1-9.77-1.79-10.5-7a11.23,11.23,0,0,1,.54-5.22c.11-.3-1-.41-1.15-.21a19.54,19.54,0,0,1-5.85,4.87c-3.53,1.92-12.64,2.92-12.7-3.09,0-4.65,5.18-9.27,8.51-12,.21-.17-.84-.5-1.12-.27-3.28,2.67-11.67,10.15-7.54,14.83,2.73,3.08,8.14,3.14,11.7,1.84a19.1,19.1,0,0,0,8.12-5.93l-1.15-.21c-5.63,15.58,19.64,14.84,27.44,9,1.54-1.15,3.31-3,3.59-5.06a5.32,5.32,0,0,1,.15-1c-.1.26-.74.17,0,.15.45,0,.91,0,1.36-.09,5.68-.53,12.3-3.35,9.59-10.21S162,17.89,155.45,22l1.08.26c.94-5.93.77-13.94-3.51-18.61C150.18.59,145.64-.17,141.65.63a13.1,13.1,0,0,0-9.2,7.66c-.41.87-2.94,6.83-1.61,7.58a1.1,1.1,0,0,0,.93.07c.42-.29.36-1.44.37-1.86a13.51,13.51,0,0,0-1.29-5.58C129.41,5.18,126.8,1.55,123,.82c-4.76-.92-8.12,3.54-10,7.31-2,4.13-2.3,8.8.58,12.58a14.62,14.62,0,0,0,5.71,4.46C119.67,25.32,120.68,25.15,120,24.85Z" transform="translate(0 -0.33)"/><path class="cls-2" d="M119.66,53.62s-14,5.58-9.77,11.86C114.84,72.92,119.66,53.62,119.66,53.62Z" transform="translate(0 -0.33)"/><path class="cls-2" d="M100.12,47.34s-14,5.58-9.77,11.86C95.31,66.64,100.12,47.34,100.12,47.34Z" transform="translate(0 -0.33)"/><path class="cls-2" d="M79.3,74.14s-14,5.58-9.77,11.86C74.49,93.44,79.3,74.14,79.3,74.14Z" transform="translate(0 -0.33)"/><path class="cls-2" d="M140.59,55s-14,5.58-9.77,11.86C135.78,74.31,140.59,55,140.59,55Z" transform="translate(0 -0.33)"/><path class="cls-2" d="M120.36,75.25s-14,5.58-9.77,11.86C115.54,94.55,120.36,75.25,120.36,75.25Z" transform="translate(0 -0.33)"/><path class="cls-2" d="M100.94,74.84S87,80.43,91.17,86.7C96.12,94.14,100.94,74.84,100.94,74.84Z" transform="translate(0 -0.33)"/><path class="cls-3" d="M0,137.38l14.26.2V87.93s5.19-1.86,7.73.68l.89,28.29,8.61,4.22-.46,18h5.79V105l14.51,13.56-1.09-15.35L65.13,119.5l-.72-16.35,16,15.95-.72,20.31,5.08-.2.72-19.07H97.63l-.58,20,8.18-.54" transform="translate(0 -0.33)"/><polygon class="cls-3" points="89.27 121.8 89.27 128.5 94.27 128.9 94.27 121.8 89.27 121.8"/><polygon class="cls-3" points="43.27 122.8 43.27 129.61 48.27 130.01 48.27 122.8 43.27 122.8"/><polygon class="cls-3" points="51.27 122.8 51.27 129.61 56.27 130.01 56.27 122.8 51.27 122.8"/><path class="cls-2" d="M138.22,47.82S147.61,23,172.93,31.9" transform="translate(0 -0.33)"/><path class="cls-2" d="M133.78,45.73s7.83-25.58,37.06-20.36" transform="translate(0 -0.33)"/><path class="cls-2" d="M143.38,48s12.07-18.75,25.12-11.7" transform="translate(0 -0.33)"/></g></g></svg>