<svg xmlns="http://www.w3.org/2000/svg" viewBox="0 0 147.9 140.08"><defs><style>.cls-1,.cls-5{fill:none;}.cls-1,.cls-2,.cls-3,.cls-4,.cls-5{stroke:#4b8f00;stroke-miterlimit:10;}.cls-1,.cls-2,.cls-4{stroke-width:1.2px;}.cls-2,.cls-3{fill:#4b8f00;}.cls-4,.cls-6{fill:#fff;}.cls-6{font-size:20.05px;font-family:GenShinGothic-Heavy, Gen Shin Gothic;}</style></defs><title>Asset 10</title><g id="Layer_2" data-name="Layer 2"><g id="ACRONIS"><path class="cls-1" d="M9,59.18S-8.19,23.34,22,12.8,63.13,45.48,63.84,47.59,68.4,69.72,46.27,76.75C46.27,76.75,20.27,86.59,9,59.18Z"/><path class="cls-2" d="M21.67,5.07c-4.57,0-9.14-3.52-9.14-3.52l1.13,4.22L6.37,1.91s1.21,6.33,0,10.89S2.27,26.5,4.8,33.53c0,0,19.37-9.49,25.69-17.22,0,0,9.8,3.16,16.83,1.06C47.32,17.37,39.24,5.07,21.67,5.07Z"/><path class="cls-1" d="M35.63,45.2c5.7,5.7,9.93,8,3.41,10.89"/><path class="cls-3" d="M24.85,48.51s-4.48-2.85-.81-4.89S29.33,48.1,24.85,48.51Z"/><path class="cls-3" d="M40,40.25s-4.48-2.85-.81-4.89S44.46,39.84,40,40.25Z"/><path class="cls-1" d="M39.86,67.18s2-7.33,11-7.33"/><path class="cls-1" d="M23.73,38.83s0,8.55-5.29,7.33"/><path class="cls-1" d="M33.5,34.77s8.14,3.25,11-3.67"/><path class="cls-1" d="M4.59,48.26S-1,51.07,1.07,57c0,0,3.16,4.57,6.68,2.46"/><path class="cls-1" d="M51.89,22.64s3.52-2.46,7,1.75c0,0,3.51,4.92-1.05,7.38"/><path class="cls-1" d="M29.4,78.51l1.67,5.25S44.16,85.89,52.59,82l.35-8.08,8.43,3.86a55.88,55.88,0,0,1,4.38-8.23c1.33-2-3.32-6.18-3.32-6.18"/><polyline class="cls-1" points="52.43 80.79 55.64 83.91 53.39 101.04 59.29 106.94 62.38 99.36 58.73 83.62 59.55 76.94"/><line class="cls-1" x1="66.02" y1="68.18" x2="70.81" y2="78"/><polygon class="cls-4" points="66.63 125.15 67.93 76.07 143.91 77.56 141.7 128.13 66.63 125.15"/><polyline class="cls-1" points="63.84 129.87 60.64 132.72 146.05 135.92 141.7 128.13"/><path class="cls-1" d="M40.47,96.27l9.85,23.29,11.39,5.34s-10,5.7-6.76,11L44.27,121.33,42,117.27,35.69,96"/><path class="cls-1" d="M61.71,124.89s6,0,7.47,2.49-3.91,2.85-6.4,2.85"/><path class="cls-1" d="M59.22,133.43a3.17,3.17,0,0,0,2.85,2.13l83.27,3.21,2.13-2.14"/><polyline class="cls-1" points="89.82 134.5 93.02 128.45 112.24 129.16 112.95 134.5"/><path class="cls-1" d="M54.59,133.07s5,6.41,8.9,6.41c0,0,8.54,0,8.54-3.2"/><line class="cls-1" x1="31.76" y1="84.75" x2="37.38" y2="137.29"/><line class="cls-5" x1="46.9" y1="13.89" x2="46.9" y2="26.89"/><line class="cls-5" x1="42.9" y1="13.89" x2="42.9" y2="26.89"/><line class="cls-5" x1="39.9" y1="13.89" x2="39.9" y2="26.89"/><line class="cls-5" x1="35.9" y1="13.89" x2="35.9" y2="26.89"/><path class="cls-3" d="M70.81,121l1.13-40.74s65.46,0,67.43,2-.56,41.86-2.81,41.86S70.81,121,70.81,121Z"/><text class="cls-6" transform="translate(78.51 107.36) rotate(2.58)">error</text></g></g></svg>