<svg xmlns="http://www.w3.org/2000/svg" xmlns:xlink="http://www.w3.org/1999/xlink" viewBox="0 0 351.41 79.86"><defs><style>.cls-1{fill:none;}.cls-2{font-size:13px;fill:#333;font-family:GenShinGothic-Bold, Gen Shin Gothic;font-weight:700;}.cls-3{fill:#72b12d;}.cls-4{font-size:12px;fill:#fff;font-family:GenShinGothic-Heavy, Gen Shin Gothic;}.cls-5{fill:#79ae2b;}.cls-6{clip-path:url(#clip-path);}.cls-7{fill:url(#radial-gradient);}.cls-8{fill:#99bd54;}.cls-9{fill:#c3d598;}</style><clipPath id="clip-path"><path class="cls-1" d="M34.75,31.24a7.42,7.42,0,0,0,14.8,0,7.42,7.42,0,0,0-14.8,0"/></clipPath><radialGradient id="radial-gradient" cx="7072.23" cy="1412.96" r="0.17" gradientTransform="matrix(70.19, 0, 0, -66.16, -496355.59, 93505.23)" gradientUnits="userSpaceOnUse"><stop offset="0" stop-color="#fff"/><stop offset="1" stop-color="#0070b8"/></radialGradient></defs><title>logo</title><g id="Layer_2" data-name="Layer 2"><g id="top"><path d="M85.39,25.75v8.06c0,1.41.22,2.32.64,2.71a5.05,5.05,0,0,0,3,.59h.28v1.06H78.54V37.11h.31a3.31,3.31,0,0,0,2.4-.64,4.27,4.27,0,0,0,.56-2.67V16.92a4.32,4.32,0,0,0-.55-2.68,3.32,3.32,0,0,0-2.41-.61h-.31V12.57H96.44L97,17.33H95.67l0-.35c-.21-1.46-.66-2.35-1.33-2.67s-2.37-.48-5.15-.48H85.39V24.71h4A8.93,8.93,0,0,0,93,24.25c.53-.31.8-1,.8-2.1v-.29h1.33V28.6H93.79v-.25a2.79,2.79,0,0,0-.67-2.1c-.34-.32-1.58-.49-3.74-.49Z"/><path d="M115.27,35a13.12,13.12,0,0,1-3.61,2.74,8.39,8.39,0,0,1-3.77.91,5,5,0,0,1-4.27-1.77c-.92-1.17-1.37-3-1.37-5.53V26.54a9.05,9.05,0,0,0-.33-3.17A3.65,3.65,0,0,0,100,22.07l-1-.44v-.26l6.54-2.2V30.29c0,2.4.26,4,.8,4.78a3.13,3.13,0,0,0,2.78,1.19,7.52,7.52,0,0,0,2.84-.51,17.44,17.44,0,0,0,3.3-1.95V26.48a8.79,8.79,0,0,0-.34-3.12A3.73,3.73,0,0,0,113,22.07l-1-.44v-.26l6.53-2.2v14.7a2,2,0,0,0,.7,1.78,4.94,4.94,0,0,0,2.6.47H122v1.05l-6.71,1.52Z"/><path d="M136.85,35.92v1.52a9,9,0,0,1-4.57,1.25c-2,0-3.44-.56-4.29-1.69s-1.28-3-1.28-5.68V20.92h-3.22L130,15V19.7h6.23V21H130V30.8a9.29,9.29,0,0,0,.92,4.75,3.24,3.24,0,0,0,3,1.49,6.41,6.41,0,0,0,3-1.12"/><path d="M154.63,35a13.11,13.11,0,0,1-3.6,2.74,8.47,8.47,0,0,1-3.77.91A5.06,5.06,0,0,1,143,36.92c-.91-1.17-1.36-3-1.36-5.53V26.54a9.17,9.17,0,0,0-.34-3.17,3.67,3.67,0,0,0-1.93-1.29l-1-.44v-.26l6.54-2.2V30.29c0,2.4.27,4,.81,4.78a3.11,3.11,0,0,0,2.78,1.19,7.5,7.5,0,0,0,2.84-.51,16.87,16.87,0,0,0,3.3-1.95V26.48a8.79,8.79,0,0,0-.34-3.12,3.73,3.73,0,0,0-1.92-1.29l-1-.44v-.26l6.54-2.2v14.7a2,2,0,0,0,.69,1.78,4.93,4.93,0,0,0,2.6.47h.14v1.05l-6.72,1.52Z"/><path d="M170.35,24.33v9.48a3.71,3.71,0,0,0,.69,2.68,4.59,4.59,0,0,0,2.9.62h.27v1.06H163.63V37.11h.32a3.55,3.55,0,0,0,2.53-.63,4.14,4.14,0,0,0,.59-2.67V26.54a8.05,8.05,0,0,0-.36-3.08,3.78,3.78,0,0,0-2-1.27l-1-.41v-.26l6.68-2.21v3.6a17.75,17.75,0,0,1,3.34-2.8,5.43,5.43,0,0,1,2.75-.92,4.3,4.3,0,0,1,3.63,2.11L177.49,24c-.88-1.43-1.84-2.15-2.87-2.15s-2.22.73-3.91,2.17c0,0-.18.14-.37.29"/><path d="M187,22.13a4.67,4.67,0,0,1,3.77-1.9,3.66,3.66,0,0,1,3,1.37,5.36,5.36,0,0,1,1.14,3.54,1.66,1.66,0,0,1-1,1.78,20,20,0,0,1-5,.37h-3.66A9.78,9.78,0,0,1,187,22.13m5.57,14.52a7.23,7.23,0,0,1-5.35-2.17,7.3,7.3,0,0,1-2.16-5.37c0-.15,0-.4,0-.79h13.43V27.8a9.22,9.22,0,0,0-2-6.35,7.18,7.18,0,0,0-5.67-2.27,9,9,0,0,0-6.75,2.77,9.64,9.64,0,0,0-2.69,7,9.36,9.36,0,0,0,2.81,7,9.77,9.77,0,0,0,7.15,2.75,15.89,15.89,0,0,0,7.47-2V35.07a14,14,0,0,1-6.23,1.59"/><path d="M214.26,37.91l-.42-5.61h1.36l.05.27a6.68,6.68,0,0,0,2.19,4,6.32,6.32,0,0,0,4.21,1.39,5.78,5.78,0,0,0,4-1.47,4.63,4.63,0,0,0,1.65-3.55q0-2.61-4.25-5.34l-2.69-1.75a25.62,25.62,0,0,1-5.13-4,5,5,0,0,1-1.22-3.4,5.58,5.58,0,0,1,2.57-4.78,11.53,11.53,0,0,1,6.77-1.81A21.4,21.4,0,0,1,230,13l.48,4.82h-1.36l-.09-.26q-1.4-4.62-6.43-4.62a5.55,5.55,0,0,0-3.72,1.27,4,4,0,0,0-1.48,3.21c0,1.64,1.22,3.24,3.63,4.81l3.89,2.49a22.78,22.78,0,0,1,4.78,3.75,5.32,5.32,0,0,1,1.13,3.48A6.05,6.05,0,0,1,228.23,37a11.63,11.63,0,0,1-7,1.91,22.65,22.65,0,0,1-6.94-1"/><path d="M243.15,22.4a7.43,7.43,0,0,1,2.66-.53A5.76,5.76,0,0,1,250.45,24a8.42,8.42,0,0,1,1.8,5.58,8.84,8.84,0,0,1-1.78,5.68,5.58,5.58,0,0,1-4.53,2.23,7,7,0,0,1-3-.73,7.49,7.49,0,0,1-2.57-1.92V24a12.32,12.32,0,0,1,2.8-1.61m-.49,16.12a15.88,15.88,0,0,0,2.28.17,10.94,10.94,0,0,0,7.85-2.87,9.86,9.86,0,0,0,3-7.48,9.55,9.55,0,0,0-2.28-6.58,7.38,7.38,0,0,0-5.8-2.58,8.5,8.5,0,0,0-3.58.85,16.66,16.66,0,0,0-3.79,2.59V19.18l-6.55,2.2v.26l1,.44a3.26,3.26,0,0,1,1.86,1.29,8.23,8.23,0,0,1,.36,3.06V41a4,4,0,0,1-.61,2.66,3.53,3.53,0,0,1-2.52.63h-.16v1.05h9.86V44.3h-.22a3.47,3.47,0,0,1-2.48-.63,4.19,4.19,0,0,1-.58-2.66V38a18.3,18.3,0,0,0,2.31.52"/><path d="M265.47,19.3V33.81a4.18,4.18,0,0,0,.57,2.67,3.36,3.36,0,0,0,2.42.64h.28v1.06h-9.87V37.11h.37a3.2,3.2,0,0,0,2.36-.63,4.3,4.3,0,0,0,.57-2.67V26.56a9.12,9.12,0,0,0-.3-3.07,4.45,4.45,0,0,0-2-1.31l-.92-.41v-.26Zm-2.18-2.38a2.29,2.29,0,0,1-1.64-.62,2,2,0,0,1-.66-1.55,2,2,0,0,1,.66-1.54,2.26,2.26,0,0,1,1.64-.64,2.31,2.31,0,0,1,1.65.64,2,2,0,0,1,.66,1.54,2,2,0,0,1-.66,1.55,2.34,2.34,0,0,1-1.65.62"/><path d="M277.81,24.33v9.48a3.74,3.74,0,0,0,.68,2.68,4.6,4.6,0,0,0,2.9.62h.27v1.06H271.1V37.11h.31a3.53,3.53,0,0,0,2.52-.63,4.1,4.1,0,0,0,.6-2.67V26.54a8.07,8.07,0,0,0-.36-3.08,3.76,3.76,0,0,0-2-1.27l-1-.41v-.26l6.68-2.21v3.6a17.76,17.76,0,0,1,3.35-2.8,5.41,5.41,0,0,1,2.74-.92,4.31,4.31,0,0,1,3.65,2.11L285,24c-.87-1.43-1.83-2.15-2.87-2.15s-2.23.73-3.91,2.17l-.37.29"/><path d="M295.31,19.3V33.81a4.16,4.16,0,0,0,.58,2.67,3.36,3.36,0,0,0,2.43.64h.28v1.06h-9.87V37.11h.35a3.21,3.21,0,0,0,2.38-.63,4.3,4.3,0,0,0,.57-2.67V26.56a8.92,8.92,0,0,0-.31-3.07,4.41,4.41,0,0,0-2-1.31l-.91-.41v-.26Zm-2.17-2.38a2.33,2.33,0,0,1-1.65-.62,2,2,0,0,1-.66-1.55,2.05,2.05,0,0,1,.66-1.54,2.43,2.43,0,0,1,3.28,0,2,2,0,0,1,.67,1.54,2,2,0,0,1-.67,1.55,2.31,2.31,0,0,1-1.64.62"/><path d="M313.54,35.92v1.52A9.09,9.09,0,0,1,309,38.69q-3,0-4.29-1.69c-.87-1.13-1.29-3-1.29-5.68V20.92h-3.22L306.68,15V19.7h6.23V21h-6.23V30.8a9.29,9.29,0,0,0,.92,4.75A3.23,3.23,0,0,0,310.55,37a6.46,6.46,0,0,0,3-1.12"/><path d="M316.59,37.44l-.42-4.75h1.4l.06.33q.74,4.62,4.92,4.62a4.78,4.78,0,0,0,3.1-1.06A3.24,3.24,0,0,0,326.93,34a2.26,2.26,0,0,0-.66-1.62,14.18,14.18,0,0,0-3.21-2l-1.66-.86c-3.17-1.63-4.75-3.47-4.75-5.49a4.22,4.22,0,0,1,1.74-3.56,7.78,7.78,0,0,1,4.74-1.3,16.71,16.71,0,0,1,5.55,1.05V24h-1.4l-.05-.31a7.94,7.94,0,0,0-.33-1.36,3.13,3.13,0,0,0-.6-1,4,4,0,0,0-1.12-.8,4.81,4.81,0,0,0-2.12-.36,3.58,3.58,0,0,0-2.4.79,2.56,2.56,0,0,0-.93,2.06c0,1.22,1.22,2.47,3.69,3.76l1.84,1A13.05,13.05,0,0,1,329,30.4a4.4,4.4,0,0,1,1,3A4.52,4.52,0,0,1,328,37.23a9.07,9.07,0,0,1-5.4,1.47,13,13,0,0,1-6-1.25"/><text class="cls-2" transform="translate(0 74.52)">進出企業様向けフルサポートレンタルサーバー </text><rect class="cls-3" x="278.41" y="60.86" width="73" height="19"/><text class="cls-4" transform="translate(285.41 74.86)">マレーシア</text><path class="cls-5" d="M72.51,0C38.77.84,15.35,10.56,13.06,17c-1.44,4.06.83,7.61,6.75,9.94a5.06,5.06,0,0,1-.06-.52C18.71,9.82,72.51,0,72.51,0"/><g class="cls-6"><rect class="cls-7" x="34.75" y="24.26" width="14.8" height="13.95"/></g><path class="cls-8" d="M37.86,29.84c-1.14,0-2.34-.06-3.62-.14A48.6,48.6,0,0,1,19.81,27c.93,6,11.27,15.46,23.08,16.14a16.56,16.56,0,0,1-5-13.27"/><path class="cls-9" d="M56.63,25.45a25.93,25.93,0,0,1-11.75,4,16.28,16.28,0,0,1-2,13.62,21.9,21.9,0,0,0,11.26-2.34,16.38,16.38,0,0,0,2.45-15.33"/></g></g></svg>